{
.appVersion = "1271";
DisplayStrings = (
"ABCDEFGHIJKLMNOPQRSTSUVWXYZ\012H1HH2HH3HH4HH5HH6HH7HH8HH9HH0HH2180 3215\012HHHHHHHHOHOHOOOO\012OOOOOOO\012HHAHOAOO H-A-H\012HHBHOBOO\012HHCHOCOO C-C\012HHDHODOO HH-HH\012HHEHOEOO H-E-H\012HHFHOFOO FOSFORO HF-H\012HHGHOGOO\012HHIHOIOO HOLOGRAMA\012HHJHOJOO\012HHKHOKOO HK-H\012HHLHOLOO\012HHMHOMOO\012HHNHONOO\012HHPHOPOO HP-H\012HHQHOQOO\012HHRHOROO ARQUOEO HR-H\012HHSHOSOO ASUSELO H-S-H\012HHTHCOO ALTO ALURO AJUAR\012HHUHOUOO ASADERO AFANADO\012HHVHOVOO H-V/emdash H ALW ATADURA KOLMA\012HHWHOWOO HW/emdash H Va Vã OVOIDE AVARO\012AWARNESS OWO OWNER ALVARO AMAYA\012HHYHOYOO H-Y-HPVCZHOZOO H-Z-H\012\012",
"ÐÞæïðøþ/OE/oe/circumflex \012nnnnnnononooooooooonnnnn \012nnanoaoo\012nnbnndnnoboo\012nncnocoo\012nndnodoo\012nnenoeoo\012nnfhnofoo afro\012nngnogoo\012nnhnohoo\012nn/idotless inoiooa\012nn/idotless no/idotless ooa\012nn/jdotless njnojoo\012nnknokoo\012nnlnoloo an\012nnmnomoo\012nnpnopoo\012nnqnoqoo a\012nnrnoroo\012nnsnosoo\012nntnotoo bn\012nnunouoo aun nun\012nnvnovoo\012nnwnowoo\012nnxnoxoo \012nnynoyoo\012nnznozoo",
"/Aogonek/Eogonek/Iogonek/Uogonek/aogonek/eogonek/iogonek/uogonek/ogonek/ogonekcomb",
"/Aogonek/Eogonek/Iogonek/Uogonek/aogonek/eogonek/iogonek/uogonek/ogonek/ogonekcomb",
"/IJ K/Kcommaaccent L/Lcommaaccent/Ncommaaccent R/Rcommaaccent T/ij/napostrophe/longs/kcommaaccent/lcommaaccent/ncommaaccent r/rcommaaccent tt/nsuperior",
"d/commaaccent d/dcaron ohlb\012nndnodoo\012nn/dcaron no/dcaron oo\012nn/dcaron ko/dcaron oo",
"L/Lcaron d/caron.alt/dcaron ll/lcaron kt/tcaron",

glyphs = (
{
glyphname = .notdef;
lastChange = "2019-12-01 03:48:16 +0000";
layers = (
{
background = {
paths = (
{
closed = 1;
nodes = (
"1381 88 LINE",
"1383 109 LINE",
"1360 109 OFFCURVE",
"1344 113 OFFCURVE",
"1338 123 CURVE",
"1404 251 LINE",
"1471 124 LINE",
"1463 115 OFFCURVE",
"1452 109 OFFCURVE",
"1430 109 CURVE",
"1427 88 LINE",
"1554 88 LINE",
"1557 109 LINE",
"1547 111 OFFCURVE",
"1533 113 OFFCURVE",
"1521 123 CURVE",
"1431 293 LINE",
"1506 438 LINE",
"1514 445 OFFCURVE",
"1523 450 OFFCURVE",
"1537 453 CURVE",
"1539 473 LINE",
"1435 473 LINE",
"1433 453 LINE",
"1449 449 OFFCURVE",
"1463 443 OFFCURVE",
"1471 437 CURVE",
"1414 326 LINE",
"1355 437 LINE",
"1364 444 OFFCURVE",
"1378 450 OFFCURVE",
"1394 453 CURVE",
"1397 473 LINE",
"1278 473 LINE",
"1276 453 LINE",
"1289 449 OFFCURVE",
"1298 443 OFFCURVE",
"1305 438 CURVE",
"1387 284 LINE",
"1304 123 LINE",
"1291 113 OFFCURVE",
"1276 110 OFFCURVE",
"1262 109 CURVE",
"1259 88 LINE"
);
},
{
closed = 1;
nodes = (
"856 123 LINE",
"922 251 LINE",
"989 124 LINE",
"1039 123 LINE",
"949 293 LINE",
"1024 438 LINE",
"989 437 LINE",
"932 326 LINE",
"873 437 LINE",
"823 438 LINE",
"905 284 LINE",
"822 123 LINE"
);
},
{
closed = 1;
nodes = (
"21 587 LINE",
"21 0 LINE",
"438 0 LINE",
"438 587 LINE"
);
},
{
closed = 1;
nodes = (
"382 551 LINE",
"382 36 LINE",
"77 36 LINE",
"77 551 LINE"
);
},
{
closed = 1;
nodes = (
"156 136 LINE",
"222 264 LINE",
"289 137 LINE",
"339 136 LINE",
"249 306 LINE",
"324 451 LINE",
"289 450 LINE",
"232 339 LINE",
"173 450 LINE",
"123 451 LINE",
"205 297 LINE",
"122 136 LINE"
);
}
);
};
layerId = UUID0;
paths = (
{
closed = 1;
nodes = (
"70 607 LINE",
"70 60 LINE",
"547 60 LINE",
"547 607 LINE"
);
},
{
closed = 1;
nodes = (
"497 571 LINE",
"497 96 LINE",
"120 96 LINE",
"120 571 LINE"
);
},
{
closed = 1;
nodes = (
"228 190 LINE",
"300 307 LINE",
"374 191 LINE",
"429 190 LINE",
"330 345 LINE",
"412 477 LINE",
"374 476 LINE",
"311 375 LINE",
"246 476 LINE",
"191 477 LINE",
"281 337 LINE",
"190 190 LINE"
);
}
);
width = 617;
},
{
background = {
paths = (
{
closed = 1;
nodes = (
"70 587 LINE",
"70 0 LINE",
"487 0 LINE",
"487 587 LINE"
);
},
{
closed = 1;
nodes = (
"431 551 LINE",
"431 36 LINE",
"126 36 LINE",
"126 551 LINE"
);
},
{
closed = 1;
nodes = (
"205 136 LINE",
"271 264 LINE",
"338 137 LINE",
"388 136 LINE",
"298 306 LINE",
"373 451 LINE",
"338 450 LINE",
"281 339 LINE",
"222 450 LINE",
"172 451 LINE",
"254 297 LINE",
"171 136 LINE"
);
}
);
};
layerId = "0EBA3A65-8808-4583-9AA2-2A9BC4F414AB";
paths = (
{
closed = 1;
nodes = (
"70 607 LINE",
"70 60 LINE",
"547 60 LINE",
"547 607 LINE"
);
},
{
closed = 1;
nodes = (
"497 571 LINE",
"497 96 LINE",
"120 96 LINE",
"120 571 LINE"
);
},
{
closed = 1;
nodes = (
"228 190 LINE",
"300 307 LINE",
"374 191 LINE",
"429 190 LINE",
"330 345 LINE",
"412 477 LINE",
"374 476 LINE",
"311 375 LINE",
"246 476 LINE",
"191 477 LINE",
"281 337 LINE",
"190 190 LINE"
);
}
);
width = 617;
}
);
},
{
color = 4;
glyphname = A;
lastChange = "2019-12-01 05:42:10 +0000";
layers = (
{
anchors = (
{
name = ogonek;
position = "{592, 0}";
},
{
name = top;
position = "{293, 667}";
}
);
background = {
anchors = (
{
name = ogonek;
position = "{592, 0}";
},
{
name = top;
position = "{297, 695}";
}
);
paths = (
{
closed = 1;
nodes = (
"233 0 LINE",
"237 37 LINE",
"204 41 OFFCURVE",
"169 47 OFFCURVE",
"140 64 CURVE",
"186 215 LINE",
"388 215 LINE",
"439 64 LINE",
"410 47 OFFCURVE",
"380 41 OFFCURVE",
"347 37 CURVE",
"342 0 LINE",
"592 0 LINE",
"596 37 LINE",
"573 41 OFFCURVE",
"551 47 OFFCURVE",
"530 62 CURVE",
"324 667 LINE",
"264 667 LINE",
"77 63 LINE",
"54 46 OFFCURVE",
"32 41 OFFCURVE",
"6 37 CURVE",
"1 0 LINE"
);
},
{
closed = 1;
nodes = (
"283 528 LINE",
"371 267 LINE",
"202 267 LINE"
);
}
);
};
layerId = UUID0;
paths = (
{
closed = 1;
nodes = (
"233 0 LINE",
"237 37 LINE",
"204 41 OFFCURVE",
"169 47 OFFCURVE",
"140 64 CURVE",
"186 215 LINE",
"388 215 LINE",
"439 64 LINE",
"410 47 OFFCURVE",
"380 41 OFFCURVE",
"347 37 CURVE",
"342 0 LINE",
"592 0 LINE",
"596 37 LINE",
"573 41 OFFCURVE",
"551 47 OFFCURVE",
"530 62 CURVE",
"324 667 LINE",
"264 667 LINE",
"77 63 LINE",
"54 46 OFFCURVE",
"32 41 OFFCURVE",
"6 37 CURVE",
"1 0 LINE"
);
},
{
closed = 1;
nodes = (
"283 528 LINE",
"371 267 LINE",
"202 267 LINE"
);
}
);
width = 599;
},
{
anchors = (
{
name = ogonek;
position = "{643, 0}";
},
{
name = top;
position = "{328, 667}";
}
);
background = {
anchors = (
{
name = ogonek;
position = "{643, 0}";
},
{
name = top;
position = "{328, 705}";
}
);
paths = (
{
closed = 1;
nodes = (
"222 0 LINE",
"227 40 LINE",
"193 44 OFFCURVE",
"161 54 OFFCURVE",
"142 70 CURVE",
"190 208 LINE",
"396 208 LINE",
"443 65 LINE",
"433 52 OFFCURVE",
"411 44 OFFCURVE",
"383 40 CURVE",
"377 0 LINE",
"651 0 LINE",
"656 40 LINE",
"632 44 OFFCURVE",
"608 52 OFFCURVE",
"595 74 CURVE",
"380 667 LINE",
"276 667 LINE",
"63 65 LINE",
"52 48 OFFCURVE",
"28 41 OFFCURVE",
"2 40 CURVE",
"-4 0 LINE"
);
},
{
closed = 1;
nodes = (
"297 511 LINE",
"375 271 LINE",
"212 271 LINE"
);
}
);
};
layerId = "0EBA3A65-8808-4583-9AA2-2A9BC4F414AB";
paths = (
{
closed = 1;
nodes = (
"222 0 LINE",
"227 40 LINE",
"193 44 OFFCURVE",
"161 54 OFFCURVE",
"142 70 CURVE",
"190 208 LINE",
"396 208 LINE",
"443 65 LINE",
"433 52 OFFCURVE",
"411 44 OFFCURVE",
"383 40 CURVE",
"377 0 LINE",
"651 0 LINE",
"656 40 LINE",
"619 47 OFFCURVE",
"601 58 OFFCURVE",
"593 80 CURVE SMOOTH",
"380 667 LINE",
"276 667 LINE",
"65 70 LINE SMOOTH",
"59 53 OFFCURVE",
"36 41 OFFCURVE",
"2 40 CURVE",
"-4 0 LINE"
);
},
{
closed = 1;
nodes = (
"297 511 LINE",
"375 271 LINE",
"212 271 LINE"
);
}
);
width = 653;
}
);
leftKerningGroup = A;
rightKerningGroup = A;
unicode = 0041;
},
{
color = 4;
glyphname = B;
lastChange = "2019-12-01 02:06:51 +0000";
layers = (
{
background = {
paths = (
{
closed = 1;
nodes = (
"321 0 LINE SMOOTH",
"468 0 OFFCURVE",
"551 74 OFFCURVE",
"551 188 CURVE SMOOTH",
"551 270 OFFCURVE",
"496 328 OFFCURVE",
"406 354 CURVE",
"483 376 OFFCURVE",
"523 425 OFFCURVE",
"523 501 CURVE SMOOTH",
"523 607 OFFCURVE",
"449 667 OFFCURVE",
"294 667 CURVE SMOOTH",
"35 667 LINE",
"34 655 OFFCURVE",
"32 643 OFFCURVE",
"30 631 CURVE",
"73 626 OFFCURVE",
"105 617 OFFCURVE",
"128 604 CURVE",
"128 64 LINE",
"104 50 OFFCURVE",
"77 42 OFFCURVE",
"36 37 CURVE",
"31 0 LINE"
);
},
{
closed = 1;
nodes = (
"275 49 OFFCURVE",
"216 53 OFFCURVE",
"216 53 CURVE",
"216 327 LINE",
"295 327 LINE SMOOTH",
"407 327 OFFCURVE",
"460 275 OFFCURVE",
"460 187 CURVE SMOOTH",
"460 98 OFFCURVE",
"414 49 OFFCURVE",
"321 49 CURVE SMOOTH"
);
},
{
closed = 1;
nodes = (
"216 617 LINE",
"255 620 OFFCURVE",
"282 621 OFFCURVE",
"293 621 CURVE SMOOTH",
"392 621 OFFCURVE",
"436 583 OFFCURVE",
"436 499 CURVE SMOOTH",
"436 415 OFFCURVE",
"392 376 OFFCURVE",
"296 376 CURVE SMOOTH",
"216 376 LINE"
);
}
);
};
layerId = UUID0;
paths = (
{
closed = 1;
nodes = (
"321 0 LINE SMOOTH",
"468 0 OFFCURVE",
"551 74 OFFCURVE",
"551 188 CURVE SMOOTH",
"551 270 OFFCURVE",
"496 328 OFFCURVE",
"406 354 CURVE",
"483 376 OFFCURVE",
"523 425 OFFCURVE",
"523 501 CURVE SMOOTH",
"523 607 OFFCURVE",
"449 667 OFFCURVE",
"294 667 CURVE SMOOTH",
"35 667 LINE",
"30 631 LINE",
"73 626 OFFCURVE",
"105 617 OFFCURVE",
"128 604 CURVE",
"128 64 LINE",
"104 50 OFFCURVE",
"77 42 OFFCURVE",
"36 37 CURVE",
"31 0 LINE"
);
},
{
closed = 1;
nodes = (
"275 49 OFFCURVE",
"237 51 OFFCURVE",
"216 53 CURVE",
"216 327 LINE",
"295 327 LINE SMOOTH",
"407 327 OFFCURVE",
"460 275 OFFCURVE",
"460 187 CURVE SMOOTH",
"460 98 OFFCURVE",
"414 49 OFFCURVE",
"321 49 CURVE SMOOTH"
);
},
{
closed = 1;
nodes = (
"216 617 LINE",
"238 619 OFFCURVE",
"266 621 OFFCURVE",
"293 621 CURVE SMOOTH",
"392 621 OFFCURVE",
"436 583 OFFCURVE",
"436 499 CURVE SMOOTH",
"436 415 OFFCURVE",
"392 376 OFFCURVE",
"296 376 CURVE SMOOTH",
"216 376 LINE"
);
}
);
width = 579;
},
{
background = {
paths = (
{
closed = 1;
nodes = (
"338 0 LINE SMOOTH",
"506 0 OFFCURVE",
"608 71 OFFCURVE",
"608 188 CURVE SMOOTH",
"608 269 OFFCURVE",
"556 331 OFFCURVE",
"463 359 CURVE",
"543 380 OFFCURVE",
"585 428 OFFCURVE",
"585 501 CURVE SMOOTH",
"585 609 OFFCURVE",
"491 667 OFFCURVE",
"316 667 CURVE SMOOTH",
"34 667 LINE",
"33 655 OFFCURVE",
"32 640 OFFCURVE",
"30 628 CURVE",
"61 618 OFFCURVE",
"79 608 OFFCURVE",
"91 596 CURVE",
"91 71 LINE",
"73 53 OFFCURVE",
"59 46 OFFCURVE",
"34 41 CURVE",
"30 0 LINE"
);
},
{
closed = 1;
nodes = (
"285 62 OFFCURVE",
"264 63 OFFCURVE",
"238 65 CURVE",
"238 320 LINE",
"292 320 LINE SMOOTH",
"395 320 OFFCURVE",
"448 275 OFFCURVE",
"448 187 CURVE SMOOTH",
"448 101 OFFCURVE",
"404 62 OFFCURVE",
"306 62 CURVE SMOOTH"
);
},
{
closed = 1;
nodes = (
"238 602 LINE",
"258 605 OFFCURVE",
"277 606 OFFCURVE",
"303 606 CURVE SMOOTH",
"384 606 OFFCURVE",
"430 568 OFFCURVE",
"430 499 CURVE SMOOTH",
"430 422 OFFCURVE",
"384 383 OFFCURVE",
"293 383 CURVE SMOOTH",
"238 383 LINE"
);
}
);
};
layerId = "0EBA3A65-8808-4583-9AA2-2A9BC4F414AB";
paths = (
{
closed = 1;
nodes = (
"338 0 LINE SMOOTH",
"506 0 OFFCURVE",
"608 71 OFFCURVE",
"608 188 CURVE SMOOTH",
"608 269 OFFCURVE",
"556 331 OFFCURVE",
"463 359 CURVE",
"543 380 OFFCURVE",
"585 428 OFFCURVE",
"585 501 CURVE SMOOTH",
"585 609 OFFCURVE",
"491 667 OFFCURVE",
"316 667 CURVE SMOOTH",
"34 667 LINE",
"30 628 LINE",
"61 618 OFFCURVE",
"79 608 OFFCURVE",
"91 596 CURVE",
"91 71 LINE",
"73 53 OFFCURVE",
"59 46 OFFCURVE",
"34 41 CURVE",
"30 0 LINE"
);
},
{
closed = 1;
nodes = (
"285 62 OFFCURVE",
"264 63 OFFCURVE",
"238 65 CURVE",
"238 320 LINE",
"292 320 LINE SMOOTH",
"395 320 OFFCURVE",
"448 275 OFFCURVE",
"448 187 CURVE SMOOTH",
"448 101 OFFCURVE",
"404 62 OFFCURVE",
"306 62 CURVE SMOOTH"
);
},
{
closed = 1;
nodes = (
"238 602 LINE",
"258 605 OFFCURVE",
"277 606 OFFCURVE",
"303 606 CURVE SMOOTH",
"384 606 OFFCURVE",
"430 568 OFFCURVE",
"430 499 CURVE SMOOTH",
"430 422 OFFCURVE",
"384 383 OFFCURVE",
"293 383 CURVE SMOOTH",
"238 383 LINE"
);
}
);
width = 634;
}
);
leftKerningGroup = H;
rightKerningGroup = B;
unicode = 0042;
},
{
color = 4;
glyphname = C;
lastChange = "2019-12-01 02:07:40 +0000";
layers = (
{
anchors = (
{
name = cedilla;
position = "{288, 0}";
},
{
name = top;
position = "{273, 667}";
}
);
background = {
anchors = (
{
name = cedilla;
position = "{278, 0}";
},
{
name = top;
position = "{273, 705}";
}
);
paths = (
{
closed = 1;
nodes = (
"415 -7 OFFCURVE",
"496 97 OFFCURVE",
"496 97 CURVE",
"461 135 LINE",
"430 95 OFFCURVE",
"359 53 OFFCURVE",
"285 53 CURVE SMOOTH",
"176 53 OFFCURVE",
"126 141 OFFCURVE",
"126 334 CURVE SMOOTH",
"126 531 OFFCURVE",
"177 622 OFFCURVE",
"285 622 CURVE SMOOTH",
"347 622 OFFCURVE",
"387 595 OFFCURVE",
"387 554 CURVE SMOOTH",
"387 538 OFFCURVE",
"381 522 OFFCURVE",
"368 504 CURVE",
"376 481 OFFCURVE",
"400 465 OFFCURVE",
"426 465 CURVE SMOOTH",
"458 465 OFFCURVE",
"484 500 OFFCURVE",
"484 544 CURVE SMOOTH",
"484 620 OFFCURVE",
"400 676 OFFCURVE",
"285 676 CURVE SMOOTH",
"109 676 OFFCURVE",
"26 566 OFFCURVE",
"26 334 CURVE SMOOTH",
"26 101 OFFCURVE",
"108 -7 OFFCURVE",
"284 -7 CURVE SMOOTH"
);
}
);
};
layerId = UUID0;
paths = (
{
closed = 1;
nodes = (
"393 -7 OFFCURVE",
"468 63 OFFCURVE",
"496 97 CURVE",
"461 135 LINE",
"430 95 OFFCURVE",
"359 53 OFFCURVE",
"285 53 CURVE SMOOTH",
"176 53 OFFCURVE",
"126 141 OFFCURVE",
"126 334 CURVE SMOOTH",
"126 531 OFFCURVE",
"177 622 OFFCURVE",
"285 622 CURVE SMOOTH",
"347 622 OFFCURVE",
"387 595 OFFCURVE",
"387 554 CURVE SMOOTH",
"387 538 OFFCURVE",
"381 522 OFFCURVE",
"368 504 CURVE",
"376 481 OFFCURVE",
"400 465 OFFCURVE",
"426 465 CURVE SMOOTH",
"458 465 OFFCURVE",
"484 500 OFFCURVE",
"484 544 CURVE SMOOTH",
"484 620 OFFCURVE",
"400 676 OFFCURVE",
"285 676 CURVE SMOOTH",
"109 676 OFFCURVE",
"26 566 OFFCURVE",
"26 334 CURVE SMOOTH",
"26 101 OFFCURVE",
"108 -7 OFFCURVE",
"282 -7 CURVE SMOOTH"
);
}
);
width = 519;
},
{
anchors = (
{
name = cedilla;
position = "{304, 0}";
},
{
name = top;
position = "{294, 667}";
}
);
background = {
anchors = (
{
name = cedilla;
position = "{304, 0}";
},
{
name = top;
position = "{294, 705}";
}
);
paths = (
{
closed = 1;
nodes = (
"388 -10 OFFCURVE",
"468 31 OFFCURVE",
"531 101 CURVE",
"498 133 LINE",
"452 84 OFFCURVE",
"399 58 OFFCURVE",
"346 58 CURVE SMOOTH",
"234 58 OFFCURVE",
"190 159 OFFCURVE",
"190 342 CURVE SMOOTH",
"190 525 OFFCURVE",
"228 621 OFFCURVE",
"308 621 CURVE SMOOTH",
"349 621 OFFCURVE",
"376 595 OFFCURVE",
"376 555 CURVE SMOOTH",
"376 538 OFFCURVE",
"370 519 OFFCURVE",
"360 502 CURVE",
"373 475 OFFCURVE",
"405 456 OFFCURVE",
"437 456 CURVE SMOOTH",
"482 456 OFFCURVE",
"517 494 OFFCURVE",
"517 542 CURVE SMOOTH",
"517 620 OFFCURVE",
"433 674 OFFCURVE",
"312 674 CURVE SMOOTH",
"123 674 OFFCURVE",
"25 556 OFFCURVE",
"25 325 CURVE SMOOTH",
"25 105 OFFCURVE",
"125 -10 OFFCURVE",
"313 -10 CURVE SMOOTH"
);
}
);
};
layerId = "0EBA3A65-8808-4583-9AA2-2A9BC4F414AB";
paths = (
{
closed = 1;
nodes = (
"388 -10 OFFCURVE",
"468 31 OFFCURVE",
"531 101 CURVE",
"498 133 LINE",
"452 84 OFFCURVE",
"399 58 OFFCURVE",
"346 58 CURVE SMOOTH",
"234 58 OFFCURVE",
"190 159 OFFCURVE",
"190 342 CURVE SMOOTH",
"190 525 OFFCURVE",
"228 621 OFFCURVE",
"308 621 CURVE SMOOTH",
"349 621 OFFCURVE",
"376 595 OFFCURVE",
"376 555 CURVE SMOOTH",
"376 538 OFFCURVE",
"370 519 OFFCURVE",
"360 502 CURVE",
"373 475 OFFCURVE",
"405 456 OFFCURVE",
"437 456 CURVE SMOOTH",
"482 456 OFFCURVE",
"517 494 OFFCURVE",
"517 542 CURVE SMOOTH",
"517 620 OFFCURVE",
"433 674 OFFCURVE",
"312 674 CURVE SMOOTH",
"123 674 OFFCURVE",
"25 556 OFFCURVE",
"25 325 CURVE SMOOTH",
"25 105 OFFCURVE",
"125 -10 OFFCURVE",
"313 -10 CURVE SMOOTH"
);
}
);
width = 551;
}
);
leftKerningGroup = O;
rightKerningGroup = C;
unicode = 0043;
},
{
color = 4;
glyphname = D;
lastChange = "2019-12-01 02:08:20 +0000";
layers = (
{
anchors = (
{
name = top;
position = "{314, 667}";
}
);
background = {
anchors = (
{
name = top;
position = "{314, 705}";
}
);
paths = (
{
closed = 1;
nodes = (
"244 0 LINE SMOOTH",
"480 0 OFFCURVE",
"599 96 OFFCURVE",
"599 333 CURVE SMOOTH",
"599 569 OFFCURVE",
"479 667 OFFCURVE",
"250 667 CURVE SMOOTH",
"35 667 LINE",
"30 631 LINE",
"62 627 OFFCURVE",
"98 620 OFFCURVE",
"127 604 CURVE",
"127 63 LINE",
"99 46 OFFCURVE",
"68 41 OFFCURVE",
"36 37 CURVE",
"31 0 LINE"
);
},
{
closed = 1;
nodes = (
"415 617 OFFCURVE",
"499 548 OFFCURVE",
"499 334 CURVE SMOOTH",
"499 117 OFFCURVE",
"413 49 OFFCURVE",
"261 49 CURVE SMOOTH",
"247 49 OFFCURVE",
"229 50 OFFCURVE",
"216 53 CURVE",
"216 617 LINE",
"264 617 LINE"
);
}
);
};
layerId = UUID0;
paths = (
{
closed = 1;
nodes = (
"244 0 LINE SMOOTH",
"480 0 OFFCURVE",
"599 96 OFFCURVE",
"599 333 CURVE SMOOTH",
"599 569 OFFCURVE",
"479 667 OFFCURVE",
"250 667 CURVE SMOOTH",
"35 667 LINE",
"30 631 LINE",
"62 627 OFFCURVE",
"98 620 OFFCURVE",
"127 604 CURVE",
"127 63 LINE",
"99 46 OFFCURVE",
"68 41 OFFCURVE",
"36 37 CURVE",
"31 0 LINE"
);
},
{
closed = 1;
nodes = (
"247 49 OFFCURVE",
"229 50 OFFCURVE",
"216 53 CURVE",
"216 617 LINE",
"264 617 LINE",
"415 617 OFFCURVE",
"499 548 OFFCURVE",
"499 334 CURVE SMOOTH",
"499 117 OFFCURVE",
"413 49 OFFCURVE",
"261 49 CURVE SMOOTH"
);
}
);
width = 625;
},
{
anchors = (
{
name = top;
position = "{312, 667}";
}
);
background = {
anchors = (
{
name = top;
position = "{312, 705}";
}
);
paths = (
{
closed = 1;
nodes = (
"242 0 LINE SMOOTH",
"521 0 OFFCURVE",
"639 101 OFFCURVE",
"639 333 CURVE SMOOTH",
"639 565 OFFCURVE",
"522 667 OFFCURVE",
"248 667 CURVE SMOOTH",
"34 667 LINE",
"30 628 LINE",
"59 618 OFFCURVE",
"78 608 OFFCURVE",
"90 597 CURVE",
"90 70 LINE",
"72 53 OFFCURVE",
"58 46 OFFCURVE",
"34 41 CURVE",
"30 0 LINE"
);
},
{
closed = 1;
nodes = (
"424 605 OFFCURVE",
"482 524 OFFCURVE",
"482 334 CURVE SMOOTH",
"482 145 OFFCURVE",
"421 62 OFFCURVE",
"277 62 CURVE SMOOTH",
"255 62 OFFCURVE",
"245 63 OFFCURVE",
"238 66 CURVE",
"238 605 LINE",
"280 605 LINE"
);
}
);
};
layerId = "0EBA3A65-8808-4583-9AA2-2A9BC4F414AB";
paths = (
{
closed = 1;
nodes = (
"242 0 LINE SMOOTH",
"521 0 OFFCURVE",
"639 101 OFFCURVE",
"639 333 CURVE SMOOTH",
"639 565 OFFCURVE",
"522 667 OFFCURVE",
"248 667 CURVE SMOOTH",
"34 667 LINE",
"30 628 LINE",
"59 618 OFFCURVE",
"78 608 OFFCURVE",
"90 597 CURVE",
"90 70 LINE",
"72 53 OFFCURVE",
"58 46 OFFCURVE",
"34 41 CURVE",
"30 0 LINE"
);
},
{
closed = 1;
nodes = (
"259 62 OFFCURVE",
"250 63 OFFCURVE",
"238 66 CURVE",
"238 605 LINE",
"280 605 LINE",
"424 605 OFFCURVE",
"482 524 OFFCURVE",
"482 334 CURVE SMOOTH",
"482 145 OFFCURVE",
"421 62 OFFCURVE",
"277 62 CURVE SMOOTH"
);
}
);
width = 664;
}
);
leftKerningGroup = H;
rightKerningGroup = O;
unicode = 0044;
},
{
color = 4;
glyphname = E;
lastChange = "2019-11-29 16:57:08 +0000";
layers = (
{
anchors = (
{
name = ogonek;
position = "{484, 0}";
},
{
name = top;
position = "{271, 667}";
}
);
background = {
anchors = (
{
name = ogonek;
position = "{503, 0}";
},
{
name = top;
position = "{271, 705}";
}
);
paths = (
{
closed = 1;
nodes = (
"503 0 LINE",
"512 171 LINE",
"504 172 OFFCURVE",
"498 173 OFFCURVE",
"491 173 CURVE SMOOTH",
"485 173 OFFCURVE",
"478 172 OFFCURVE",
"472 171 CURVE",
"466 138 OFFCURVE",
"455 94 OFFCURVE",
"429 58 CURVE",
"216 58 LINE",
"216 318 LINE",
"326 312 LINE SMOOTH",
"360 310 OFFCURVE",
"370 293 OFFCURVE",
"385 238 CURVE",
"417 238 LINE",
"417 436 LINE",
"385 436 LINE",
"375 401 OFFCURVE",
"360 370 OFFCURVE",
"329 369 CURVE SMOOTH",
"216 364 LINE",
"216 614 LINE",
"404 614 LINE",
"429 583 OFFCURVE",
"440 543 OFFCURVE",
"446 512 CURVE",
"451 511 OFFCURVE",
"456 510 OFFCURVE",
"461 510 CURVE SMOOTH",
"471 510 OFFCURVE",
"481 512 OFFCURVE",
"489 515 CURVE",
"481 667 LINE",
"35 667 LINE",
"34 655 OFFCURVE",
"32 643 OFFCURVE",
"30 631 CURVE",
"63 627 OFFCURVE",
"99 619 OFFCURVE",
"128 604 CURVE",
"128 64 LINE",
"112 52 OFFCURVE",
"69 41 OFFCURVE",
"36 37 CURVE",
"30 0 LINE"
);
}
);
};
layerId = UUID0;
paths = (
{
closed = 1;
nodes = (
"503 0 LINE",
"512 171 LINE",
"504 172 OFFCURVE",
"498 173 OFFCURVE",
"491 173 CURVE SMOOTH",
"485 173 OFFCURVE",
"478 172 OFFCURVE",
"472 171 CURVE",
"466 138 OFFCURVE",
"455 94 OFFCURVE",
"429 58 CURVE",
"216 58 LINE",
"216 318 LINE",
"326 312 LINE SMOOTH",
"360 310 OFFCURVE",
"370 293 OFFCURVE",
"385 238 CURVE",
"417 238 LINE",
"417 436 LINE",
"385 436 LINE",
"375 401 OFFCURVE",
"360 370 OFFCURVE",
"329 369 CURVE SMOOTH",
"216 364 LINE",
"216 614 LINE",
"404 614 LINE",
"429 583 OFFCURVE",
"440 543 OFFCURVE",
"446 512 CURVE",
"451 511 OFFCURVE",
"456 510 OFFCURVE",
"461 510 CURVE SMOOTH",
"471 510 OFFCURVE",
"481 512 OFFCURVE",
"489 515 CURVE",
"481 667 LINE",
"35 667 LINE",
"30 631 LINE",
"63 627 OFFCURVE",
"99 619 OFFCURVE",
"128 604 CURVE",
"128 64 LINE",
"112 52 OFFCURVE",
"69 41 OFFCURVE",
"36 37 CURVE",
"30 0 LINE"
);
}
);
width = 540;
},
{
anchors = (
{
name = ogonek;
position = "{485, 0}";
},
{
name = top;
position = "{299, 667}";
}
);
background = {
anchors = (
{
name = ogonek;
position = "{516, 0}";
},
{
name = top;
position = "{299, 705}";
}
);
paths = (
{
closed = 1;
nodes = (
"524 0 LINE",
"534 189 LINE",
"523 191 OFFCURVE",
"512 192 OFFCURVE",
"501 192 CURVE SMOOTH",
"486 192 OFFCURVE",
"474 191 OFFCURVE",
"460 189 CURVE",
"450 135 OFFCURVE",
"434 93 OFFCURVE",
"413 62 CURVE",
"238 62 LINE",
"238 318 LINE",
"330 310 LINE SMOOTH",
"353 308 OFFCURVE",
"368 290 OFFCURVE",
"387 236 CURVE",
"439 236 LINE",
"439 443 LINE",
"387 443 LINE",
"377 404 OFFCURVE",
"355 378 OFFCURVE",
"331 376 CURVE SMOOTH",
"238 369 LINE",
"238 606 LINE",
"406 606 LINE",
"426 579 OFFCURVE",
"438 550 OFFCURVE",
"449 499 CURVE",
"460 497 OFFCURVE",
"471 495 OFFCURVE",
"481 495 CURVE SMOOTH",
"496 495 OFFCURVE",
"510 498 OFFCURVE",
"523 502 CURVE",
"519 667 LINE",
"33 667 LINE",
"33 654 OFFCURVE",
"32 642 OFFCURVE",
"30 630 CURVE",
"54 625 OFFCURVE",
"75 615 OFFCURVE",
"91 601 CURVE",
"91 66 LINE",
"81 55 OFFCURVE",
"55 44 OFFCURVE",
"34 41 CURVE",
"30 0 LINE"
);
}
);
};
layerId = "0EBA3A65-8808-4583-9AA2-2A9BC4F414AB";
paths = (
{
closed = 1;
nodes = (
"524 0 LINE",
"534 189 LINE",
"523 191 OFFCURVE",
"512 192 OFFCURVE",
"501 192 CURVE SMOOTH",
"486 192 OFFCURVE",
"474 191 OFFCURVE",
"460 189 CURVE",
"450 135 OFFCURVE",
"434 93 OFFCURVE",
"413 62 CURVE",
"238 62 LINE",
"238 318 LINE",
"330 310 LINE SMOOTH",
"353 308 OFFCURVE",
"368 290 OFFCURVE",
"387 236 CURVE",
"439 236 LINE",
"439 443 LINE",
"387 443 LINE",
"377 404 OFFCURVE",
"355 378 OFFCURVE",
"331 376 CURVE SMOOTH",
"238 369 LINE",
"238 606 LINE",
"406 606 LINE",
"426 579 OFFCURVE",
"438 550 OFFCURVE",
"449 499 CURVE",
"460 497 OFFCURVE",
"471 495 OFFCURVE",
"481 495 CURVE SMOOTH",
"496 495 OFFCURVE",
"510 498 OFFCURVE",
"523 502 CURVE",
"519 667 LINE",
"33 667 LINE",
"30 630 LINE",
"54 625 OFFCURVE",
"75 615 OFFCURVE",
"91 601 CURVE",
"91 66 LINE",
"81 55 OFFCURVE",
"55 44 OFFCURVE",
"34 41 CURVE",
"30 0 LINE"
);
}
);
width = 559;
}
);
leftKerningGroup = H;
rightKerningGroup = E;
unicode = 0045;
},
{
color = 4;
glyphname = F;
lastChange = "2019-11-29 14:44:46 +0000";
layers = (
{
background = {
paths = (
{
closed = 1;
nodes = (
"309 0 LINE",
"313 37 LINE",
"280 41 OFFCURVE",
"242 48 OFFCURVE",
"216 64 CURVE",
"216 310 LINE",
"328 304 LINE SMOOTH",
"358 302 OFFCURVE",
"374 278 OFFCURVE",
"385 231 CURVE",
"417 231 LINE",
"417 429 LINE",
"385 429 LINE",
"379 405 OFFCURVE",
"363 362 OFFCURVE",
"329 361 CURVE SMOOTH",
"216 356 LINE",
"216 614 LINE",
"399 614 LINE",
"426 583 OFFCURVE",
"440 543 OFFCURVE",
"446 512 CURVE",
"451 510 OFFCURVE",
"457 510 OFFCURVE",
"462 510 CURVE SMOOTH",
"472 510 OFFCURVE",
"481 512 OFFCURVE",
"489 515 CURVE",
"481 667 LINE",
"35 667 LINE",
"34 655 OFFCURVE",
"32 643 OFFCURVE",
"30 631 CURVE",
"64 627 OFFCURVE",
"99 619 OFFCURVE",
"128 604 CURVE",
"128 64 LINE",
"112 52 OFFCURVE",
"69 41 OFFCURVE",
"36 37 CURVE",
"30 0 LINE"
);
}
);
};
layerId = UUID0;
paths = (
{
closed = 1;
nodes = (
"309 0 LINE",
"313 37 LINE",
"280 41 OFFCURVE",
"242 48 OFFCURVE",
"216 64 CURVE",
"216 310 LINE",
"328 304 LINE SMOOTH",
"358 302 OFFCURVE",
"374 278 OFFCURVE",
"385 231 CURVE",
"417 231 LINE",
"417 429 LINE",
"385 429 LINE",
"379 405 OFFCURVE",
"363 362 OFFCURVE",
"329 361 CURVE SMOOTH",
"216 356 LINE",
"216 614 LINE",
"399 614 LINE",
"426 583 OFFCURVE",
"440 543 OFFCURVE",
"446 512 CURVE",
"451 510 OFFCURVE",
"457 510 OFFCURVE",
"462 510 CURVE SMOOTH",
"472 510 OFFCURVE",
"481 512 OFFCURVE",
"489 515 CURVE",
"481 667 LINE",
"35 667 LINE",
"30 631 LINE",
"64 627 OFFCURVE",
"99 619 OFFCURVE",
"128 604 CURVE",
"128 64 LINE",
"112 52 OFFCURVE",
"69 41 OFFCURVE",
"36 37 CURVE",
"30 0 LINE"
);
}
);
width = 509;
},
{
background = {
paths = (
{
closed = 1;
nodes = (
"306 0 LINE",
"313 39 LINE",
"279 46 OFFCURVE",
"253 57 OFFCURVE",
"238 71 CURVE",
"238 318 LINE",
"330 310 LINE SMOOTH",
"353 308 OFFCURVE",
"368 290 OFFCURVE",
"387 236 CURVE",
"439 236 LINE",
"439 443 LINE",
"387 443 LINE",
"377 404 OFFCURVE",
"355 378 OFFCURVE",
"331 376 CURVE SMOOTH",
"238 369 LINE",
"238 606 LINE",
"401 606 LINE",
"421 579 OFFCURVE",
"433 550 OFFCURVE",
"444 499 CURVE",
"456 497 OFFCURVE",
"468 496 OFFCURVE",
"479 496 CURVE SMOOTH",
"492 496 OFFCURVE",
"505 498 OFFCURVE",
"519 502 CURVE",
"510 667 LINE",
"33 667 LINE",
"33 655 OFFCURVE",
"32 643 OFFCURVE",
"30 630 CURVE",
"54 625 OFFCURVE",
"75 615 OFFCURVE",
"91 601 CURVE",
"91 66 LINE",
"81 55 OFFCURVE",
"55 44 OFFCURVE",
"34 41 CURVE",
"30 0 LINE"
);
}
);
};
layerId = "0EBA3A65-8808-4583-9AA2-2A9BC4F414AB";
paths = (
{
closed = 1;
nodes = (
"306 0 LINE",
"313 39 LINE",
"279 46 OFFCURVE",
"253 57 OFFCURVE",
"238 71 CURVE",
"238 318 LINE",
"330 310 LINE SMOOTH",
"353 308 OFFCURVE",
"368 290 OFFCURVE",
"387 236 CURVE",
"439 236 LINE",
"439 443 LINE",
"387 443 LINE",
"377 404 OFFCURVE",
"355 378 OFFCURVE",
"331 376 CURVE SMOOTH",
"238 369 LINE",
"238 606 LINE",
"401 606 LINE",
"421 579 OFFCURVE",
"433 550 OFFCURVE",
"444 499 CURVE",
"456 497 OFFCURVE",
"468 496 OFFCURVE",
"479 496 CURVE SMOOTH",
"492 496 OFFCURVE",
"505 498 OFFCURVE",
"519 502 CURVE",
"510 667 LINE",
"33 667 LINE",
"30 630 LINE",
"54 625 OFFCURVE",
"75 615 OFFCURVE",
"91 601 CURVE",
"91 66 LINE",
"81 55 OFFCURVE",
"55 44 OFFCURVE",
"34 41 CURVE",
"30 0 LINE"
);
}
);
width = 534;
}
);
leftKerningGroup = H;
rightKerningGroup = F;
unicode = 0046;
},
{
color = 4;
glyphname = G;
lastChange = "2019-12-01 02:10:29 +0000";
layers = (
{
anchors = (
{
name = bottom;
position = "{288, 0}";
},
{
name = top;
position = "{288, 667}";
}
);
background = {
anchors = (
{
name = bottom;
position = "{288, 0}";
},
{
name = top;
position = "{288, 705}";
}
);
paths = (
{
closed = 1;
nodes = (
"369 -7 OFFCURVE",
"454 11 OFFCURVE",
"510 42 CURVE",
"510 325 LINE",
"323 316 LINE",
"319 279 LINE",
"360 276 OFFCURVE",
"391 270 OFFCURVE",
"421 258 CURVE",
"421 83 LINE",
"407 71 OFFCURVE",
"359 46 OFFCURVE",
"298 46 CURVE SMOOTH",
"150 46 OFFCURVE",
"127 182 OFFCURVE",
"127 334 CURVE SMOOTH",
"127 487 OFFCURVE",
"151 622 OFFCURVE",
"300 622 CURVE SMOOTH",
"361 622 OFFCURVE",
"412 600 OFFCURVE",
"412 554 CURVE SMOOTH",
"412 539 OFFCURVE",
"406 523 OFFCURVE",
"393 504 CURVE",
"401 482 OFFCURVE",
"424 465 OFFCURVE",
"451 465 CURVE SMOOTH",
"482 465 OFFCURVE",
"510 496 OFFCURVE",
"510 544 CURVE SMOOTH",
"510 638 OFFCURVE",
"391 676 OFFCURVE",
"299 676 CURVE SMOOTH",
"95 676 OFFCURVE",
"26 543 OFFCURVE",
"26 334 CURVE SMOOTH",
"26 126 OFFCURVE",
"92 -7 OFFCURVE",
"298 -7 CURVE SMOOTH"
);
}
);
};
layerId = UUID0;
paths = (
{
closed = 1;
nodes = (
"369 -7 OFFCURVE",
"454 11 OFFCURVE",
"510 42 CURVE",
"510 325 LINE",
"323 316 LINE",
"319 279 LINE",
"360 276 OFFCURVE",
"391 270 OFFCURVE",
"421 258 CURVE",
"421 83 LINE",
"407 71 OFFCURVE",
"359 46 OFFCURVE",
"298 46 CURVE SMOOTH",
"150 46 OFFCURVE",
"127 182 OFFCURVE",
"127 334 CURVE SMOOTH",
"127 487 OFFCURVE",
"151 622 OFFCURVE",
"300 622 CURVE SMOOTH",
"361 622 OFFCURVE",
"412 600 OFFCURVE",
"412 554 CURVE SMOOTH",
"412 539 OFFCURVE",
"406 523 OFFCURVE",
"393 504 CURVE",
"401 482 OFFCURVE",
"424 465 OFFCURVE",
"451 465 CURVE SMOOTH",
"482 465 OFFCURVE",
"510 496 OFFCURVE",
"510 544 CURVE SMOOTH",
"510 638 OFFCURVE",
"391 676 OFFCURVE",
"299 676 CURVE SMOOTH",
"95 676 OFFCURVE",
"26 543 OFFCURVE",
"26 334 CURVE SMOOTH",
"26 126 OFFCURVE",
"92 -7 OFFCURVE",
"298 -7 CURVE SMOOTH"
);
}
);
width = 539;
},
{
anchors = (
{
name = bottom;
position = "{309, 0}";
},
{
name = top;
position = "{319, 667}";
}
);
background = {
anchors = (
{
name = bottom;
position = "{309, 0}";
},
{
name = top;
position = "{319, 705}";
}
);
paths = (
{
closed = 1;
nodes = (
"400 -10 OFFCURVE",
"489 18 OFFCURVE",
"556 66 CURVE",
"556 340 LINE",
"336 332 LINE",
"331 292 LINE",
"367 288 OFFCURVE",
"397 273 OFFCURVE",
"409 253 CURVE",
"409 72 LINE",
"389 63 OFFCURVE",
"368 58 OFFCURVE",
"346 58 CURVE SMOOTH",
"233 58 OFFCURVE",
"180 148 OFFCURVE",
"180 342 CURVE SMOOTH",
"180 526 OFFCURVE",
"229 621 OFFCURVE",
"323 621 CURVE SMOOTH",
"379 621 OFFCURVE",
"407 597 OFFCURVE",
"407 553 CURVE SMOOTH",
"407 537 OFFCURVE",
"401 520 OFFCURVE",
"390 502 CURVE",
"403 475 OFFCURVE",
"435 456 OFFCURVE",
"467 456 CURVE SMOOTH",
"512 456 OFFCURVE",
"547 494 OFFCURVE",
"547 542 CURVE SMOOTH",
"547 620 OFFCURVE",
"457 674 OFFCURVE",
"327 674 CURVE SMOOTH",
"128 674 OFFCURVE",
"25 555 OFFCURVE",
"25 325 CURVE SMOOTH",
"25 106 OFFCURVE",
"124 -10 OFFCURVE",
"313 -10 CURVE SMOOTH"
);
}
);
};
layerId = "0EBA3A65-8808-4583-9AA2-2A9BC4F414AB";
paths = (
{
closed = 1;
nodes = (
"400 -10 OFFCURVE",
"489 18 OFFCURVE",
"556 66 CURVE",
"556 340 LINE",
"336 332 LINE",
"331 292 LINE",
"364 290 OFFCURVE",
"393 275 OFFCURVE",
"409 253 CURVE",
"409 72 LINE",
"389 63 OFFCURVE",
"368 58 OFFCURVE",
"346 58 CURVE SMOOTH",
"233 58 OFFCURVE",
"180 148 OFFCURVE",
"180 342 CURVE SMOOTH",
"180 526 OFFCURVE",
"229 621 OFFCURVE",
"323 621 CURVE SMOOTH",
"379 621 OFFCURVE",
"407 597 OFFCURVE",
"407 553 CURVE SMOOTH",
"407 537 OFFCURVE",
"401 520 OFFCURVE",
"390 502 CURVE",
"403 475 OFFCURVE",
"435 456 OFFCURVE",
"467 456 CURVE SMOOTH",
"512 456 OFFCURVE",
"547 494 OFFCURVE",
"547 542 CURVE SMOOTH",
"547 620 OFFCURVE",
"457 674 OFFCURVE",
"327 674 CURVE SMOOTH",
"128 674 OFFCURVE",
"25 555 OFFCURVE",
"25 325 CURVE SMOOTH",
"25 106 OFFCURVE",
"124 -10 OFFCURVE",
"313 -10 CURVE SMOOTH"
);
}
);
width = 586;
}
);
leftKerningGroup = O;
rightKerningGroup = G;
unicode = 0047;
},
{
color = 4;
glyphname = H;
lastChange = "2019-12-10 01:38:09 +0000";
layers = (
{
anchors = (
{
name = top;
position = "{348, 667}";
}
);
background = {
anchors = (
{
name = top;
position = "{348, 705}";
}
);
paths = (
{
closed = 1;
nodes = (
"304 0 LINE",
"309 37 LINE",
"275 41 OFFCURVE",
"240 48 OFFCURVE",
"211 64 CURVE",
"211 317 LINE",
"486 317 LINE",
"486 64 LINE",
"457 47 OFFCURVE",
"427 41 OFFCURVE",
"394 37 CURVE",
"388 0 LINE",
"662 0 LINE",
"666 37 LINE",
"633 41 OFFCURVE",
"603 47 OFFCURVE",
"574 64 CURVE",
"574 604 LINE",
"603 620 OFFCURVE",
"629 627 OFFCURVE",
"661 631 CURVE",
"666 667 LINE",
"393 667 LINE",
"392 655 OFFCURVE",
"390 643 OFFCURVE",
"388 631 CURVE",
"422 627 OFFCURVE",
"457 619 OFFCURVE",
"486 604 CURVE",
"486 368 LINE",
"211 368 LINE",
"211 604 LINE",
"240 620 OFFCURVE",
"270 627 OFFCURVE",
"303 631 CURVE",
"309 667 LINE",
"35 667 LINE",
"34 655 OFFCURVE",
"32 643 OFFCURVE",
"30 631 CURVE",
"64 627 OFFCURVE",
"94 619 OFFCURVE",
"123 604 CURVE",
"123 64 LINE",
"94 47 OFFCURVE",
"68 41 OFFCURVE",
"36 37 CURVE",
"30 0 LINE"
);
}
);
};
layerId = UUID0;
paths = (
{
closed = 1;
nodes = (
"304 0 LINE",
"309 37 LINE",
"275 41 OFFCURVE",
"240 48 OFFCURVE",
"211 64 CURVE",
"211 317 LINE",
"486 317 LINE",
"486 64 LINE",
"457 47 OFFCURVE",
"427 41 OFFCURVE",
"394 37 CURVE",
"388 0 LINE",
"662 0 LINE",
"666 37 LINE",
"633 41 OFFCURVE",
"603 47 OFFCURVE",
"574 64 CURVE",
"574 604 LINE",
"603 620 OFFCURVE",
"629 627 OFFCURVE",
"661 631 CURVE",
"666 667 LINE",
"393 667 LINE",
"388 631 LINE",
"422 627 OFFCURVE",
"457 619 OFFCURVE",
"486 604 CURVE",
"486 368 LINE",
"211 368 LINE",
"211 604 LINE",
"240 620 OFFCURVE",
"270 627 OFFCURVE",
"303 631 CURVE",
"309 667 LINE",
"35 667 LINE",
"30 631 LINE",
"64 627 OFFCURVE",
"94 619 OFFCURVE",
"123 604 CURVE",
"123 64 LINE",
"94 47 OFFCURVE",
"68 41 OFFCURVE",
"36 37 CURVE",
"30 0 LINE"
);
}
);
width = 696;
},
{
anchors = (
{
name = top;
position = "{357, 667}";
}
);
background = {
anchors = (
{
name = top;
position = "{357, 705}";
}
);
paths = (
{
closed = 1;
nodes = (
"306 0 LINE",
"313 39 LINE",
"279 46 OFFCURVE",
"253 57 OFFCURVE",
"238 71 CURVE",
"238 310 LINE",
"467 310 LINE",
"467 71 LINE",
"449 53 OFFCURVE",
"436 46 OFFCURVE",
"410 41 CURVE",
"406 0 LINE",
"682 0 LINE",
"689 39 LINE",
"655 46 OFFCURVE",
"629 57 OFFCURVE",
"614 71 CURVE",
"614 596 LINE",
"630 610 OFFCURVE",
"650 620 OFFCURVE",
"675 628 CURVE",
"681 667 LINE",
"403 667 LINE",
"401 653 OFFCURVE",
"400 640 OFFCURVE",
"398 626 CURVE",
"430 620 OFFCURVE",
"447 613 OFFCURVE",
"467 596 CURVE",
"467 373 LINE",
"238 373 LINE",
"238 596 LINE",
"258 613 OFFCURVE",
"275 620 OFFCURVE",
"307 626 CURVE",
"313 667 LINE",
"34 667 LINE",
"33 654 OFFCURVE",
"31 641 OFFCURVE",
"30 628 CURVE",
"56 619 OFFCURVE",
"76 609 OFFCURVE",
"91 596 CURVE",
"91 71 LINE",
"73 53 OFFCURVE",
"60 46 OFFCURVE",
"34 41 CURVE",
"30 0 LINE"
);
}
);
};
layerId = "0EBA3A65-8808-4583-9AA2-2A9BC4F414AB";
paths = (
{
closed = 1;
nodes = (
"306 0 LINE",
"313 39 LINE",
"279 46 OFFCURVE",
"253 57 OFFCURVE",
"238 71 CURVE",
"238 310 LINE",
"467 310 LINE",
"467 71 LINE",
"449 53 OFFCURVE",
"436 46 OFFCURVE",
"410 41 CURVE",
"406 0 LINE",
"682 0 LINE",
"689 39 LINE",
"655 46 OFFCURVE",
"629 57 OFFCURVE",
"614 71 CURVE",
"614 596 LINE",
"630 610 OFFCURVE",
"650 620 OFFCURVE",
"675 628 CURVE",
"681 667 LINE",
"403 667 LINE",
"398 626 LINE",
"430 620 OFFCURVE",
"447 613 OFFCURVE",
"467 596 CURVE",
"467 373 LINE",
"238 373 LINE",
"238 596 LINE",
"258 613 OFFCURVE",
"275 620 OFFCURVE",
"307 626 CURVE",
"313 667 LINE",
"34 667 LINE",
"30 628 LINE",
"56 619 OFFCURVE",
"76 609 OFFCURVE",
"91 596 CURVE",
"91 71 LINE",
"73 53 OFFCURVE",
"60 46 OFFCURVE",
"34 41 CURVE",
"30 0 LINE"
);
}
);
width = 719;
}
);
leftKerningGroup = H;
rightKerningGroup = H;
unicode = 0048;
},
{
color = 4;
glyphname = I;
lastChange = "2019-11-29 17:30:51 +0000";
layers = (
{
anchors = (
{
name = ogonek;
position = "{193, 0}";
},
{
name = top;
position = "{172, 667}";
}
);
background = {
anchors = (
{
name = ogonek;
position = "{223, 0}";
},
{
name = top;
position = "{171, 705}";
}
);
paths = (
{
closed = 1;
nodes = (
"308 0 LINE",
"313 37 LINE",
"280 41 OFFCURVE",
"245 47 OFFCURVE",
"216 64 CURVE",
"216 604 LINE",
"245 620 OFFCURVE",
"275 627 OFFCURVE",
"307 631 CURVE",
"312 667 LINE",
"35 667 LINE",
"34 655 OFFCURVE",
"32 643 OFFCURVE",
"30 631 CURVE",
"64 627 OFFCURVE",
"99 619 OFFCURVE",
"128 604 CURVE",
"128 64 LINE",
"99 47 OFFCURVE",
"68 41 OFFCURVE",
"36 37 CURVE",
"30 0 LINE"
);
}
);
};
layerId = UUID0;
paths = (
{
closed = 1;
nodes = (
"308 0 LINE",
"313 37 LINE",
"280 41 OFFCURVE",
"245 47 OFFCURVE",
"216 64 CURVE",
"216 604 LINE",
"245 620 OFFCURVE",
"275 627 OFFCURVE",
"307 631 CURVE",
"312 667 LINE",
"35 667 LINE",
"30 631 LINE",
"64 627 OFFCURVE",
"99 619 OFFCURVE",
"128 604 CURVE",
"128 64 LINE",
"99 47 OFFCURVE",
"68 41 OFFCURVE",
"36 37 CURVE",
"30 0 LINE"
);
}
);
width = 343;
},
{
anchors = (
{
name = ogonek;
position = "{174, 0}";
},
{
name = top;
position = "{180, 667}";
}
);
background = {
anchors = (
{
name = ogonek;
position = "{238, 0}";
},
{
name = top;
position = "{186, 705}";
}
);
paths = (
{
closed = 1;
nodes = (
"321 0 LINE",
"328 41 LINE",
"294 48 OFFCURVE",
"268 57 OFFCURVE",
"253 71 CURVE",
"253 596 LINE",
"273 613 OFFCURVE",
"290 620 OFFCURVE",
"322 626 CURVE",
"328 667 LINE",
"35 667 LINE",
"34 653 OFFCURVE",
"32 640 OFFCURVE",
"30 626 CURVE",
"58 622 OFFCURVE",
"92 610 OFFCURVE",
"106 596 CURVE",
"106 71 LINE",
"87 55 OFFCURVE",
"66 46 OFFCURVE",
"34 41 CURVE",
"30 0 LINE"
);
}
);
};
layerId = "0EBA3A65-8808-4583-9AA2-2A9BC4F414AB";
paths = (
{
closed = 1;
nodes = (
"321 0 LINE",
"328 41 LINE",
"294 48 OFFCURVE",
"268 57 OFFCURVE",
"253 71 CURVE",
"253 596 LINE",
"273 613 OFFCURVE",
"290 620 OFFCURVE",
"322 626 CURVE",
"328 667 LINE",
"35 667 LINE",
"30 626 LINE",
"58 622 OFFCURVE",
"92 610 OFFCURVE",
"106 596 CURVE",
"106 71 LINE",
"87 55 OFFCURVE",
"66 46 OFFCURVE",
"34 41 CURVE",
"30 0 LINE"
);
}
);
width = 358;
}
);
leftKerningGroup = I;
rightKerningGroup = I;
unicode = 0049;
},
{
color = 4;
glyphname = J;
lastChange = "2019-11-29 14:45:31 +0000";
layers = (
{
anchors = (
{
name = top;
position = "{158, 667}";
}
);
background = {
anchors = (
{
name = top;
position = "{158, 705}";
}
);
paths = (
{
closed = 1;
nodes = (
"198 604 LINE",
"226 620 OFFCURVE",
"256 627 OFFCURVE",
"289 631 CURVE",
"291 643 OFFCURVE",
"293 655 OFFCURVE",
"294 667 CURVE",
"17 667 LINE",
"12 631 LINE",
"46 627 OFFCURVE",
"81 619 OFFCURVE",
"110 604 CURVE",
"110 1 LINE SMOOTH",
"110 -98 OFFCURVE",
"51 -141 OFFCURVE",
"-8 -168 CURVE",
"3 -198 LINE",
"120 -167 OFFCURVE",
"198 -107 OFFCURVE",
"198 16 CURVE",
"198 16 LINE"
);
}
);
};
layerId = UUID0;
paths = (
{
closed = 1;
nodes = (
"120 -167 OFFCURVE",
"198 -107 OFFCURVE",
"198 16 CURVE SMOOTH",
"198 604 LINE",
"226 620 OFFCURVE",
"256 627 OFFCURVE",
"289 631 CURVE",
"294 667 LINE",
"17 667 LINE",
"12 631 LINE",
"46 627 OFFCURVE",
"81 619 OFFCURVE",
"110 604 CURVE",
"110 1 LINE SMOOTH",
"110 -98 OFFCURVE",
"51 -141 OFFCURVE",
"-8 -168 CURVE",
"3 -198 LINE"
);
}
);
width = 304;
},
{
anchors = (
{
name = top;
position = "{170, 667}";
}
);
background = {
anchors = (
{
name = top;
position = "{170, 705}";
}
);
paths = (
{
closed = 1;
nodes = (
"48 622 OFFCURVE",
"82 610 OFFCURVE",
"96 596 CURVE",
"96 1 LINE SMOOTH",
"96 -95 OFFCURVE",
"44 -137 OFFCURVE",
"-6 -163 CURVE",
"15 -218 LINE",
"153 -183 OFFCURVE",
"243 -119 OFFCURVE",
"243 16 CURVE SMOOTH",
"243 596 LINE",
"263 613 OFFCURVE",
"280 620 OFFCURVE",
"312 626 CURVE",
"318 667 LINE",
"25 667 LINE",
"20 626 LINE"
);
}
);
};
layerId = "0EBA3A65-8808-4583-9AA2-2A9BC4F414AB";
paths = (
{
closed = 1;
nodes = (
"153 -183 OFFCURVE",
"243 -119 OFFCURVE",
"243 16 CURVE SMOOTH",
"243 596 LINE",
"263 613 OFFCURVE",
"280 620 OFFCURVE",
"312 626 CURVE",
"318 667 LINE",
"25 667 LINE",
"20 626 LINE",
"48 622 OFFCURVE",
"82 610 OFFCURVE",
"96 596 CURVE",
"96 1 LINE SMOOTH",
"96 -95 OFFCURVE",
"44 -137 OFFCURVE",
"-6 -163 CURVE",
"15 -218 LINE"
);
}
);
width = 340;
}
);
leftKerningGroup = J;
rightKerningGroup = J;
unicode = 004A;
},
{
color = 4;
glyphname = K;
lastChange = "2019-12-01 02:11:38 +0000";
layers = (
{
anchors = (
{
name = bottom;
position = "{356, 0}";
}
);
background = {
anchors = (
{
name = bottom;
position = "{325, 0}";
}
);
paths = (
{
closed = 1;
nodes = (
"309 0 LINE",
"310 13 OFFCURVE",
"312 25 OFFCURVE",
"314 37 CURVE",
"280 41 OFFCURVE",
"245 48 OFFCURVE",
"216 64 CURVE",
"216 604 LINE",
"245 620 OFFCURVE",
"274 627 OFFCURVE",
"308 631 CURVE",
"314 667 LINE",
"35 667 LINE",
"34 655 OFFCURVE",
"32 643 OFFCURVE",
"30 631 CURVE",
"63 627 OFFCURVE",
"99 619 OFFCURVE",
"127 604 CURVE",
"127 64 LINE",
"99 47 OFFCURVE",
"69 41 OFFCURVE",
"36 37 CURVE",
"30 0 LINE"
);
},
{
closed = 1;
nodes = (
"439 48 LINE SMOOTH",
"446 38 OFFCURVE",
"454 17 OFFCURVE",
"455 0 CURVE",
"615 0 LINE",
"621 38 LINE",
"579 42 OFFCURVE",
"553 52 OFFCURVE",
"536 64 CURVE",
"318 366 LINE",
"504 599 LINE",
"533 626 OFFCURVE",
"567 629 OFFCURVE",
"595 631 CURVE",
"599 667 LINE",
"364 667 LINE",
"358 631 LINE",
"393 630 OFFCURVE",
"420 620 OFFCURVE",
"420 602 CURVE SMOOTH",
"420 597 OFFCURVE",
"418 590 OFFCURVE",
"414 582 CURVE",
"226 348 LINE"
);
}
);
};
layerId = UUID0;
paths = (
{
closed = 1;
nodes = (
"615 0 LINE",
"621 38 LINE",
"579 42 OFFCURVE",
"553 52 OFFCURVE",
"536 64 CURVE",
"318 366 LINE",
"504 599 LINE",
"533 626 OFFCURVE",
"567 629 OFFCURVE",
"595 631 CURVE",
"599 667 LINE",
"364 667 LINE",
"358 631 LINE",
"393 630 OFFCURVE",
"420 620 OFFCURVE",
"420 602 CURVE SMOOTH",
"420 597 OFFCURVE",
"418 590 OFFCURVE",
"414 582 CURVE",
"226 348 LINE",
"439 48 LINE SMOOTH",
"446 38 OFFCURVE",
"454 17 OFFCURVE",
"455 0 CURVE"
);
},
{
closed = 1;
nodes = (
"309 0 LINE",
"314 37 LINE",
"280 41 OFFCURVE",
"245 48 OFFCURVE",
"216 64 CURVE",
"216 604 LINE",
"245 620 OFFCURVE",
"274 627 OFFCURVE",
"308 631 CURVE",
"314 667 LINE",
"35 667 LINE",
"30 631 LINE",
"63 627 OFFCURVE",
"99 619 OFFCURVE",
"127 604 CURVE",
"127 64 LINE",
"99 47 OFFCURVE",
"69 41 OFFCURVE",
"36 37 CURVE",
"30 0 LINE"
);
}
);
width = 630;
},
{
anchors = (
{
name = bottom;
position = "{330, 0}";
}
);
background = {
anchors = (
{
name = bottom;
position = "{330, 0}";
}
);
paths = (
{
closed = 1;
nodes = (
"279 46 OFFCURVE",
"253 57 OFFCURVE",
"238 71 CURVE",
"238 596 LINE",
"258 613 OFFCURVE",
"275 620 OFFCURVE",
"307 626 CURVE",
"313 667 LINE",
"34 667 LINE",
"30 628 LINE",
"56 619 OFFCURVE",
"76 609 OFFCURVE",
"91 596 CURVE",
"91 71 LINE",
"73 53 OFFCURVE",
"60 46 OFFCURVE",
"34 41 CURVE",
"30 0 LINE",
"306 0 LINE",
"313 39 LINE"
);
},
{
closed = 1;
nodes = (
"427 58 LINE SMOOTH",
"440 38 OFFCURVE",
"444 23 OFFCURVE",
"445 0 CURVE",
"673 0 LINE",
"680 41 LINE",
"644 47 OFFCURVE",
"615 59 OFFCURVE",
"594 76 CURVE",
"397 398 LINE",
"569 589 LINE SMOOTH",
"597 621 OFFCURVE",
"637 627 OFFCURVE",
"657 628 CURVE",
"663 667 LINE",
"413 667 LINE",
"419 628 LINE",
"446 628 OFFCURVE",
"471 619 OFFCURVE",
"471 601 CURVE SMOOTH",
"471 595 OFFCURVE",
"468 588 OFFCURVE",
"462 581 CURVE SMOOTH",
"252 348 LINE"
);
}
);
};
layerId = "0EBA3A65-8808-4583-9AA2-2A9BC4F414AB";
paths = (
{
closed = 1;
nodes = (
"673 0 LINE",
"680 41 LINE",
"630 51 OFFCURVE",
"601 65 OFFCURVE",
"587 87 CURVE SMOOTH",
"397 398 LINE",
"569 589 LINE SMOOTH",
"589 612 OFFCURVE",
"616 625 OFFCURVE",
"657 628 CURVE",
"663 667 LINE",
"413 667 LINE",
"419 628 LINE",
"446 628 OFFCURVE",
"471 619 OFFCURVE",
"471 601 CURVE SMOOTH",
"471 595 OFFCURVE",
"468 588 OFFCURVE",
"462 581 CURVE SMOOTH",
"252 348 LINE",
"427 58 LINE SMOOTH",
"440 38 OFFCURVE",
"444 23 OFFCURVE",
"445 0 CURVE"
);
},
{
closed = 1;
nodes = (
"306 0 LINE",
"313 39 LINE",
"279 46 OFFCURVE",
"253 57 OFFCURVE",
"238 71 CURVE",
"238 596 LINE",
"258 613 OFFCURVE",
"275 620 OFFCURVE",
"307 626 CURVE",
"313 667 LINE",
"34 667 LINE",
"30 628 LINE",
"56 619 OFFCURVE",
"76 609 OFFCURVE",
"91 596 CURVE",
"91 71 LINE",
"73 53 OFFCURVE",
"60 46 OFFCURVE",
"34 41 CURVE",
"30 0 LINE"
);
}
);
width = 680;
}
);
leftKerningGroup = H;
rightKerningGroup = K;
unicode = 004B;
},
{
color = 4;
glyphname = L;
lastChange = "2019-11-29 16:30:04 +0000";
layers = (
{
anchors = (
{
name = bottom;
position = "{277, 0}";
},
{
name = center_right;
position = "{403, 362}";
},
{
name = top;
position = "{172, 667}";
},
{
name = top_right;
position = "{370, 637}";
}
);
background = {
anchors = (
{
name = bottom;
position = "{267, 0}";
},
{
name = top;
position = "{172, 705}";
}
);
paths = (
{
closed = 1;
nodes = (
"485 171 LINE",
"477 173 OFFCURVE",
"470 174 OFFCURVE",
"463 174 CURVE SMOOTH",
"456 174 OFFCURVE",
"450 173 OFFCURVE",
"445 171 CURVE",
"439 138 OFFCURVE",
"427 94 OFFCURVE",
"402 58 CURVE",
"215 58 LINE",
"215 604 LINE",
"244 620 OFFCURVE",
"274 627 OFFCURVE",
"307 631 CURVE",
"312 667 LINE",
"35 667 LINE",
"33 655 OFFCURVE",
"31 643 OFFCURVE",
"30 631 CURVE",
"62 627 OFFCURVE",
"98 619 OFFCURVE",
"126 604 CURVE",
"126 64 LINE",
"99 47 OFFCURVE",
"68 41 OFFCURVE",
"36 37 CURVE",
"30 0 LINE",
"476 0 LINE"
);
}
);
};
layerId = UUID0;
paths = (
{
closed = 1;
nodes = (
"476 0 LINE",
"485 171 LINE",
"477 173 OFFCURVE",
"470 174 OFFCURVE",
"463 174 CURVE SMOOTH",
"456 174 OFFCURVE",
"450 173 OFFCURVE",
"445 171 CURVE",
"439 135 OFFCURVE",
"428 94 OFFCURVE",
"402 58 CURVE",
"215 58 LINE",
"215 604 LINE",
"244 620 OFFCURVE",
"274 627 OFFCURVE",
"307 631 CURVE",
"312 667 LINE",
"35 667 LINE",
"30 631 LINE",
"62 627 OFFCURVE",
"98 619 OFFCURVE",
"126 604 CURVE",
"126 64 LINE",
"99 47 OFFCURVE",
"68 41 OFFCURVE",
"36 37 CURVE",
"30 0 LINE"
);
}
);
width = 501;
},
{
anchors = (
{
name = bottom;
position = "{278, 0}";
},
{
name = center_right;
position = "{411, 369}";
},
{
name = top;
position = "{168, 667}";
},
{
name = top_right;
position = "{397, 639}";
}
);
background = {
anchors = (
{
name = bottom;
position = "{278, 0}";
},
{
name = top;
position = "{168, 705}";
}
);
paths = (
{
closed = 1;
nodes = (
"239 596 LINE",
"259 613 OFFCURVE",
"276 620 OFFCURVE",
"308 626 CURVE",
"314 667 LINE",
"35 667 LINE",
"30 626 LINE",
"56 617 OFFCURVE",
"77 609 OFFCURVE",
"92 596 CURVE",
"92 66 LINE",
"82 55 OFFCURVE",
"56 44 OFFCURVE",
"35 41 CURVE",
"31 0 LINE",
"525 0 LINE",
"535 189 LINE",
"524 191 OFFCURVE",
"513 192 OFFCURVE",
"502 192 CURVE SMOOTH",
"488 192 OFFCURVE",
"474 191 OFFCURVE",
"461 189 CURVE",
"451 135 OFFCURVE",
"435 93 OFFCURVE",
"414 62 CURVE",
"239 62 LINE"
);
}
);
};
layerId = "0EBA3A65-8808-4583-9AA2-2A9BC4F414AB";
paths = (
{
closed = 1;
nodes = (
"525 0 LINE",
"535 189 LINE",
"524 191 OFFCURVE",
"513 192 OFFCURVE",
"502 192 CURVE SMOOTH",
"488 192 OFFCURVE",
"474 191 OFFCURVE",
"461 189 CURVE",
"451 135 OFFCURVE",
"435 93 OFFCURVE",
"414 62 CURVE",
"239 62 LINE",
"239 596 LINE",
"259 613 OFFCURVE",
"276 620 OFFCURVE",
"308 626 CURVE",
"314 667 LINE",
"35 667 LINE",
"30 626 LINE",
"56 617 OFFCURVE",
"77 609 OFFCURVE",
"92 596 CURVE",
"92 66 LINE",
"82 55 OFFCURVE",
"56 44 OFFCURVE",
"35 41 CURVE",
"31 0 LINE"
);
}
);
width = 541;
}
);
leftKerningGroup = H;
rightKerningGroup = L;
unicode = 004C;
},
{
color = 4;
glyphname = M;
lastChange = "2019-11-29 14:40:13 +0000";
layers = (
{
background = {
paths = (
{
closed = 1;
nodes = (
"34 667 LINE",
"30 631 LINE",
"62 627 OFFCURVE",
"98 619 OFFCURVE",
"126 604 CURVE",
"126 64 LINE",
"98 47 OFFCURVE",
"68 41 OFFCURVE",
"35 37 CURVE",
"30 0 LINE",
"283 0 LINE",
"287 37 LINE",
"254 41 OFFCURVE",
"219 47 OFFCURVE",
"190 64 CURVE",
"190 538 LINE",
"194 538 LINE",
"407 0 LINE",
"466 0 LINE",
"669 529 LINE",
"673 529 LINE",
"673 64 LINE",
"644 47 OFFCURVE",
"615 41 OFFCURVE",
"581 37 CURVE",
"580 25 OFFCURVE",
"578 13 OFFCURVE",
"576 0 CURVE",
"854 0 LINE",
"858 37 LINE",
"825 41 OFFCURVE",
"790 47 OFFCURVE",
"761 64 CURVE",
"761 604 LINE",
"790 620 OFFCURVE",
"819 627 OFFCURVE",
"853 631 CURVE",
"854 643 OFFCURVE",
"856 655 OFFCURVE",
"858 667 CURVE",
"667 667 LINE",
"451 123 LINE",
"227 667 LINE"
);
}
);
};
layerId = UUID0;
paths = (
{
closed = 1;
nodes = (
"283 0 LINE",
"287 37 LINE",
"247 41 OFFCURVE",
"212 51 OFFCURVE",
"190 64 CURVE",
"190 538 LINE",
"194 538 LINE",
"407 0 LINE",
"466 0 LINE",
"669 529 LINE",
"673 529 LINE",
"673 64 LINE",
"644 47 OFFCURVE",
"615 41 OFFCURVE",
"581 37 CURVE",
"576 0 LINE",
"854 0 LINE",
"858 37 LINE",
"825 41 OFFCURVE",
"790 47 OFFCURVE",
"761 64 CURVE",
"761 604 LINE",
"790 620 OFFCURVE",
"819 627 OFFCURVE",
"853 631 CURVE",
"858 667 LINE",
"667 667 LINE",
"451 123 LINE",
"227 667 LINE",
"34 667 LINE",
"30 631 LINE",
"62 627 OFFCURVE",
"98 619 OFFCURVE",
"126 604 CURVE",
"126 64 LINE",
"102 49 OFFCURVE",
"73 41 OFFCURVE",
"35 37 CURVE",
"30 0 LINE"
);
}
);
width = 888;
},
{
background = {
paths = (
{
closed = 1;
nodes = (
"781 46 OFFCURVE",
"755 57 OFFCURVE",
"740 71 CURVE",
"740 596 LINE",
"756 610 OFFCURVE",
"776 620 OFFCURVE",
"801 628 CURVE",
"807 667 LINE",
"563 667 LINE",
"423 217 LINE",
"260 667 LINE",
"34 667 LINE",
"30 628 LINE",
"56 619 OFFCURVE",
"76 609 OFFCURVE",
"91 596 CURVE",
"91 71 LINE",
"73 53 OFFCURVE",
"60 46 OFFCURVE",
"34 41 CURVE",
"30 0 LINE",
"246 0 LINE",
"253 39 LINE",
"219 46 OFFCURVE",
"193 57 OFFCURVE",
"178 71 CURVE",
"178 481 LINE",
"357 0 LINE",
"434 0 LINE",
"597 508 LINE",
"597 71 LINE",
"580 53 OFFCURVE",
"567 46 OFFCURVE",
"541 41 CURVE",
"537 0 LINE",
"808 0 LINE",
"815 39 LINE"
);
}
);
};
layerId = "0EBA3A65-8808-4583-9AA2-2A9BC4F414AB";
paths = (
{
closed = 1;
nodes = (
"246 0 LINE",
"253 39 LINE",
"219 46 OFFCURVE",
"193 57 OFFCURVE",
"178 71 CURVE",
"178 481 LINE",
"179 481 LINE",
"357 0 LINE",
"434 0 LINE",
"596 508 LINE",
"597 508 LINE",
"597 71 LINE",
"580 53 OFFCURVE",
"567 46 OFFCURVE",
"541 41 CURVE",
"537 0 LINE",
"808 0 LINE",
"815 39 LINE",
"781 46 OFFCURVE",
"755 57 OFFCURVE",
"740 71 CURVE",
"740 596 LINE",
"756 610 OFFCURVE",
"776 620 OFFCURVE",
"801 628 CURVE",
"807 667 LINE",
"563 667 LINE",
"423 217 LINE",
"260 667 LINE",
"34 667 LINE",
"30 628 LINE",
"56 619 OFFCURVE",
"76 609 OFFCURVE",
"91 596 CURVE",
"91 71 LINE",
"73 53 OFFCURVE",
"60 46 OFFCURVE",
"34 41 CURVE",
"30 0 LINE"
);
}
);
width = 845;
}
);
leftKerningGroup = H;
rightKerningGroup = H;
unicode = 004D;
},
{
color = 4;
glyphname = N;
lastChange = "2019-12-01 02:12:30 +0000";
layers = (
{
anchors = (
{
name = bottom;
position = "{370, 0}";
},
{
name = top;
position = "{347, 667}";
}
);
background = {
anchors = (
{
name = bottom;
position = "{350, 0}";
},
{
name = top;
position = "{350, 705}";
}
);
paths = (
{
closed = 1;
nodes = (
"35 667 LINE",
"34 655 OFFCURVE",
"32 643 OFFCURVE",
"30 631 CURVE",
"64 627 OFFCURVE",
"99 619 OFFCURVE",
"128 604 CURVE",
"128 64 LINE",
"99 47 OFFCURVE",
"69 41 OFFCURVE",
"36 37 CURVE",
"30 0 LINE",
"284 0 LINE",
"288 37 LINE",
"256 41 OFFCURVE",
"219 48 OFFCURVE",
"191 64 CURVE",
"191 515 LINE",
"531 0 LINE",
"574 0 LINE",
"574 604 LINE",
"603 620 OFFCURVE",
"632 627 OFFCURVE",
"666 631 CURVE",
"667 643 OFFCURVE",
"669 655 OFFCURVE",
"671 667 CURVE",
"418 667 LINE",
"416 655 OFFCURVE",
"414 643 OFFCURVE",
"413 631 CURVE",
"445 627 OFFCURVE",
"482 619 OFFCURVE",
"509 604 CURVE",
"509 191 LINE",
"194 667 LINE"
);
}
);
};
layerId = UUID0;
paths = (
{
closed = 1;
nodes = (
"284 0 LINE",
"288 37 LINE",
"256 41 OFFCURVE",
"219 48 OFFCURVE",
"191 64 CURVE",
"191 515 LINE",
"531 0 LINE",
"574 0 LINE",
"574 604 LINE",
"603 620 OFFCURVE",
"632 627 OFFCURVE",
"666 631 CURVE",
"671 667 LINE",
"418 667 LINE",
"413 631 LINE",
"445 627 OFFCURVE",
"482 619 OFFCURVE",
"509 604 CURVE",
"509 191 LINE",
"194 667 LINE",
"35 667 LINE",
"30 631 LINE",
"64 627 OFFCURVE",
"99 619 OFFCURVE",
"128 604 CURVE",
"128 64 LINE",
"99 47 OFFCURVE",
"69 41 OFFCURVE",
"36 37 CURVE",
"30 0 LINE"
);
}
);
width = 693;
},
{
anchors = (
{
name = bottom;
position = "{353, 0}";
},
{
name = top;
position = "{344, 667}";
}
);
background = {
anchors = (
{
name = bottom;
position = "{354, 0}";
},
{
name = top;
position = "{344, 705}";
}
);
paths = (
{
closed = 1;
nodes = (
"443 667 LINE",
"438 626 LINE",
"470 620 OFFCURVE",
"487 613 OFFCURVE",
"507 596 CURVE",
"507 183 LINE",
"231 667 LINE",
"34 667 LINE",
"30 628 LINE",
"56 619 OFFCURVE",
"76 609 OFFCURVE",
"91 596 CURVE",
"91 71 LINE",
"73 53 OFFCURVE",
"60 46 OFFCURVE",
"34 41 CURVE",
"30 0 LINE",
"246 0 LINE",
"253 39 LINE",
"219 46 OFFCURVE",
"193 57 OFFCURVE",
"178 71 CURVE",
"178 460 LINE",
"442 0 LINE",
"594 0 LINE",
"594 596 LINE",
"610 610 OFFCURVE",
"630 620 OFFCURVE",
"655 628 CURVE",
"661 667 LINE"
);
}
);
};
layerId = "0EBA3A65-8808-4583-9AA2-2A9BC4F414AB";
paths = (
{
closed = 1;
nodes = (
"246 0 LINE",
"253 39 LINE",
"219 46 OFFCURVE",
"193 57 OFFCURVE",
"178 71 CURVE",
"178 460 LINE",
"442 0 LINE",
"594 0 LINE",
"594 596 LINE",
"610 610 OFFCURVE",
"630 620 OFFCURVE",
"655 628 CURVE",
"661 667 LINE",
"443 667 LINE",
"438 626 LINE",
"470 620 OFFCURVE",
"487 613 OFFCURVE",
"507 596 CURVE",
"507 183 LINE",
"231 667 LINE",
"34 667 LINE",
"30 628 LINE",
"56 619 OFFCURVE",
"76 609 OFFCURVE",
"91 596 CURVE",
"91 71 LINE",
"73 53 OFFCURVE",
"60 46 OFFCURVE",
"34 41 CURVE",
"30 0 LINE"
);
}
);
width = 686;
}
);
leftKerningGroup = H;
rightKerningGroup = N;
unicode = 004E;
},
{
color = 4;
glyphname = O;
lastChange = "2019-11-29 14:47:06 +0000";
layers = (
{
anchors = (
{
name = top;
position = "{299, 667}";
}
);
background = {
anchors = (
{
name = top;
position = "{299, 705}";
}
);
paths = (
{
closed = 1;
nodes = (
"504 -7 OFFCURVE",
"573 125 OFFCURVE",
"573 333 CURVE SMOOTH",
"573 542 OFFCURVE",
"504 676 OFFCURVE",
"300 676 CURVE SMOOTH",
"95 676 OFFCURVE",
"26 543 OFFCURVE",
"26 334 CURVE SMOOTH",
"26 126 OFFCURVE",
"95 -7 OFFCURVE",
"300 -7 CURVE SMOOTH"
);
},
{
closed = 1;
nodes = (
"150 42 OFFCURVE",
"127 181 OFFCURVE",
"127 334 CURVE SMOOTH",
"127 488 OFFCURVE",
"150 626 OFFCURVE",
"300 626 CURVE SMOOTH",
"450 626 OFFCURVE",
"472 487 OFFCURVE",
"472 333 CURVE SMOOTH",
"472 180 OFFCURVE",
"450 42 OFFCURVE",
"300 42 CURVE SMOOTH"
);
}
);
};
layerId = UUID0;
paths = (
{
closed = 1;
nodes = (
"504 -7 OFFCURVE",
"573 125 OFFCURVE",
"573 333 CURVE SMOOTH",
"573 542 OFFCURVE",
"504 676 OFFCURVE",
"300 676 CURVE SMOOTH",
"95 676 OFFCURVE",
"26 543 OFFCURVE",
"26 334 CURVE SMOOTH",
"26 126 OFFCURVE",
"95 -7 OFFCURVE",
"300 -7 CURVE SMOOTH"
);
},
{
closed = 1;
nodes = (
"150 42 OFFCURVE",
"127 181 OFFCURVE",
"127 334 CURVE SMOOTH",
"127 488 OFFCURVE",
"150 626 OFFCURVE",
"300 626 CURVE SMOOTH",
"450 626 OFFCURVE",
"472 487 OFFCURVE",
"472 333 CURVE SMOOTH",
"472 180 OFFCURVE",
"450 42 OFFCURVE",
"300 42 CURVE SMOOTH"
);
}
);
width = 599;
},
{
anchors = (
{
name = top;
position = "{324, 667}";
}
);
background = {
anchors = (
{
name = top;
position = "{324, 705}";
}
);
paths = (
{
closed = 1;
nodes = (
"523 -10 OFFCURVE",
"622 111 OFFCURVE",
"622 335 CURVE SMOOTH",
"622 558 OFFCURVE",
"523 678 OFFCURVE",
"324 678 CURVE SMOOTH",
"126 678 OFFCURVE",
"25 558 OFFCURVE",
"25 335 CURVE SMOOTH",
"25 111 OFFCURVE",
"126 -10 OFFCURVE",
"324 -10 CURVE SMOOTH"
);
},
{
closed = 1;
nodes = (
"229 48 OFFCURVE",
"190 131 OFFCURVE",
"190 335 CURVE SMOOTH",
"190 537 OFFCURVE",
"229 620 OFFCURVE",
"324 620 CURVE SMOOTH",
"418 620 OFFCURVE",
"456 537 OFFCURVE",
"456 335 CURVE SMOOTH",
"456 131 OFFCURVE",
"418 48 OFFCURVE",
"324 48 CURVE SMOOTH"
);
}
);
};
layerId = "0EBA3A65-8808-4583-9AA2-2A9BC4F414AB";
paths = (
{
closed = 1;
nodes = (
"523 -10 OFFCURVE",
"622 111 OFFCURVE",
"622 335 CURVE SMOOTH",
"622 558 OFFCURVE",
"523 678 OFFCURVE",
"324 678 CURVE SMOOTH",
"126 678 OFFCURVE",
"25 558 OFFCURVE",
"25 335 CURVE SMOOTH",
"25 111 OFFCURVE",
"126 -10 OFFCURVE",
"324 -10 CURVE SMOOTH"
);
},
{
closed = 1;
nodes = (
"229 48 OFFCURVE",
"190 131 OFFCURVE",
"190 335 CURVE SMOOTH",
"190 537 OFFCURVE",
"229 620 OFFCURVE",
"324 620 CURVE SMOOTH",
"418 620 OFFCURVE",
"456 537 OFFCURVE",
"456 335 CURVE SMOOTH",
"456 131 OFFCURVE",
"418 48 OFFCURVE",
"324 48 CURVE SMOOTH"
);
}
);
width = 647;
}
);
leftKerningGroup = O;
rightKerningGroup = O;
unicode = 004F;
},
{
color = 4;
glyphname = P;
lastChange = "2019-11-29 15:21:27 +0000";
layers = (
{
background = {
paths = (
{
closed = 1;
nodes = (
"309 0 LINE",
"313 37 LINE",
"280 41 OFFCURVE",
"245 47 OFFCURVE",
"216 64 CURVE",
"216 293 LINE",
"248 293 LINE SMOOTH",
"409 293 OFFCURVE",
"514 335 OFFCURVE",
"514 482 CURVE SMOOTH",
"514 598 OFFCURVE",
"447 667 OFFCURVE",
"292 667 CURVE SMOOTH",
"35 667 LINE",
"34 655 OFFCURVE",
"32 643 OFFCURVE",
"30 631 CURVE",
"64 627 OFFCURVE",
"99 619 OFFCURVE",
"128 604 CURVE",
"128 64 LINE",
"99 47 OFFCURVE",
"69 41 OFFCURVE",
"37 37 CURVE",
"31 0 LINE"
);
},
{
closed = 1;
nodes = (
"424 381 OFFCURVE",
"356 338 OFFCURVE",
"248 338 CURVE SMOOTH",
"216 338 LINE",
"216 619 LINE",
"239 623 OFFCURVE",
"262 625 OFFCURVE",
"282 625 CURVE SMOOTH",
"366 625 OFFCURVE",
"424 589 OFFCURVE",
"424 484 CURVE SMOOTH",
"424 484 LINE"
);
}
);
};
layerId = UUID0;
paths = (
{
closed = 1;
nodes = (
"309 0 LINE",
"313 37 LINE",
"280 41 OFFCURVE",
"245 47 OFFCURVE",
"216 64 CURVE",
"216 293 LINE",
"227 293 OFFCURVE",
"237 293 OFFCURVE",
"248 293 CURVE SMOOTH",
"409 293 OFFCURVE",
"514 335 OFFCURVE",
"514 482 CURVE SMOOTH",
"514 598 OFFCURVE",
"447 667 OFFCURVE",
"292 667 CURVE SMOOTH",
"35 667 LINE",
"30 631 LINE",
"64 627 OFFCURVE",
"99 619 OFFCURVE",
"128 604 CURVE",
"128 64 LINE",
"99 47 OFFCURVE",
"69 41 OFFCURVE",
"37 37 CURVE",
"31 0 LINE"
);
},
{
closed = 1;
nodes = (
"216 619 LINE",
"239 623 OFFCURVE",
"262 625 OFFCURVE",
"282 625 CURVE SMOOTH",
"366 625 OFFCURVE",
"424 589 OFFCURVE",
"424 484 CURVE SMOOTH",
"424 381 OFFCURVE",
"356 338 OFFCURVE",
"248 338 CURVE SMOOTH",
"216 338 LINE"
);
}
);
width = 533;
},
{
background = {
paths = (
{
closed = 1;
nodes = (
"278 46 OFFCURVE",
"252 57 OFFCURVE",
"238 71 CURVE",
"238 283 LINE",
"252 282 OFFCURVE",
"282 280 OFFCURVE",
"302 280 CURVE SMOOTH",
"479 280 OFFCURVE",
"577 351 OFFCURVE",
"577 481 CURVE SMOOTH",
"577 605 OFFCURVE",
"490 667 OFFCURVE",
"316 667 CURVE SMOOTH",
"34 667 LINE",
"30 628 LINE",
"59 618 OFFCURVE",
"78 608 OFFCURVE",
"91 596 CURVE",
"91 71 LINE",
"73 53 OFFCURVE",
"59 46 OFFCURVE",
"34 41 CURVE",
"30 0 LINE",
"306 0 LINE",
"313 39 LINE"
);
},
{
closed = 1;
nodes = (
"422 389 OFFCURVE",
"381 343 OFFCURVE",
"303 343 CURVE SMOOTH",
"238 343 LINE",
"238 602 LINE",
"257 605 OFFCURVE",
"275 606 OFFCURVE",
"303 606 CURVE SMOOTH",
"378 606 OFFCURVE",
"422 560 OFFCURVE",
"422 479 CURVE SMOOTH",
"422 479 LINE"
);
}
);
};
layerId = "0EBA3A65-8808-4583-9AA2-2A9BC4F414AB";
paths = (
{
closed = 1;
nodes = (
"306 0 LINE",
"313 39 LINE",
"278 46 OFFCURVE",
"252 57 OFFCURVE",
"238 71 CURVE",
"238 283 LINE",
"252 282 OFFCURVE",
"282 280 OFFCURVE",
"302 280 CURVE SMOOTH",
"479 280 OFFCURVE",
"577 351 OFFCURVE",
"577 481 CURVE SMOOTH",
"577 605 OFFCURVE",
"490 667 OFFCURVE",
"316 667 CURVE SMOOTH",
"34 667 LINE",
"30 628 LINE",
"59 618 OFFCURVE",
"78 608 OFFCURVE",
"91 596 CURVE",
"91 71 LINE",
"73 53 OFFCURVE",
"59 46 OFFCURVE",
"34 41 CURVE",
"30 0 LINE"
);
},
{
closed = 1;
nodes = (
"238 602 LINE",
"257 605 OFFCURVE",
"275 606 OFFCURVE",
"303 606 CURVE SMOOTH",
"378 606 OFFCURVE",
"422 560 OFFCURVE",
"422 479 CURVE SMOOTH",
"422 389 OFFCURVE",
"381 343 OFFCURVE",
"303 343 CURVE SMOOTH",
"238 343 LINE"
);
}
);
width = 593;
}
);
leftKerningGroup = H;
rightKerningGroup = P;
unicode = 0050;
},
{
color = 4;
glyphname = Q;
lastChange = "2019-11-29 14:41:22 +0000";
layers = (
{
background = {
paths = (
{
closed = 1;
nodes = (
"509 -164 OFFCURVE",
"512 -155 OFFCURVE",
"512 -146 CURVE SMOOTH",
"512 -143 OFFCURVE",
"512 -141 OFFCURVE",
"512 -140 CURVE",
"441 -116 OFFCURVE",
"382 -65 OFFCURVE",
"358 -2 CURVE",
"517 22 OFFCURVE",
"573 147 OFFCURVE",
"573 333 CURVE SMOOTH",
"573 542 OFFCURVE",
"504 676 OFFCURVE",
"300 676 CURVE SMOOTH",
"95 676 OFFCURVE",
"26 543 OFFCURVE",
"26 334 CURVE SMOOTH",
"26 134 OFFCURVE",
"90 3 OFFCURVE",
"277 -6 CURVE",
"316 -82 OFFCURVE",
"382 -150 OFFCURVE",
"502 -170 CURVE"
);
},
{
closed = 1;
nodes = (
"150 42 OFFCURVE",
"127 181 OFFCURVE",
"127 334 CURVE SMOOTH",
"127 488 OFFCURVE",
"150 626 OFFCURVE",
"300 626 CURVE SMOOTH",
"450 626 OFFCURVE",
"472 487 OFFCURVE",
"472 333 CURVE SMOOTH",
"472 180 OFFCURVE",
"450 42 OFFCURVE",
"300 42 CURVE SMOOTH"
);
}
);
};
layerId = UUID0;
paths = (
{
closed = 1;
nodes = (
"509 -164 OFFCURVE",
"512 -155 OFFCURVE",
"512 -146 CURVE SMOOTH",
"512 -143 OFFCURVE",
"512 -141 OFFCURVE",
"512 -140 CURVE",
"441 -116 OFFCURVE",
"382 -65 OFFCURVE",
"358 -2 CURVE",
"517 22 OFFCURVE",
"573 147 OFFCURVE",
"573 333 CURVE SMOOTH",
"573 542 OFFCURVE",
"504 676 OFFCURVE",
"300 676 CURVE SMOOTH",
"95 676 OFFCURVE",
"26 543 OFFCURVE",
"26 334 CURVE SMOOTH",
"26 134 OFFCURVE",
"90 3 OFFCURVE",
"277 -6 CURVE",
"316 -82 OFFCURVE",
"382 -150 OFFCURVE",
"502 -170 CURVE"
);
},
{
closed = 1;
nodes = (
"150 42 OFFCURVE",
"127 181 OFFCURVE",
"127 334 CURVE SMOOTH",
"127 488 OFFCURVE",
"150 626 OFFCURVE",
"300 626 CURVE SMOOTH",
"450 626 OFFCURVE",
"472 487 OFFCURVE",
"472 333 CURVE SMOOTH",
"472 180 OFFCURVE",
"450 42 OFFCURVE",
"300 42 CURVE SMOOTH"
);
}
);
width = 599;
},
{
background = {
paths = (
{
closed = 1;
nodes = (
"524 -170 OFFCURVE",
"530 -157 OFFCURVE",
"530 -146 CURVE SMOOTH",
"530 -143 OFFCURVE",
"530 -141 OFFCURVE",
"529 -138 CURVE",
"466 -114 OFFCURVE",
"419 -65 OFFCURVE",
"397 -4 CURVE",
"547 23 OFFCURVE",
"622 140 OFFCURVE",
"622 335 CURVE SMOOTH",
"622 558 OFFCURVE",
"523 678 OFFCURVE",
"324 678 CURVE SMOOTH",
"126 678 OFFCURVE",
"25 558 OFFCURVE",
"25 335 CURVE SMOOTH",
"25 134 OFFCURVE",
"106 15 OFFCURVE",
"266 -6 CURVE",
"311 -84 OFFCURVE",
"379 -153 OFFCURVE",
"517 -174 CURVE"
);
},
{
closed = 1;
nodes = (
"229 48 OFFCURVE",
"190 131 OFFCURVE",
"190 335 CURVE SMOOTH",
"190 537 OFFCURVE",
"229 620 OFFCURVE",
"324 620 CURVE SMOOTH",
"418 620 OFFCURVE",
"456 537 OFFCURVE",
"456 335 CURVE SMOOTH",
"456 131 OFFCURVE",
"418 48 OFFCURVE",
"324 48 CURVE SMOOTH"
);
}
);
};
layerId = "0EBA3A65-8808-4583-9AA2-2A9BC4F414AB";
paths = (
{
closed = 1;
nodes = (
"524 -170 OFFCURVE",
"530 -157 OFFCURVE",
"530 -146 CURVE SMOOTH",
"530 -143 OFFCURVE",
"530 -141 OFFCURVE",
"529 -138 CURVE",
"466 -114 OFFCURVE",
"419 -65 OFFCURVE",
"397 -4 CURVE",
"547 23 OFFCURVE",
"622 140 OFFCURVE",
"622 335 CURVE SMOOTH",
"622 558 OFFCURVE",
"523 678 OFFCURVE",
"324 678 CURVE SMOOTH",
"126 678 OFFCURVE",
"25 558 OFFCURVE",
"25 335 CURVE SMOOTH",
"25 134 OFFCURVE",
"106 15 OFFCURVE",
"266 -6 CURVE",
"311 -84 OFFCURVE",
"379 -153 OFFCURVE",
"517 -174 CURVE"
);
},
{
closed = 1;
nodes = (
"229 48 OFFCURVE",
"190 131 OFFCURVE",
"190 335 CURVE SMOOTH",
"190 537 OFFCURVE",
"229 620 OFFCURVE",
"324 620 CURVE SMOOTH",
"418 620 OFFCURVE",
"456 537 OFFCURVE",
"456 335 CURVE SMOOTH",
"456 131 OFFCURVE",
"418 48 OFFCURVE",
"324 48 CURVE SMOOTH"
);
}
);
width = 647;
}
);
leftKerningGroup = O;
rightKerningGroup = O;
unicode = 0051;
},
{
color = 4;
glyphname = R;
lastChange = "2019-11-29 14:41:44 +0000";
layers = (
{
anchors = (
{
name = bottom;
position = "{349, 0}";
},
{
name = top;
position = "{294, 667}";
}
);
background = {
anchors = (
{
name = bottom;
position = "{329, 0}";
},
{
name = top;
position = "{294, 705}";
}
);
paths = (
{
closed = 1;
nodes = (
"308 0 LINE",
"309 13 OFFCURVE",
"311 25 OFFCURVE",
"313 37 CURVE",
"260 44 OFFCURVE",
"235 52 OFFCURVE",
"216 64 CURVE",
"216 311 LINE",
"236 311 LINE SMOOTH",
"322 311 OFFCURVE",
"332 304 OFFCURVE",
"364 223 CURVE SMOOTH",
"451 0 LINE",
"602 0 LINE",
"608 38 LINE",
"570 42 OFFCURVE",
"543 51 OFFCURVE",
"524 64 CURVE",
"445 240 LINE SMOOTH",
"427 281 OFFCURVE",
"409 309 OFFCURVE",
"383 326 CURVE",
"478 349 OFFCURVE",
"521 403 OFFCURVE",
"521 491 CURVE SMOOTH",
"521 609 OFFCURVE",
"443 667 OFFCURVE",
"292 667 CURVE SMOOTH",
"35 667 LINE",
"30 631 LINE",
"73 626 OFFCURVE",
"105 617 OFFCURVE",
"128 604 CURVE",
"128 64 LINE",
"104 50 OFFCURVE",
"77 42 OFFCURVE",
"36 37 CURVE",
"31 0 LINE"
);
},
{
closed = 1;
nodes = (
"383 626 OFFCURVE",
"431 581 OFFCURVE",
"431 493 CURVE SMOOTH",
"431 401 OFFCURVE",
"372 357 OFFCURVE",
"247 357 CURVE SMOOTH",
"216 357 LINE",
"216 619 LINE",
"251 625 OFFCURVE",
"264 626 OFFCURVE",
"291 626 CURVE SMOOTH",
"291 626 LINE"
);
}
);
};
layerId = UUID0;
paths = (
{
closed = 1;
nodes = (
"308 0 LINE",
"313 37 LINE",
"260 44 OFFCURVE",
"235 52 OFFCURVE",
"216 64 CURVE",
"216 311 LINE",
"236 311 LINE SMOOTH",
"322 311 OFFCURVE",
"332 304 OFFCURVE",
"364 223 CURVE SMOOTH",
"451 0 LINE",
"602 0 LINE",
"608 38 LINE",
"570 42 OFFCURVE",
"543 51 OFFCURVE",
"524 64 CURVE",
"445 240 LINE SMOOTH",
"427 281 OFFCURVE",
"409 309 OFFCURVE",
"383 326 CURVE",
"478 349 OFFCURVE",
"521 403 OFFCURVE",
"521 491 CURVE SMOOTH",
"521 609 OFFCURVE",
"443 667 OFFCURVE",
"292 667 CURVE SMOOTH",
"35 667 LINE",
"30 631 LINE",
"73 626 OFFCURVE",
"105 617 OFFCURVE",
"128 604 CURVE",
"128 64 LINE",
"104 50 OFFCURVE",
"77 42 OFFCURVE",
"36 37 CURVE",
"31 0 LINE"
);
},
{
closed = 1;
nodes = (
"216 619 LINE",
"251 625 OFFCURVE",
"264 626 OFFCURVE",
"291 626 CURVE SMOOTH",
"383 626 OFFCURVE",
"431 581 OFFCURVE",
"431 493 CURVE SMOOTH",
"431 401 OFFCURVE",
"372 357 OFFCURVE",
"247 357 CURVE SMOOTH",
"216 357 LINE"
);
}
);
width = 613;
},
{
anchors = (
{
name = bottom;
position = "{354, 0}";
},
{
name = top;
position = "{303, 667}";
}
);
background = {
anchors = (
{
name = bottom;
position = "{354, 0}";
},
{
name = top;
position = "{299, 705}";
}
);
paths = (
{
closed = 1;
nodes = (
"278 46 OFFCURVE",
"252 57 OFFCURVE",
"238 71 CURVE",
"238 302 LINE",
"249 302 LINE SMOOTH",
"261 301 OFFCURVE",
"277 300 OFFCURVE",
"290 300 CURVE",
"316 296 OFFCURVE",
"334 287 OFFCURVE",
"344 262 CURVE SMOOTH",
"441 0 LINE",
"623 0 LINE",
"630 41 LINE",
"604 47 OFFCURVE",
"578 55 OFFCURVE",
"569 76 CURVE SMOOTH",
"494 254 LINE SMOOTH",
"479 288 OFFCURVE",
"460 308 OFFCURVE",
"442 320 CURVE",
"527 348 OFFCURVE",
"572 406 OFFCURVE",
"572 491 CURVE SMOOTH",
"572 609 OFFCURVE",
"487 667 OFFCURVE",
"316 667 CURVE SMOOTH",
"34 667 LINE",
"30 628 LINE",
"59 618 OFFCURVE",
"78 608 OFFCURVE",
"91 596 CURVE",
"91 71 LINE",
"73 53 OFFCURVE",
"59 46 OFFCURVE",
"34 41 CURVE",
"30 0 LINE",
"306 0 LINE",
"313 39 LINE"
);
},
{
closed = 1;
nodes = (
"417 405 OFFCURVE",
"378 363 OFFCURVE",
"303 363 CURVE SMOOTH",
"238 363 LINE",
"238 602 LINE",
"257 605 OFFCURVE",
"275 606 OFFCURVE",
"303 606 CURVE SMOOTH",
"375 606 OFFCURVE",
"417 564 OFFCURVE",
"417 489 CURVE SMOOTH",
"417 489 LINE"
);
}
);
};
layerId = "0EBA3A65-8808-4583-9AA2-2A9BC4F414AB";
paths = (
{
closed = 1;
nodes = (
"306 0 LINE",
"313 39 LINE",
"278 46 OFFCURVE",
"252 57 OFFCURVE",
"238 71 CURVE",
"238 302 LINE",
"283 300 LINE SMOOTH",
"317 299 OFFCURVE",
"336 283 OFFCURVE",
"344 261 CURVE SMOOTH",
"441 0 LINE",
"623 0 LINE",
"630 41 LINE",
"604 47 OFFCURVE",
"578 55 OFFCURVE",
"569 76 CURVE SMOOTH",
"494 254 LINE SMOOTH",
"479 288 OFFCURVE",
"460 308 OFFCURVE",
"442 320 CURVE",
"527 348 OFFCURVE",
"572 406 OFFCURVE",
"572 491 CURVE SMOOTH",
"572 609 OFFCURVE",
"487 667 OFFCURVE",
"316 667 CURVE SMOOTH",
"34 667 LINE",
"30 628 LINE",
"59 618 OFFCURVE",
"78 608 OFFCURVE",
"91 596 CURVE",
"91 71 LINE",
"73 53 OFFCURVE",
"59 46 OFFCURVE",
"34 41 CURVE",
"30 0 LINE"
);
},
{
closed = 1;
nodes = (
"238 602 LINE",
"257 605 OFFCURVE",
"275 606 OFFCURVE",
"303 606 CURVE SMOOTH",
"375 606 OFFCURVE",
"417 564 OFFCURVE",
"417 489 CURVE SMOOTH",
"417 405 OFFCURVE",
"378 363 OFFCURVE",
"303 363 CURVE SMOOTH",
"238 363 LINE"
);
}
);
width = 640;
}
);
leftKerningGroup = H;
rightKerningGroup = R;
unicode = 0052;
},
{
color = 4;
glyphname = S;
lastChange = "2019-12-01 05:41:25 +0000";
layers = (
{
anchors = (
{
name = bottom;
position = "{224, 0}";
},
{
name = cedilla;
position = "{230, 0}";
},
{
name = top;
position = "{225, 667}";
}
);
background = {
anchors = (
{
name = bottom;
position = "{230, 0}";
},
{
name = cedilla;
position = "{240, 0}";
},
{
name = top;
position = "{225, 705}";
}
);
paths = (
{
closed = 1;
nodes = (
"299 625 OFFCURVE",
"334 597 OFFCURVE",
"334 564 CURVE SMOOTH",
"334 537 OFFCURVE",
"323 523 OFFCURVE",
"313 513 CURVE",
"324 498 OFFCURVE",
"337 485 OFFCURVE",
"371 485 CURVE SMOOTH",
"404 485 OFFCURVE",
"421 507 OFFCURVE",
"421 549 CURVE SMOOTH",
"421 621 OFFCURVE",
"334 676 OFFCURVE",
"233 676 CURVE SMOOTH",
"102 676 OFFCURVE",
"27 605 OFFCURVE",
"27 499 CURVE SMOOTH",
"27 382 OFFCURVE",
"117 341 OFFCURVE",
"198 306 CURVE SMOOTH",
"271 275 OFFCURVE",
"342 244 OFFCURVE",
"342 160 CURVE SMOOTH",
"342 86 OFFCURVE",
"291 43 OFFCURVE",
"217 43 CURVE SMOOTH",
"160 43 OFFCURVE",
"127 55 OFFCURVE",
"103 66 CURVE",
"81 116 OFFCURVE",
"74 160 OFFCURVE",
"67 214 CURVE",
"18 209 LINE",
"18 45 LINE",
"44 26 OFFCURVE",
"127 -7 OFFCURVE",
"203 -7 CURVE SMOOTH",
"338 -7 OFFCURVE",
"433 57 OFFCURVE",
"433 181 CURVE SMOOTH",
"433 311 OFFCURVE",
"338 352 OFFCURVE",
"252 389 CURVE SMOOTH",
"179 420 OFFCURVE",
"113 448 OFFCURVE",
"113 524 CURVE SMOOTH",
"113 591 OFFCURVE",
"159 625 OFFCURVE",
"232 625 CURVE SMOOTH",
"232 625 LINE"
);
}
);
};
layerId = UUID0;
paths = (
{
closed = 1;
nodes = (
"338 -7 OFFCURVE",
"433 57 OFFCURVE",
"433 181 CURVE SMOOTH",
"433 311 OFFCURVE",
"338 352 OFFCURVE",
"252 389 CURVE SMOOTH",
"179 420 OFFCURVE",
"113 448 OFFCURVE",
"113 524 CURVE SMOOTH",
"113 591 OFFCURVE",
"159 625 OFFCURVE",
"232 625 CURVE SMOOTH",
"299 625 OFFCURVE",
"334 597 OFFCURVE",
"334 564 CURVE SMOOTH",
"334 537 OFFCURVE",
"323 523 OFFCURVE",
"313 513 CURVE",
"324 498 OFFCURVE",
"337 485 OFFCURVE",
"371 485 CURVE SMOOTH",
"404 485 OFFCURVE",
"421 507 OFFCURVE",
"421 549 CURVE SMOOTH",
"421 621 OFFCURVE",
"334 676 OFFCURVE",
"233 676 CURVE SMOOTH",
"102 676 OFFCURVE",
"27 605 OFFCURVE",
"27 499 CURVE SMOOTH",
"27 382 OFFCURVE",
"117 341 OFFCURVE",
"198 306 CURVE SMOOTH",
"271 275 OFFCURVE",
"342 244 OFFCURVE",
"342 160 CURVE SMOOTH",
"342 86 OFFCURVE",
"291 43 OFFCURVE",
"217 43 CURVE SMOOTH",
"160 43 OFFCURVE",
"127 55 OFFCURVE",
"103 66 CURVE",
"81 116 OFFCURVE",
"74 160 OFFCURVE",
"67 214 CURVE",
"18 209 LINE",
"18 45 LINE",
"44 26 OFFCURVE",
"127 -7 OFFCURVE",
"203 -7 CURVE SMOOTH"
);
}
);
width = 453;
},
{
anchors = (
{
name = bottom;
position = "{228, 0}";
},
{
name = cedilla;
position = "{243, 0}";
},
{
name = top;
position = "{233, 667}";
}
);
background = {
anchors = (
{
name = bottom;
position = "{228, 0}";
},
{
name = cedilla;
position = "{243, 0}";
},
{
name = top;
position = "{233, 705}";
}
);
paths = (
{
closed = 1;
nodes = (
"14 44 LINE",
"77 11 OFFCURVE",
"154 -7 OFFCURVE",
"229 -7 CURVE SMOOTH",
"364 -7 OFFCURVE",
"453 69 OFFCURVE",
"453 183 CURVE SMOOTH",
"453 294 OFFCURVE",
"405 356 OFFCURVE",
"273 412 CURVE SMOOTH",
"178 453 OFFCURVE",
"148 482 OFFCURVE",
"148 541 CURVE SMOOTH",
"148 589 OFFCURVE",
"185 621 OFFCURVE",
"241 621 CURVE SMOOTH",
"295 621 OFFCURVE",
"329 598 OFFCURVE",
"329 561 CURVE SMOOTH",
"329 541 OFFCURVE",
"320 519 OFFCURVE",
"304 501 CURVE",
"331 480 OFFCURVE",
"355 471 OFFCURVE",
"380 471 CURVE SMOOTH",
"419 471 OFFCURVE",
"445 500 OFFCURVE",
"445 545 CURVE SMOOTH",
"445 617 OFFCURVE",
"353 675 OFFCURVE",
"239 675 CURVE SMOOTH",
"110 675 OFFCURVE",
"15 597 OFFCURVE",
"15 492 CURVE SMOOTH",
"15 390 OFFCURVE",
"60 340 OFFCURVE",
"191 286 CURVE SMOOTH",
"273 252 OFFCURVE",
"311 210 OFFCURVE",
"311 140 CURVE SMOOTH",
"311 85 OFFCURVE",
"274 48 OFFCURVE",
"220 48 CURVE SMOOTH",
"193 48 OFFCURVE",
"166 54 OFFCURVE",
"137 65 CURVE",
"123 91 OFFCURVE",
"109 157 OFFCURVE",
"105 213 CURVE",
"14 196 LINE"
);
},
{
closed = 1;
nodes = (
"364 -7 OFFCURVE",
"453 69 OFFCURVE",
"453 183 CURVE SMOOTH",
"453 294 OFFCURVE",
"405 356 OFFCURVE",
"273 412 CURVE SMOOTH",
"178 453 OFFCURVE",
"148 482 OFFCURVE",
"148 541 CURVE SMOOTH",
"148 589 OFFCURVE",
"185 621 OFFCURVE",
"241 621 CURVE SMOOTH",
"295 621 OFFCURVE",
"329 598 OFFCURVE",
"329 561 CURVE SMOOTH",
"329 541 OFFCURVE",
"320 519 OFFCURVE",
"304 501 CURVE",
"331 480 OFFCURVE",
"355 471 OFFCURVE",
"380 471 CURVE SMOOTH",
"419 471 OFFCURVE",
"445 500 OFFCURVE",
"445 545 CURVE SMOOTH",
"445 617 OFFCURVE",
"353 675 OFFCURVE",
"239 675 CURVE SMOOTH",
"110 675 OFFCURVE",
"15 597 OFFCURVE",
"15 492 CURVE SMOOTH",
"15 390 OFFCURVE",
"60 340 OFFCURVE",
"191 286 CURVE SMOOTH",
"273 252 OFFCURVE",
"311 210 OFFCURVE",
"311 140 CURVE SMOOTH",
"311 85 OFFCURVE",
"274 48 OFFCURVE",
"220 48 CURVE SMOOTH",
"193 48 OFFCURVE",
"166 54 OFFCURVE",
"137 65 CURVE",
"123 91 OFFCURVE",
"109 157 OFFCURVE",
"105 213 CURVE",
"14 196 LINE",
"14 44 LINE",
"77 11 OFFCURVE",
"154 -7 OFFCURVE",
"229 -7 CURVE SMOOTH"
);
}
);
};
layerId = "0EBA3A65-8808-4583-9AA2-2A9BC4F414AB";
paths = (
{
closed = 1;
nodes = (
"367 -7 OFFCURVE",
"458 69 OFFCURVE",
"458 194 CURVE SMOOTH",
"458 294 OFFCURVE",
"408 349 OFFCURVE",
"285 403 CURVE SMOOTH",
"178 450 OFFCURVE",
"148 482 OFFCURVE",
"148 541 CURVE SMOOTH",
"148 589 OFFCURVE",
"185 621 OFFCURVE",
"241 621 CURVE SMOOTH",
"295 621 OFFCURVE",
"329 598 OFFCURVE",
"329 561 CURVE SMOOTH",
"329 541 OFFCURVE",
"320 519 OFFCURVE",
"304 501 CURVE",
"331 480 OFFCURVE",
"355 471 OFFCURVE",
"380 471 CURVE SMOOTH",
"419 471 OFFCURVE",
"445 500 OFFCURVE",
"445 545 CURVE SMOOTH",
"445 617 OFFCURVE",
"353 675 OFFCURVE",
"239 675 CURVE SMOOTH",
"110 675 OFFCURVE",
"15 597 OFFCURVE",
"15 492 CURVE SMOOTH",
"15 390 OFFCURVE",
"60 342 OFFCURVE",
"191 286 CURVE SMOOTH",
"276 250 OFFCURVE",
"316 210 OFFCURVE",
"316 148 CURVE SMOOTH",
"316 85 OFFCURVE",
"277 48 OFFCURVE",
"220 48 CURVE SMOOTH",
"193 48 OFFCURVE",
"166 54 OFFCURVE",
"137 65 CURVE",
"123 91 OFFCURVE",
"109 157 OFFCURVE",
"105 213 CURVE",
"14 196 LINE",
"14 44 LINE",
"77 11 OFFCURVE",
"154 -7 OFFCURVE",
"229 -7 CURVE SMOOTH"
);
}
);
width = 473;
}
);
leftKerningGroup = S;
rightKerningGroup = S;
unicode = 0053;
},
{
color = 4;
glyphname = T;
lastChange = "2019-12-01 05:36:00 +0000";
layers = (
{
anchors = (
{
name = bottom;
position = "{279, 0}";
},
{
name = top;
position = "{278, 667}";
}
);
background = {
anchors = (
{
name = bottom;
position = "{278, 0}";
},
{
name = top;
position = "{278, 705}";
}
);
paths = (
{
closed = 1;
nodes = (
"416 0 LINE",
"417 13 OFFCURVE",
"419 25 OFFCURVE",
"421 37 CURVE",
"388 41 OFFCURVE",
"352 48 OFFCURVE",
"323 64 CURVE",
"323 622 LINE",
"387 621 OFFCURVE",
"427 617 OFFCURVE",
"455 614 CURVE",
"479 578 OFFCURVE",
"488 528 OFFCURVE",
"491 499 CURVE",
"499 498 OFFCURVE",
"506 498 OFFCURVE",
"514 498 CURVE SMOOTH",
"521 498 OFFCURVE",
"528 498 OFFCURVE",
"535 499 CURVE",
"535 671 LINE",
"525 670 OFFCURVE",
"373 667 OFFCURVE",
"278 667 CURVE SMOOTH",
"154 667 OFFCURVE",
"22 671 OFFCURVE",
"22 671 CURVE",
"22 499 LINE",
"29 498 OFFCURVE",
"36 498 OFFCURVE",
"42 498 CURVE SMOOTH",
"50 498 OFFCURVE",
"59 499 OFFCURVE",
"66 499 CURVE",
"67 529 OFFCURVE",
"78 579 OFFCURVE",
"104 615 CURVE",
"132 618 OFFCURVE",
"172 621 OFFCURVE",
"235 622 CURVE",
"235 64 LINE",
"207 47 OFFCURVE",
"176 41 OFFCURVE",
"144 37 CURVE",
"138 0 LINE"
);
}
);
};
layerId = UUID0;
paths = (
{
closed = 1;
nodes = (
"416 0 LINE",
"421 37 LINE",
"388 41 OFFCURVE",
"352 48 OFFCURVE",
"323 64 CURVE",
"323 622 LINE",
"387 621 OFFCURVE",
"427 617 OFFCURVE",
"455 614 CURVE",
"479 578 OFFCURVE",
"488 528 OFFCURVE",
"491 499 CURVE",
"499 498 OFFCURVE",
"506 498 OFFCURVE",
"514 498 CURVE SMOOTH",
"521 498 OFFCURVE",
"528 498 OFFCURVE",
"535 499 CURVE",
"535 671 LINE",
"525 670 OFFCURVE",
"373 667 OFFCURVE",
"278 667 CURVE SMOOTH",
"154 667 OFFCURVE",
"22 671 OFFCURVE",
"22 671 CURVE",
"22 499 LINE",
"29 498 OFFCURVE",
"37 498 OFFCURVE",
"45 498 CURVE SMOOTH",
"51 498 OFFCURVE",
"59 498 OFFCURVE",
"66 499 CURVE",
"67 529 OFFCURVE",
"78 579 OFFCURVE",
"104 615 CURVE",
"132 618 OFFCURVE",
"172 621 OFFCURVE",
"235 622 CURVE",
"235 64 LINE",
"207 47 OFFCURVE",
"176 41 OFFCURVE",
"144 37 CURVE",
"138 0 LINE"
);
}
);
width = 557;
},
{
anchors = (
{
name = bottom;
position = "{295, 0}";
},
{
name = top;
position = "{295, 667}";
}
);
background = {
anchors = (
{
name = bottom;
position = "{295, 0}";
},
{
name = top;
position = "{295, 705}";
}
);
paths = (
{
closed = 1;
nodes = (
"405 48 OFFCURVE",
"381 58 OFFCURVE",
"367 71 CURVE",
"367 606 LINE",
"406 605 OFFCURVE",
"440 602 OFFCURVE",
"470 598 CURVE",
"487 571 OFFCURVE",
"501 528 OFFCURVE",
"506 483 CURVE",
"518 481 OFFCURVE",
"530 480 OFFCURVE",
"542 480 CURVE SMOOTH",
"553 480 OFFCURVE",
"564 481 OFFCURVE",
"575 483 CURVE",
"575 671 LINE",
"561 670 OFFCURVE",
"374 667 OFFCURVE",
"293 667 CURVE SMOOTH",
"159 667 OFFCURVE",
"12 671 OFFCURVE",
"12 671 CURVE",
"12 483 LINE",
"23 481 OFFCURVE",
"34 480 OFFCURVE",
"45 480 CURVE SMOOTH",
"57 480 OFFCURVE",
"69 481 OFFCURVE",
"81 483 CURVE",
"82 522 OFFCURVE",
"98 570 OFFCURVE",
"119 599 CURVE",
"148 601 OFFCURVE",
"181 604 OFFCURVE",
"220 605 CURVE",
"220 71 LINE",
"200 54 OFFCURVE",
"179 45 OFFCURVE",
"148 41 CURVE",
"144 0 LINE",
"435 0 LINE",
"442 41 LINE"
);
}
);
};
layerId = "0EBA3A65-8808-4583-9AA2-2A9BC4F414AB";
paths = (
{
closed = 1;
nodes = (
"435 0 LINE",
"442 41 LINE",
"405 48 OFFCURVE",
"381 58 OFFCURVE",
"367 71 CURVE",
"367 606 LINE",
"406 605 OFFCURVE",
"440 602 OFFCURVE",
"470 598 CURVE",
"487 571 OFFCURVE",
"501 528 OFFCURVE",
"506 483 CURVE",
"518 481 OFFCURVE",
"530 480 OFFCURVE",
"542 480 CURVE SMOOTH",
"553 480 OFFCURVE",
"564 481 OFFCURVE",
"575 483 CURVE",
"575 671 LINE",
"561 670 OFFCURVE",
"374 667 OFFCURVE",
"293 667 CURVE SMOOTH",
"159 667 OFFCURVE",
"12 671 OFFCURVE",
"12 671 CURVE",
"12 483 LINE",
"23 481 OFFCURVE",
"34 480 OFFCURVE",
"45 480 CURVE SMOOTH",
"57 480 OFFCURVE",
"69 481 OFFCURVE",
"81 483 CURVE",
"82 522 OFFCURVE",
"98 570 OFFCURVE",
"119 599 CURVE",
"148 601 OFFCURVE",
"181 604 OFFCURVE",
"220 605 CURVE",
"220 71 LINE",
"200 54 OFFCURVE",
"179 45 OFFCURVE",
"148 41 CURVE",
"144 0 LINE"
);
}
);
width = 587;
}
);
leftKerningGroup = T;
rightKerningGroup = T;
unicode = 0054;
},
{
color = 4;
glyphname = U;
lastChange = "2019-11-29 17:37:09 +0000";
layers = (
{
anchors = (
{
name = ogonek;
position = "{426, 0}";
},
{
name = top;
position = "{345, 667}";
}
);
background = {
anchors = (
{
name = ogonek;
position = "{423, 0}";
},
{
name = top;
position = "{343, 705}";
}
);
paths = (
{
closed = 1;
nodes = (
"422 667 LINE",
"420 655 OFFCURVE",
"418 643 OFFCURVE",
"417 631 CURVE",
"460 626 OFFCURVE",
"492 616 OFFCURVE",
"514 604 CURVE",
"514 216 LINE SMOOTH",
"514 105 OFFCURVE",
"455 45 OFFCURVE",
"352 45 CURVE SMOOTH",
"248 45 OFFCURVE",
"200 91 OFFCURVE",
"200 210 CURVE SMOOTH",
"200 604 LINE",
"223 616 OFFCURVE",
"249 624 OFFCURVE",
"290 631 CURVE",
"296 667 LINE",
"16 667 LINE",
"12 631 LINE",
"55 626 OFFCURVE",
"86 616 OFFCURVE",
"109 604 CURVE",
"109 210 LINE SMOOTH",
"109 60 OFFCURVE",
"180 -7 OFFCURVE",
"352 -7 CURVE SMOOTH",
"497 -7 OFFCURVE",
"578 73 OFFCURVE",
"578 216 CURVE SMOOTH",
"578 604 LINE",
"601 616 OFFCURVE",
"627 624 OFFCURVE",
"670 631 CURVE",
"675 667 LINE"
);
}
);
};
layerId = UUID0;
paths = (
{
closed = 1;
nodes = (
"497 -7 OFFCURVE",
"578 73 OFFCURVE",
"578 216 CURVE SMOOTH",
"578 604 LINE",
"601 616 OFFCURVE",
"627 624 OFFCURVE",
"670 631 CURVE",
"675 667 LINE",
"422 667 LINE",
"417 631 LINE",
"460 626 OFFCURVE",
"492 616 OFFCURVE",
"514 604 CURVE",
"514 216 LINE SMOOTH",
"514 105 OFFCURVE",
"455 45 OFFCURVE",
"352 45 CURVE SMOOTH",
"248 45 OFFCURVE",
"200 91 OFFCURVE",
"200 210 CURVE SMOOTH",
"200 604 LINE",
"223 616 OFFCURVE",
"249 624 OFFCURVE",
"290 631 CURVE",
"296 667 LINE",
"16 667 LINE",
"12 631 LINE",
"55 626 OFFCURVE",
"86 616 OFFCURVE",
"109 604 CURVE",
"109 210 LINE SMOOTH",
"109 60 OFFCURVE",
"180 -7 OFFCURVE",
"352 -7 CURVE SMOOTH"
);
}
);
width = 687;
},
{
anchors = (
{
name = ogonek;
position = "{429, 0}";
},
{
name = top;
position = "{373, 667}";
}
);
background = {
anchors = (
{
name = ogonek;
position = "{429, 0}";
},
{
name = top;
position = "{359, 705}";
}
);
paths = (
{
closed = 1;
nodes = (
"48 621 OFFCURVE",
"81 609 OFFCURVE",
"94 596 CURVE",
"94 208 LINE SMOOTH",
"94 64 OFFCURVE",
"182 -7 OFFCURVE",
"360 -7 CURVE SMOOTH",
"413 -7 OFFCURVE",
"460 3 OFFCURVE",
"495 19 CURVE SMOOTH",
"580 58 OFFCURVE",
"605 125 OFFCURVE",
"605 245 CURVE SMOOTH",
"605 596 LINE",
"621 609 OFFCURVE",
"642 619 OFFCURVE",
"671 628 CURVE",
"677 667 LINE",
"439 667 LINE",
"434 626 LINE",
"465 619 OFFCURVE",
"491 613 OFFCURVE",
"510 598 CURVE",
"510 223 LINE SMOOTH",
"510 132 OFFCURVE",
"481 60 OFFCURVE",
"381 60 CURVE SMOOTH",
"284 60 OFFCURVE",
"241 111 OFFCURVE",
"241 208 CURVE SMOOTH",
"241 596 LINE",
"260 612 OFFCURVE",
"276 619 OFFCURVE",
"310 626 CURVE",
"316 667 LINE",
"23 667 LINE",
"18 626 LINE"
);
}
);
};
layerId = "0EBA3A65-8808-4583-9AA2-2A9BC4F414AB";
paths = (
{
closed = 1;
nodes = (
"527 -7 OFFCURVE",
"605 70 OFFCURVE",
"605 225 CURVE SMOOTH",
"605 596 LINE",
"621 609 OFFCURVE",
"642 619 OFFCURVE",
"671 628 CURVE",
"677 667 LINE",
"439 667 LINE",
"434 626 LINE",
"465 619 OFFCURVE",
"491 613 OFFCURVE",
"510 598 CURVE",
"510 223 LINE SMOOTH",
"510 132 OFFCURVE",
"481 60 OFFCURVE",
"381 60 CURVE SMOOTH",
"284 60 OFFCURVE",
"241 111 OFFCURVE",
"241 208 CURVE SMOOTH",
"241 596 LINE",
"260 612 OFFCURVE",
"276 619 OFFCURVE",
"310 626 CURVE",
"316 667 LINE",
"23 667 LINE",
"18 626 LINE",
"48 621 OFFCURVE",
"81 609 OFFCURVE",
"94 596 CURVE",
"94 208 LINE SMOOTH",
"94 64 OFFCURVE",
"182 -7 OFFCURVE",
"360 -7 CURVE SMOOTH"
);
}
);
width = 695;
}
);
leftKerningGroup = U;
rightKerningGroup = U;
unicode = 0055;
},
{
color = 4;
glyphname = V;
lastChange = "2019-12-01 05:35:39 +0000";
layers = (
{
background = {
paths = (
{
closed = 1;
nodes = (
"373 667 LINE",
"372 655 OFFCURVE",
"370 643 OFFCURVE",
"368 631 CURVE",
"400 627 OFFCURVE",
"432 618 OFFCURVE",
"459 604 CURVE",
"316 153 LINE",
"159 604 LINE",
"186 620 OFFCURVE",
"214 627 OFFCURVE",
"245 631 CURVE",
"251 667 LINE",
"9 667 LINE",
"4 631 LINE",
"26 626 OFFCURVE",
"51 616 OFFCURVE",
"65 604 CURVE",
"281 0 LINE",
"329 0 LINE",
"525 605 LINE",
"545 619 OFFCURVE",
"565 627 OFFCURVE",
"587 631 CURVE",
"593 667 LINE"
);
}
);
};
layerId = UUID0;
paths = (
{
closed = 1;
nodes = (
"329 0 LINE",
"525 605 LINE",
"545 619 OFFCURVE",
"565 627 OFFCURVE",
"587 631 CURVE",
"593 667 LINE",
"373 667 LINE",
"368 631 LINE",
"400 627 OFFCURVE",
"432 618 OFFCURVE",
"459 604 CURVE",
"316 153 LINE",
"159 604 LINE",
"186 620 OFFCURVE",
"214 627 OFFCURVE",
"245 631 CURVE",
"251 667 LINE",
"9 667 LINE",
"4 631 LINE",
"26 626 OFFCURVE",
"51 616 OFFCURVE",
"65 604 CURVE",
"281 0 LINE"
);
}
);
width = 598;
},
{
background = {
paths = (
{
closed = 1;
nodes = (
"273 667 LINE",
"-1 667 LINE",
"-6 627 LINE",
"20 622 OFFCURVE",
"47 613 OFFCURVE",
"58 585 CURVE",
"245 0 LINE",
"346 0 LINE",
"566 601 LINE",
"577 618 OFFCURVE",
"602 626 OFFCURVE",
"629 627 CURVE",
"634 667 LINE",
"413 667 LINE",
"408 627 LINE",
"439 623 OFFCURVE",
"469 613 OFFCURVE",
"487 597 CURVE",
"341 185 LINE",
"205 605 LINE",
"220 620 OFFCURVE",
"240 626 OFFCURVE",
"267 627 CURVE",
"267 627 LINE"
);
}
);
};
layerId = "0EBA3A65-8808-4583-9AA2-2A9BC4F414AB";
paths = (
{
closed = 1;
nodes = (
"346 0 LINE",
"563 594 LINE SMOOTH",
"570 613 OFFCURVE",
"594 626 OFFCURVE",
"629 627 CURVE",
"634 667 LINE",
"413 667 LINE",
"408 627 LINE",
"439 623 OFFCURVE",
"469 613 OFFCURVE",
"487 597 CURVE",
"341 185 LINE",
"205 605 LINE",
"220 620 OFFCURVE",
"240 626 OFFCURVE",
"267 627 CURVE",
"273 667 LINE",
"-1 667 LINE",
"-6 627 LINE",
"30 621 OFFCURVE",
"52 605 OFFCURVE",
"59 583 CURVE SMOOTH",
"245 0 LINE"
);
}
);
width = 632;
}
);
leftKerningGroup = V;
rightKerningGroup = V;
unicode = 0056;
},
{
color = 4;
glyphname = W;
lastChange = "2019-12-02 22:23:14 +0000";
layers = (
{
anchors = (
{
name = top;
position = "{455, 667}";
}
);
background = {
anchors = (
{
name = top;
position = "{444, 705}";
}
);
paths = (
{
closed = 1;
nodes = (
"665 667 LINE",
"660 631 LINE",
"693 627 OFFCURVE",
"724 618 OFFCURVE",
"751 604 CURVE",
"632 161 LINE",
"472 667 LINE",
"440 667 LINE",
"291 159 LINE",
"159 604 LINE",
"186 620 OFFCURVE",
"214 627 OFFCURVE",
"245 631 CURVE",
"251 667 LINE",
"8 667 LINE",
"4 631 LINE",
"26 626 OFFCURVE",
"49 617 OFFCURVE",
"64 605 CURVE",
"256 0 LINE",
"304 0 LINE",
"444 462 LINE",
"598 0 LINE",
"646 0 LINE",
"819 606 LINE",
"838 619 OFFCURVE",
"858 627 OFFCURVE",
"879 631 CURVE",
"885 667 LINE"
);
},
{
closed = 1;
nodes = (
"316 0 LINE",
"512 605 LINE",
"532 619 OFFCURVE",
"552 627 OFFCURVE",
"574 631 CURVE",
"580 667 LINE",
"360 667 LINE",
"355 631 LINE",
"387 627 OFFCURVE",
"419 618 OFFCURVE",
"446 604 CURVE",
"303 153 LINE",
"146 604 LINE",
"173 620 OFFCURVE",
"201 627 OFFCURVE",
"232 631 CURVE",
"238 667 LINE",
"-4 667 LINE",
"-9 631 LINE",
"13 626 OFFCURVE",
"38 616 OFFCURVE",
"52 604 CURVE",
"268 0 LINE"
);
},
{
closed = 1;
nodes = (
"626 4 LINE",
"822 609 LINE",
"842 623 OFFCURVE",
"862 631 OFFCURVE",
"884 635 CURVE",
"890 671 LINE",
"670 671 LINE",
"665 635 LINE",
"697 631 OFFCURVE",
"729 622 OFFCURVE",
"756 608 CURVE",
"613 157 LINE",
"456 608 LINE",
"483 624 OFFCURVE",
"511 631 OFFCURVE",
"542 635 CURVE",
"548 671 LINE",
"306 671 LINE",
"301 635 LINE",
"323 630 OFFCURVE",
"348 620 OFFCURVE",
"362 608 CURVE",
"578 4 LINE"
);
}
);
};
layerId = UUID0;
paths = (
{
closed = 1;
nodes = (
"304 0 LINE",
"444 462 LINE",
"598 0 LINE",
"646 0 LINE",
"819 606 LINE",
"838 619 OFFCURVE",
"858 627 OFFCURVE",
"879 631 CURVE",
"885 667 LINE",
"665 667 LINE",
"660 631 LINE",
"693 627 OFFCURVE",
"724 618 OFFCURVE",
"751 604 CURVE",
"632 161 LINE",
"472 667 LINE",
"440 667 LINE",
"291 159 LINE",
"159 604 LINE",
"186 620 OFFCURVE",
"214 627 OFFCURVE",
"245 631 CURVE",
"251 667 LINE",
"8 667 LINE",
"4 631 LINE",
"26 626 OFFCURVE",
"49 617 OFFCURVE",
"64 605 CURVE",
"256 0 LINE"
);
}
);
width = 889;
},
{
anchors = (
{
name = top;
position = "{510, 667}";
}
);
background = {
anchors = (
{
name = top;
position = "{510, 705}";
}
);
paths = (
{
closed = 1;
nodes = (
"323 185 LINE",
"206 605 LINE",
"222 620 OFFCURVE",
"242 626 OFFCURVE",
"269 627 CURVE",
"275 667 LINE",
"1 667 LINE",
"-4 627 LINE",
"19 622 OFFCURVE",
"43 615 OFFCURVE",
"56 593 CURVE",
"227 0 LINE",
"328 0 LINE",
"467 430 LINE",
"595 0 LINE",
"696 0 LINE",
"896 602 LINE",
"907 619 OFFCURVE",
"932 626 OFFCURVE",
"958 627 CURVE",
"963 667 LINE",
"742 667 LINE",
"737 627 LINE",
"768 623 OFFCURVE",
"799 613 OFFCURVE",
"817 596 CURVE",
"691 185 LINE",
"553 667 LINE",
"465 667 LINE"
);
}
);
};
layerId = "0EBA3A65-8808-4583-9AA2-2A9BC4F414AB";
paths = (
{
closed = 1;
nodes = (
"328 0 LINE",
"467 430 LINE",
"595 0 LINE",
"696 0 LINE",
"894 596 LINE SMOOTH",
"900 615 OFFCURVE",
"926 626 OFFCURVE",
"958 627 CURVE",
"963 667 LINE",
"742 667 LINE",
"737 627 LINE",
"768 623 OFFCURVE",
"799 613 OFFCURVE",
"817 596 CURVE",
"691 185 LINE",
"553 667 LINE",
"465 667 LINE",
"323 185 LINE",
"206 605 LINE",
"222 620 OFFCURVE",
"242 626 OFFCURVE",
"269 627 CURVE",
"275 667 LINE",
"1 667 LINE",
"-4 627 LINE",
"30 619 OFFCURVE",
"52 609 OFFCURVE",
"59 583 CURVE SMOOTH",
"227 0 LINE"
);
}
);
width = 959;
}
);
leftKerningGroup = W;
rightKerningGroup = W;
unicode = 0057;
},
{
color = 4;
glyphname = X;
lastChange = "2019-12-01 02:19:32 +0000";
layers = (
{
background = {
paths = (
{
closed = 1;
nodes = (
"15 667 LINE",
"10 631 LINE",
"37 624 OFFCURVE",
"57 615 OFFCURVE",
"71 605 CURVE",
"242 339 LINE",
"68 61 LINE",
"42 44 OFFCURVE",
"11 39 OFFCURVE",
"-20 37 CURVE",
"-21 25 OFFCURVE",
"-23 13 OFFCURVE",
"-25 0 CURVE",
"229 0 LINE",
"233 37 LINE",
"185 37 OFFCURVE",
"153 44 OFFCURVE",
"140 61 CURVE",
"277 283 LINE",
"417 63 LINE",
"401 47 OFFCURVE",
"379 37 OFFCURVE",
"331 37 CURVE",
"330 25 OFFCURVE",
"328 13 OFFCURVE",
"326 0 CURVE",
"592 0 LINE",
"593 13 OFFCURVE",
"595 25 OFFCURVE",
"597 37 CURVE",
"577 40 OFFCURVE",
"548 44 OFFCURVE",
"523 61 CURVE",
"335 355 LINE",
"491 605 LINE",
"507 617 OFFCURVE",
"527 627 OFFCURVE",
"555 631 CURVE",
"560 667 LINE",
"343 667 LINE",
"341 655 OFFCURVE",
"339 643 OFFCURVE",
"338 631 CURVE",
"372 625 OFFCURVE",
"401 614 OFFCURVE",
"418 604 CURVE",
"298 412 LINE",
"176 604 LINE",
"195 616 OFFCURVE",
"223 626 OFFCURVE",
"256 631 CURVE",
"262 667 LINE"
);
}
);
};
layerId = UUID0;
paths = (
{
closed = 1;
nodes = (
"229 0 LINE",
"233 37 LINE",
"185 37 OFFCURVE",
"153 44 OFFCURVE",
"140 61 CURVE",
"277 283 LINE",
"417 63 LINE",
"401 47 OFFCURVE",
"379 37 OFFCURVE",
"331 37 CURVE",
"326 0 LINE",
"592 0 LINE",
"597 37 LINE",
"577 40 OFFCURVE",
"548 44 OFFCURVE",
"523 61 CURVE",
"335 355 LINE",
"491 605 LINE",
"507 617 OFFCURVE",
"527 627 OFFCURVE",
"555 631 CURVE",
"560 667 LINE",
"343 667 LINE",
"338 631 LINE",
"372 625 OFFCURVE",
"401 614 OFFCURVE",
"418 604 CURVE",
"298 412 LINE",
"176 604 LINE",
"195 616 OFFCURVE",
"223 626 OFFCURVE",
"256 631 CURVE",
"262 667 LINE",
"15 667 LINE",
"10 631 LINE",
"37 624 OFFCURVE",
"57 615 OFFCURVE",
"71 605 CURVE",
"242 339 LINE",
"68 61 LINE",
"42 44 OFFCURVE",
"11 39 OFFCURVE",
"-20 37 CURVE",
"-25 0 LINE"
);
}
);
width = 571;
},
{
background = {
paths = (
{
closed = 1;
nodes = (
"58 48 OFFCURVE",
"33 41 OFFCURVE",
"7 40 CURVE",
"2 0 LINE",
"223 0 LINE",
"228 40 LINE",
"201 44 OFFCURVE",
"175 53 OFFCURVE",
"159 68 CURVE",
"280 248 LINE",
"397 61 LINE",
"383 47 OFFCURVE",
"365 41 OFFCURVE",
"341 40 CURVE",
"335 0 LINE",
"609 0 LINE",
"614 40 LINE",
"596 43 OFFCURVE",
"577 48 OFFCURVE",
"563 61 CURVE",
"373 365 LINE",
"530 599 LINE SMOOTH",
"542 616 OFFCURVE",
"567 623 OFFCURVE",
"593 624 CURVE",
"598 664 LINE",
"377 664 LINE",
"372 624 LINE",
"399 620 OFFCURVE",
"425 611 OFFCURVE",
"441 595 CURVE",
"332 432 LINE",
"224 606 LINE",
"238 620 OFFCURVE",
"255 626 OFFCURVE",
"280 627 CURVE",
"286 667 LINE",
"12 667 LINE",
"7 627 LINE",
"25 623 OFFCURVE",
"45 618 OFFCURVE",
"58 604 CURVE",
"238 315 LINE",
"69 65 LINE"
);
}
);
};
layerId = "0EBA3A65-8808-4583-9AA2-2A9BC4F414AB";
paths = (
{
closed = 1;
nodes = (
"223 0 LINE",
"228 40 LINE",
"201 44 OFFCURVE",
"175 53 OFFCURVE",
"159 68 CURVE",
"280 248 LINE",
"397 61 LINE",
"383 47 OFFCURVE",
"365 41 OFFCURVE",
"341 40 CURVE",
"335 0 LINE",
"609 0 LINE",
"614 40 LINE",
"596 43 OFFCURVE",
"577 48 OFFCURVE",
"563 61 CURVE",
"373 365 LINE",
"530 599 LINE SMOOTH",
"540 613 OFFCURVE",
"559 622 OFFCURVE",
"593 624 CURVE",
"598 664 LINE",
"377 664 LINE",
"372 624 LINE",
"399 620 OFFCURVE",
"425 611 OFFCURVE",
"441 595 CURVE",
"332 432 LINE",
"224 606 LINE",
"238 620 OFFCURVE",
"255 626 OFFCURVE",
"280 627 CURVE",
"286 667 LINE",
"12 667 LINE",
"7 627 LINE",
"36 621 OFFCURVE",
"52 613 OFFCURVE",
"61 599 CURVE SMOOTH",
"238 315 LINE",
"69 65 LINE SMOOTH",
"58 48 OFFCURVE",
"33 41 OFFCURVE",
"7 40 CURVE",
"2 0 LINE"
);
}
);
width = 616;
}
);
leftKerningGroup = X;
rightKerningGroup = X;
unicode = 0058;
},
{
color = 4;
glyphname = Y;
lastChange = "2019-12-02 22:25:30 +0000";
layers = (
{
anchors = (
{
name = top;
position = "{288, 667}";
}
);
background = {
anchors = (
{
name = top;
position = "{288, 705}";
}
);
paths = (
{
closed = 1;
nodes = (
"422 0 LINE",
"426 37 LINE",
"391 41 OFFCURVE",
"354 47 OFFCURVE",
"324 64 CURVE",
"324 277 LINE",
"486 605 LINE",
"504 619 OFFCURVE",
"525 627 OFFCURVE",
"547 631 CURVE",
"553 667 LINE",
"333 667 LINE",
"331 655 OFFCURVE",
"329 643 OFFCURVE",
"328 631 CURVE",
"360 627 OFFCURVE",
"392 618 OFFCURVE",
"417 605 CURVE",
"289 343 LINE",
"164 604 LINE",
"192 620 OFFCURVE",
"221 627 OFFCURVE",
"251 631 CURVE",
"252 643 OFFCURVE",
"254 655 OFFCURVE",
"256 667 CURVE",
"9 667 LINE",
"4 631 LINE",
"27 626 OFFCURVE",
"51 616 OFFCURVE",
"66 605 CURVE",
"236 265 LINE",
"236 64 LINE",
"205 46 OFFCURVE",
"175 41 OFFCURVE",
"139 37 CURVE",
"134 0 LINE"
);
}
);
};
layerId = UUID0;
paths = (
{
closed = 1;
nodes = (
"422 0 LINE",
"426 37 LINE",
"391 41 OFFCURVE",
"354 47 OFFCURVE",
"324 64 CURVE",
"324 277 LINE",
"486 605 LINE",
"504 619 OFFCURVE",
"525 627 OFFCURVE",
"547 631 CURVE",
"553 667 LINE",
"333 667 LINE",
"328 631 LINE",
"360 627 OFFCURVE",
"392 618 OFFCURVE",
"417 605 CURVE",
"289 343 LINE",
"164 604 LINE",
"192 620 OFFCURVE",
"221 627 OFFCURVE",
"251 631 CURVE",
"256 667 LINE",
"9 667 LINE",
"4 631 LINE",
"27 626 OFFCURVE",
"51 616 OFFCURVE",
"66 605 CURVE",
"236 265 LINE",
"236 64 LINE",
"205 46 OFFCURVE",
"175 41 OFFCURVE",
"139 37 CURVE",
"134 0 LINE"
);
}
);
width = 557;
},
{
anchors = (
{
name = top;
position = "{314, 667}";
}
);
background = {
anchors = (
{
name = top;
position = "{314, 705}";
}
);
paths = (
{
closed = 1;
nodes = (
"397 46 OFFCURVE",
"371 57 OFFCURVE",
"356 71 CURVE",
"356 268 LINE",
"527 605 LINE",
"539 620 OFFCURVE",
"562 626 OFFCURVE",
"587 627 CURVE",
"592 667 LINE",
"368 667 LINE",
"363 627 LINE",
"394 623 OFFCURVE",
"425 613 OFFCURVE",
"443 597 CURVE",
"321 357 LINE",
"202 605 LINE",
"217 620 OFFCURVE",
"237 626 OFFCURVE",
"264 627 CURVE",
"270 667 LINE",
"-1 667 LINE",
"-6 627 LINE",
"17 622 OFFCURVE",
"42 615 OFFCURVE",
"54 593 CURVE SMOOTH",
"56 590 LINE SMOOTH",
"57 588 OFFCURVE",
"57 586 OFFCURVE",
"58 585 CURVE SMOOTH",
"209 269 LINE",
"209 66 LINE",
"199 55 OFFCURVE",
"173 44 OFFCURVE",
"152 41 CURVE",
"148 0 LINE",
"424 0 LINE",
"431 39 LINE"
);
}
);
};
layerId = "0EBA3A65-8808-4583-9AA2-2A9BC4F414AB";
paths = (
{
closed = 1;
nodes = (
"424 0 LINE",
"431 39 LINE",
"397 46 OFFCURVE",
"371 57 OFFCURVE",
"356 71 CURVE",
"356 268 LINE",
"524 600 LINE SMOOTH",
"532 615 OFFCURVE",
"553 626 OFFCURVE",
"587 627 CURVE",
"592 667 LINE",
"368 667 LINE",
"363 627 LINE",
"394 623 OFFCURVE",
"425 613 OFFCURVE",
"443 597 CURVE",
"321 357 LINE",
"202 605 LINE",
"217 620 OFFCURVE",
"237 626 OFFCURVE",
"264 627 CURVE",
"270 667 LINE",
"-1 667 LINE",
"-6 627 LINE",
"28 620 OFFCURVE",
"47 609 OFFCURVE",
"57 588 CURVE SMOOTH",
"209 269 LINE",
"209 66 LINE",
"199 55 OFFCURVE",
"173 44 OFFCURVE",
"152 41 CURVE",
"148 0 LINE"
);
}
);
width = 587;
}
);
leftKerningGroup = Y;
rightKerningGroup = Y;
unicode = 0059;
},
{
color = 4;
glyphname = Z;
lastChange = "2019-11-29 15:02:43 +0000";
layers = (
{
anchors = (
{
name = top;
position = "{276, 667}";
}
);
background = {
anchors = (
{
name = top;
position = "{276, 704}";
}
);
paths = (
{
closed = 1;
nodes = (
"477 182 OFFCURVE",
"470 183 OFFCURVE",
"462 183 CURVE SMOOTH",
"456 183 OFFCURVE",
"447 182 OFFCURVE",
"441 181 CURVE",
"428 132 OFFCURVE",
"404 87 OFFCURVE",
"375 52 CURVE",
"327 51 OFFCURVE",
"272 51 OFFCURVE",
"226 51 CURVE SMOOTH",
"190 51 OFFCURVE",
"157 51 OFFCURVE",
"130 52 CURVE",
"485 632 LINE",
"476 672 LINE",
"449 671 OFFCURVE",
"367 667 OFFCURVE",
"282 667 CURVE SMOOTH",
"180 667 OFFCURVE",
"60 672 OFFCURVE",
"60 672 CURVE",
"34 648 LINE",
"46 502 LINE",
"51 501 OFFCURVE",
"58 501 OFFCURVE",
"63 501 CURVE SMOOTH",
"70 501 OFFCURVE",
"78 502 OFFCURVE",
"84 502 CURVE",
"91 543 OFFCURVE",
"108 593 OFFCURVE",
"132 614 CURVE",
"177 615 OFFCURVE",
"234 616 OFFCURVE",
"281 616 CURVE SMOOTH",
"331 616 LINE SMOOTH",
"344 616 OFFCURVE",
"358 615 OFFCURVE",
"370 615 CURVE",
"24 46 LINE",
"27 -4 LINE",
"34 -3 OFFCURVE",
"127 0 OFFCURVE",
"225 0 CURVE SMOOTH",
"308 0 OFFCURVE",
"429 -1 OFFCURVE",
"475 -3 CURVE",
"484 181 LINE"
);
}
);
};
layerId = UUID0;
paths = (
{
closed = 1;
nodes = (
"34 -3 OFFCURVE",
"127 0 OFFCURVE",
"225 0 CURVE SMOOTH",
"308 0 OFFCURVE",
"429 -1 OFFCURVE",
"475 -3 CURVE",
"484 181 LINE",
"477 182 OFFCURVE",
"470 183 OFFCURVE",
"462 183 CURVE SMOOTH",
"456 183 OFFCURVE",
"447 182 OFFCURVE",
"441 181 CURVE",
"428 132 OFFCURVE",
"404 87 OFFCURVE",
"375 52 CURVE",
"330 51 OFFCURVE",
"160 51 OFFCURVE",
"130 52 CURVE",
"485 632 LINE",
"476 672 LINE",
"449 671 OFFCURVE",
"367 667 OFFCURVE",
"282 667 CURVE SMOOTH",
"180 667 OFFCURVE",
"60 672 OFFCURVE",
"60 672 CURVE",
"34 648 LINE",
"46 502 LINE",
"51 501 OFFCURVE",
"58 501 OFFCURVE",
"63 501 CURVE SMOOTH",
"70 501 OFFCURVE",
"78 502 OFFCURVE",
"84 502 CURVE",
"91 543 OFFCURVE",
"108 593 OFFCURVE",
"132 614 CURVE",
"177 615 OFFCURVE",
"207 616 OFFCURVE",
"254 616 CURVE SMOOTH",
"303 616 OFFCURVE",
"339 616 OFFCURVE",
"370 615 CURVE",
"24 46 LINE",
"27 -4 LINE"
);
}
);
width = 507;
},
{
anchors = (
{
name = top;
position = "{296, 667}";
}
);
background = {
anchors = (
{
name = top;
position = "{306, 704}";
}
);
paths = (
{
closed = 1;
nodes = (
"522 193 OFFCURVE",
"509 194 OFFCURVE",
"496 194 CURVE SMOOTH",
"483 194 OFFCURVE",
"468 193 OFFCURVE",
"456 190 CURVE",
"444 138 OFFCURVE",
"425 89 OFFCURVE",
"404 59 CURVE",
"196 59 LINE",
"531 631 LINE",
"521 669 LINE",
"445 667 OFFCURVE",
"371 667 OFFCURVE",
"298 667 CURVE SMOOTH",
"199 667 OFFCURVE",
"84 668 OFFCURVE",
"61 669 CURVE",
"24 637 LINE",
"36 490 LINE",
"52 485 OFFCURVE",
"69 482 OFFCURVE",
"86 482 CURVE SMOOTH",
"98 482 OFFCURVE",
"110 483 OFFCURVE",
"121 485 CURVE",
"130 541 OFFCURVE",
"145 594 OFFCURVE",
"157 609 CURVE",
"350 609 LINE",
"24 45 LINE",
"28 -2 LINE",
"65 0 OFFCURVE",
"192 0 OFFCURVE",
"257 0 CURVE SMOOTH",
"351 0 OFFCURVE",
"477 -2 OFFCURVE",
"522 -2 CURVE",
"531 191 LINE"
);
}
);
};
layerId = "0EBA3A65-8808-4583-9AA2-2A9BC4F414AB";
paths = (
{
closed = 1;
nodes = (
"65 0 OFFCURVE",
"192 0 OFFCURVE",
"257 0 CURVE SMOOTH",
"351 0 OFFCURVE",
"477 -2 OFFCURVE",
"522 -2 CURVE",
"531 191 LINE",
"522 193 OFFCURVE",
"509 194 OFFCURVE",
"496 194 CURVE SMOOTH",
"483 194 OFFCURVE",
"468 193 OFFCURVE",
"456 190 CURVE",
"444 138 OFFCURVE",
"425 89 OFFCURVE",
"404 59 CURVE",
"336 58 OFFCURVE",
"263 57 OFFCURVE",
"196 59 CURVE",
"531 631 LINE",
"521 669 LINE",
"445 667 OFFCURVE",
"371 667 OFFCURVE",
"298 667 CURVE SMOOTH",
"199 667 OFFCURVE",
"84 668 OFFCURVE",
"61 669 CURVE",
"24 637 LINE",
"36 490 LINE",
"52 485 OFFCURVE",
"69 482 OFFCURVE",
"86 482 CURVE SMOOTH",
"98 482 OFFCURVE",
"110 483 OFFCURVE",
"121 485 CURVE",
"130 541 OFFCURVE",
"145 594 OFFCURVE",
"157 609 CURVE",
"189 610 OFFCURVE",
"220 610 OFFCURVE",
"253 610 CURVE SMOOTH",
"285 610 OFFCURVE",
"317 610 OFFCURVE",
"350 609 CURVE",
"24 45 LINE",
"28 -2 LINE"
);
}
);
width = 554;
}
);
leftKerningGroup = Z;
rightKerningGroup = Z;
unicode = 005A;
},
{
color = 4;
glyphname = a;
lastChange = "2019-12-01 02:56:36 +0000";
layers = (
{
anchors = (
{
name = ogonek;
position = "{378, 0}";
},
{
name = top;
position = "{209, 467}";
}
);
background = {
anchors = (
{
name = ogonek;
position = "{446, 0}";
},
{
name = top;
position = "{213, 505}";
}
);
paths = (
{
closed = 1;
nodes = (
"421 40 OFFCURVE",
"392 52 OFFCURVE",
"380 61 CURVE",
"380 340 LINE SMOOTH",
"380 426 OFFCURVE",
"315 476 OFFCURVE",
"206 476 CURVE SMOOTH",
"103 476 OFFCURVE",
"38 432 OFFCURVE",
"38 364 CURVE SMOOTH",
"38 329 OFFCURVE",
"61 306 OFFCURVE",
"96 306 CURVE SMOOTH",
"133 306 OFFCURVE",
"153 323 OFFCURVE",
"153 354 CURVE",
"134 361 OFFCURVE",
"123 374 OFFCURVE",
"123 391 CURVE SMOOTH",
"123 419 OFFCURVE",
"153 436 OFFCURVE",
"206 436 CURVE SMOOTH",
"268 436 OFFCURVE",
"295 407 OFFCURVE",
"295 340 CURVE SMOOTH",
"295 259 LINE",
"213 253 LINE SMOOTH",
"91 245 OFFCURVE",
"26 194 OFFCURVE",
"26 107 CURVE SMOOTH",
"26 35 OFFCURVE",
"74 -7 OFFCURVE",
"156 -7 CURVE SMOOTH",
"210 -7 OFFCURVE",
"254 4 OFFCURVE",
"298 45 CURVE",
"308 0 LINE",
"446 0 LINE",
"450 34 LINE"
);
},
{
closed = 1;
nodes = (
"114 169 OFFCURVE",
"152 206 OFFCURVE",
"215 211 CURVE SMOOTH",
"295 218 LINE",
"295 92 LINE",
"252 51 OFFCURVE",
"219 34 OFFCURVE",
"181 34 CURVE SMOOTH",
"136 34 OFFCURVE",
"114 62 OFFCURVE",
"114 116 CURVE SMOOTH",
"114 116 LINE"
);
}
);
};
layerId = UUID0;
paths = (
{
closed = 1;
nodes = (
"210 -7 OFFCURVE",
"254 4 OFFCURVE",
"298 45 CURVE",
"308 0 LINE",
"446 0 LINE",
"450 34 LINE",
"421 40 OFFCURVE",
"392 52 OFFCURVE",
"380 61 CURVE",
"380 340 LINE SMOOTH",
"380 426 OFFCURVE",
"315 476 OFFCURVE",
"206 476 CURVE SMOOTH",
"103 476 OFFCURVE",
"38 432 OFFCURVE",
"38 364 CURVE SMOOTH",
"38 329 OFFCURVE",
"61 306 OFFCURVE",
"96 306 CURVE SMOOTH",
"133 306 OFFCURVE",
"153 323 OFFCURVE",
"153 354 CURVE",
"134 361 OFFCURVE",
"123 374 OFFCURVE",
"123 391 CURVE SMOOTH",
"123 419 OFFCURVE",
"153 436 OFFCURVE",
"206 436 CURVE SMOOTH",
"268 436 OFFCURVE",
"295 407 OFFCURVE",
"295 340 CURVE SMOOTH",
"295 259 LINE",
"213 253 LINE SMOOTH",
"91 245 OFFCURVE",
"26 194 OFFCURVE",
"26 107 CURVE SMOOTH",
"26 35 OFFCURVE",
"74 -7 OFFCURVE",
"156 -7 CURVE SMOOTH"
);
},
{
closed = 1;
nodes = (
"136 34 OFFCURVE",
"114 62 OFFCURVE",
"114 116 CURVE SMOOTH",
"114 169 OFFCURVE",
"152 206 OFFCURVE",
"215 211 CURVE SMOOTH",
"295 218 LINE",
"295 92 LINE",
"252 51 OFFCURVE",
"219 34 OFFCURVE",
"181 34 CURVE SMOOTH"
);
}
);
width = 470;
},
{
anchors = (
{
name = ogonek;
position = "{425, 0}";
},
{
name = top;
position = "{236, 484}";
}
);
background = {
anchors = (
{
name = ogonek;
position = "{504, 0}";
},
{
name = top;
position = "{256, 515}";
}
);
paths = (
{
closed = 1;
nodes = (
"482 40 OFFCURVE",
"457 52 OFFCURVE",
"448 62 CURVE",
"448 334 LINE SMOOTH",
"448 438 OFFCURVE",
"375 492 OFFCURVE",
"233 492 CURVE SMOOTH",
"115 492 OFFCURVE",
"43 449 OFFCURVE",
"43 378 CURVE SMOOTH",
"43 336 OFFCURVE",
"76 305 OFFCURVE",
"120 305 CURVE SMOOTH",
"156 305 OFFCURVE",
"183 327 OFFCURVE",
"190 360 CURVE",
"176 371 OFFCURVE",
"168 386 OFFCURVE",
"168 402 CURVE SMOOTH",
"168 431 OFFCURVE",
"196 453 OFFCURVE",
"233 453 CURVE SMOOTH",
"288 453 OFFCURVE",
"307 422 OFFCURVE",
"307 329 CURVE SMOOTH",
"307 271 LINE",
"219 265 LINE SMOOTH",
"89 256 OFFCURVE",
"22 205 OFFCURVE",
"22 118 CURVE SMOOTH",
"22 37 OFFCURVE",
"73 -7 OFFCURVE",
"165 -7 CURVE SMOOTH",
"223 -7 OFFCURVE",
"270 13 OFFCURVE",
"314 57 CURVE",
"324 0 LINE",
"504 0 LINE",
"508 35 LINE"
);
},
{
closed = 1;
nodes = (
"154 186 OFFCURVE",
"184 212 OFFCURVE",
"257 218 CURVE SMOOTH",
"307 222 LINE",
"307 113 LINE",
"274 74 OFFCURVE",
"244 58 OFFCURVE",
"214 58 CURVE SMOOTH",
"176 58 OFFCURVE",
"154 84 OFFCURVE",
"154 129 CURVE SMOOTH",
"154 129 LINE"
);
}
);
};
layerId = "0EBA3A65-8808-4583-9AA2-2A9BC4F414AB";
paths = (
{
closed = 1;
nodes = (
"223 -7 OFFCURVE",
"270 13 OFFCURVE",
"314 57 CURVE",
"324 0 LINE",
"504 0 LINE",
"508 35 LINE",
"482 40 OFFCURVE",
"457 52 OFFCURVE",
"448 62 CURVE",
"448 334 LINE SMOOTH",
"448 438 OFFCURVE",
"375 492 OFFCURVE",
"233 492 CURVE SMOOTH",
"115 492 OFFCURVE",
"43 449 OFFCURVE",
"43 378 CURVE SMOOTH",
"43 336 OFFCURVE",
"76 305 OFFCURVE",
"120 305 CURVE SMOOTH",
"156 305 OFFCURVE",
"183 327 OFFCURVE",
"190 360 CURVE",
"176 371 OFFCURVE",
"168 386 OFFCURVE",
"168 402 CURVE SMOOTH",
"168 431 OFFCURVE",
"196 453 OFFCURVE",
"233 453 CURVE SMOOTH",
"288 453 OFFCURVE",
"307 422 OFFCURVE",
"307 329 CURVE SMOOTH",
"307 271 LINE",
"219 265 LINE SMOOTH",
"89 256 OFFCURVE",
"22 205 OFFCURVE",
"22 118 CURVE SMOOTH",
"22 37 OFFCURVE",
"73 -7 OFFCURVE",
"165 -7 CURVE SMOOTH"
);
},
{
closed = 1;
nodes = (
"176 58 OFFCURVE",
"154 84 OFFCURVE",
"154 129 CURVE SMOOTH",
"154 186 OFFCURVE",
"184 212 OFFCURVE",
"257 218 CURVE SMOOTH",
"307 222 LINE",
"307 113 LINE",
"274 74 OFFCURVE",
"244 58 OFFCURVE",
"214 58 CURVE SMOOTH"
);
}
);
width = 525;
}
);
leftKerningGroup = a;
rightKerningGroup = n;
unicode = 0061;
},
{
color = 4;
glyphname = b;
lastChange = "2019-12-01 02:20:53 +0000";
layers = (
{
background = {
paths = (
{
closed = 1;
nodes = (
"74 631 OFFCURVE",
"92 617 OFFCURVE",
"92 567 CURVE SMOOTH",
"92 0 LINE",
"140 0 LINE",
"144 16 OFFCURVE",
"150 27 OFFCURVE",
"160 42 CURVE",
"188 16 OFFCURVE",
"227 -7 OFFCURVE",
"276 -7 CURVE SMOOTH",
"420 -7 OFFCURVE",
"492 98 OFFCURVE",
"492 237 CURVE SMOOTH",
"492 376 OFFCURVE",
"438 476 OFFCURVE",
"296 476 CURVE SMOOTH",
"246 476 OFFCURVE",
"198 444 OFFCURVE",
"178 406 CURVE",
"178 687 LINE",
"158 697 LINE",
"117 685 OFFCURVE",
"70 670 OFFCURVE",
"25 663 CURVE",
"22 633 LINE"
);
},
{
closed = 1;
nodes = (
"401 144 OFFCURVE",
"388 35 OFFCURVE",
"281 35 CURVE SMOOTH",
"238 35 OFFCURVE",
"204 62 OFFCURVE",
"178 85 CURVE",
"178 205 LINE SMOOTH",
"178 315 OFFCURVE",
"190 433 OFFCURVE",
"298 433 CURVE SMOOTH",
"392 433 OFFCURVE",
"401 339 OFFCURVE",
"401 237 CURVE SMOOTH",
"401 237 LINE"
);
}
);
};
layerId = UUID0;
paths = (
{
closed = 1;
nodes = (
"420 -7 OFFCURVE",
"492 98 OFFCURVE",
"492 237 CURVE SMOOTH",
"492 376 OFFCURVE",
"438 476 OFFCURVE",
"296 476 CURVE SMOOTH",
"246 476 OFFCURVE",
"198 444 OFFCURVE",
"178 406 CURVE",
"178 687 LINE",
"158 697 LINE",
"117 685 OFFCURVE",
"70 670 OFFCURVE",
"25 663 CURVE",
"22 633 LINE",
"74 631 OFFCURVE",
"92 617 OFFCURVE",
"92 567 CURVE SMOOTH",
"92 0 LINE",
"140 0 LINE",
"144 16 OFFCURVE",
"150 27 OFFCURVE",
"160 42 CURVE",
"188 16 OFFCURVE",
"227 -7 OFFCURVE",
"276 -7 CURVE SMOOTH"
);
},
{
closed = 1;
nodes = (
"238 35 OFFCURVE",
"204 62 OFFCURVE",
"178 85 CURVE",
"178 205 LINE SMOOTH",
"178 315 OFFCURVE",
"190 433 OFFCURVE",
"298 433 CURVE SMOOTH",
"392 433 OFFCURVE",
"401 339 OFFCURVE",
"401 237 CURVE SMOOTH",
"401 144 OFFCURVE",
"388 35 OFFCURVE",
"281 35 CURVE SMOOTH"
);
}
);
width = 520;
},
{
background = {
paths = (
{
closed = 1;
nodes = (
"297 492 OFFCURVE",
"252 469 OFFCURVE",
"223 425 CURVE",
"223 687 LINE",
"206 697 LINE",
"167 686 OFFCURVE",
"65 671 OFFCURVE",
"22 663 CURVE",
"20 624 LINE",
"65 622 OFFCURVE",
"82 608 OFFCURVE",
"82 558 CURVE SMOOTH",
"82 0 LINE",
"157 0 LINE",
"183 25 LINE",
"223 3 OFFCURVE",
"268 -7 OFFCURVE",
"317 -7 CURVE SMOOTH",
"457 -7 OFFCURVE",
"543 83 OFFCURVE",
"543 258 CURVE SMOOTH",
"543 411 OFFCURVE",
"477 492 OFFCURVE",
"359 492 CURVE SMOOTH",
"359 492 LINE"
);
},
{
closed = 1;
nodes = (
"371 432 OFFCURVE",
"397 376 OFFCURVE",
"397 256 CURVE SMOOTH",
"397 121 OFFCURVE",
"364 46 OFFCURVE",
"289 46 CURVE SMOOTH",
"262 46 OFFCURVE",
"237 55 OFFCURVE",
"223 65 CURVE",
"223 268 LINE SMOOTH",
"223 377 OFFCURVE",
"258 432 OFFCURVE",
"314 432 CURVE SMOOTH",
"314 432 LINE"
);
}
);
};
layerId = "0EBA3A65-8808-4583-9AA2-2A9BC4F414AB";
paths = (
{
closed = 1;
nodes = (
"457 -7 OFFCURVE",
"543 83 OFFCURVE",
"543 258 CURVE SMOOTH",
"543 411 OFFCURVE",
"477 492 OFFCURVE",
"359 492 CURVE SMOOTH",
"297 492 OFFCURVE",
"252 469 OFFCURVE",
"223 425 CURVE",
"223 687 LINE",
"206 697 LINE",
"167 686 OFFCURVE",
"65 671 OFFCURVE",
"22 663 CURVE",
"20 624 LINE",
"65 622 OFFCURVE",
"82 608 OFFCURVE",
"82 558 CURVE SMOOTH",
"82 0 LINE",
"157 0 LINE",
"164 9 OFFCURVE",
"173 18 OFFCURVE",
"183 25 CURVE",
"223 3 OFFCURVE",
"268 -7 OFFCURVE",
"317 -7 CURVE SMOOTH"
);
},
{
closed = 1;
nodes = (
"262 46 OFFCURVE",
"237 55 OFFCURVE",
"223 65 CURVE",
"223 268 LINE SMOOTH",
"223 377 OFFCURVE",
"258 432 OFFCURVE",
"314 432 CURVE SMOOTH",
"371 432 OFFCURVE",
"397 376 OFFCURVE",
"397 256 CURVE SMOOTH",
"397 121 OFFCURVE",
"364 46 OFFCURVE",
"289 46 CURVE SMOOTH"
);
}
);
width = 568;
}
);
leftKerningGroup = b;
rightKerningGroup = o;
unicode = 0062;
},
{
color = 4;
glyphname = c;
lastChange = "2019-12-01 02:21:37 +0000";
layers = (
{
anchors = (
{
name = cedilla;
position = "{237, 0}";
},
{
name = top;
position = "{232, 467}";
}
);
background = {
anchors = (
{
name = cedilla;
position = "{237, 0}";
},
{
name = top;
position = "{212, 505}";
}
);
paths = (
{
closed = 1;
nodes = (
"28 82 OFFCURVE",
"83 -7 OFFCURVE",
"239 -7 CURVE SMOOTH",
"334 -7 OFFCURVE",
"397 59 OFFCURVE",
"397 59 CURVE",
"371 89 LINE",
"371 89 OFFCURVE",
"319 42 OFFCURVE",
"244 42 CURVE SMOOTH",
"133 42 OFFCURVE",
"121 126 OFFCURVE",
"121 238 CURVE SMOOTH",
"121 344 OFFCURVE",
"139 440 OFFCURVE",
"243 440 CURVE SMOOTH",
"280 440 OFFCURVE",
"305 417 OFFCURVE",
"305 383 CURVE SMOOTH",
"305 372 OFFCURVE",
"300 360 OFFCURVE",
"292 347 CURVE",
"298 326 OFFCURVE",
"319 311 OFFCURVE",
"344 311 CURVE SMOOTH",
"373 311 OFFCURVE",
"397 339 OFFCURVE",
"397 370 CURVE SMOOTH",
"397 433 OFFCURVE",
"335 476 OFFCURVE",
"243 476 CURVE SMOOTH",
"103 476 OFFCURVE",
"30 395 OFFCURVE",
"28 238 CURVE",
"28 238 LINE"
);
}
);
};
layerId = UUID0;
paths = (
{
closed = 1;
nodes = (
"334 -7 OFFCURVE",
"397 59 OFFCURVE",
"397 59 CURVE",
"371 89 LINE",
"371 89 OFFCURVE",
"319 42 OFFCURVE",
"244 42 CURVE SMOOTH",
"133 42 OFFCURVE",
"121 126 OFFCURVE",
"121 238 CURVE SMOOTH",
"121 344 OFFCURVE",
"139 440 OFFCURVE",
"243 440 CURVE SMOOTH",
"280 440 OFFCURVE",
"305 417 OFFCURVE",
"305 383 CURVE SMOOTH",
"305 372 OFFCURVE",
"300 360 OFFCURVE",
"292 347 CURVE",
"298 326 OFFCURVE",
"319 311 OFFCURVE",
"344 311 CURVE SMOOTH",
"373 311 OFFCURVE",
"397 339 OFFCURVE",
"397 370 CURVE SMOOTH",
"397 433 OFFCURVE",
"335 476 OFFCURVE",
"243 476 CURVE SMOOTH",
"103 476 OFFCURVE",
"30 395 OFFCURVE",
"28 238 CURVE SMOOTH",
"28 82 OFFCURVE",
"83 -7 OFFCURVE",
"239 -7 CURVE SMOOTH"
);
}
);
width = 421;
},
{
anchors = (
{
name = cedilla;
position = "{252, 0}";
},
{
name = top;
position = "{267, 484}";
}
);
background = {
anchors = (
{
name = cedilla;
position = "{252, 0}";
},
{
name = top;
position = "{267, 515}";
}
);
paths = (
{
closed = 1;
nodes = (
"331 -7 OFFCURVE",
"400 21 OFFCURVE",
"445 68 CURVE",
"409 104 LINE",
"371 69 OFFCURVE",
"329 51 OFFCURVE",
"287 51 CURVE SMOOTH",
"204 51 OFFCURVE",
"172 106 OFFCURVE",
"172 248 CURVE SMOOTH",
"172 377 OFFCURVE",
"199 443 OFFCURVE",
"252 443 CURVE SMOOTH",
"280 443 OFFCURVE",
"301 425 OFFCURVE",
"301 400 CURVE SMOOTH",
"301 386 OFFCURVE",
"297 372 OFFCURVE",
"289 360 CURVE",
"297 336 OFFCURVE",
"326 318 OFFCURVE",
"357 318 CURVE SMOOTH",
"401 318 OFFCURVE",
"435 348 OFFCURVE",
"435 387 CURVE SMOOTH",
"435 447 OFFCURVE",
"364 489 OFFCURVE",
"261 489 CURVE SMOOTH",
"107 489 OFFCURVE",
"25 401 OFFCURVE",
"25 236 CURVE SMOOTH",
"25 77 OFFCURVE",
"106 -7 OFFCURVE",
"262 -7 CURVE SMOOTH",
"262 -7 LINE"
);
}
);
};
layerId = "0EBA3A65-8808-4583-9AA2-2A9BC4F414AB";
paths = (
{
closed = 1;
nodes = (
"331 -7 OFFCURVE",
"400 21 OFFCURVE",
"445 68 CURVE",
"409 104 LINE",
"371 69 OFFCURVE",
"329 51 OFFCURVE",
"287 51 CURVE SMOOTH",
"204 51 OFFCURVE",
"172 106 OFFCURVE",
"172 248 CURVE SMOOTH",
"172 377 OFFCURVE",
"199 443 OFFCURVE",
"252 443 CURVE SMOOTH",
"280 443 OFFCURVE",
"301 425 OFFCURVE",
"301 400 CURVE SMOOTH",
"301 386 OFFCURVE",
"297 372 OFFCURVE",
"289 360 CURVE",
"297 336 OFFCURVE",
"326 318 OFFCURVE",
"357 318 CURVE SMOOTH",
"401 318 OFFCURVE",
"435 348 OFFCURVE",
"435 387 CURVE SMOOTH",
"435 447 OFFCURVE",
"364 489 OFFCURVE",
"261 489 CURVE SMOOTH",
"107 489 OFFCURVE",
"25 401 OFFCURVE",
"25 236 CURVE SMOOTH",
"25 77 OFFCURVE",
"106 -7 OFFCURVE",
"262 -7 CURVE SMOOTH"
);
}
);
width = 450;
}
);
leftKerningGroup = o;
rightKerningGroup = c;
unicode = 0063;
},
{
color = 4;
glyphname = d;
lastChange = "2019-12-10 01:07:18 +0000";
layers = (
{
anchors = (
{
name = top_right;
position = "{480, 667}";
}
);
background = {
paths = (
{
closed = 1;
nodes = (
"269 -7 OFFCURVE",
"311 15 OFFCURVE",
"339 59 CURVE",
"347 0 LINE",
"491 0 LINE",
"494 34 LINE",
"465 40 OFFCURVE",
"441 49 OFFCURVE",
"425 61 CURVE",
"425 687 LINE",
"405 697 LINE",
"364 685 OFFCURVE",
"317 670 OFFCURVE",
"272 662 CURVE",
"270 633 LINE",
"321 631 OFFCURVE",
"339 617 OFFCURVE",
"339 567 CURVE SMOOTH",
"339 459 LINE",
"312 470 OFFCURVE",
"286 476 OFFCURVE",
"254 476 CURVE SMOOTH",
"108 476 OFFCURVE",
"28 388 OFFCURVE",
"28 224 CURVE SMOOTH",
"28 71 OFFCURVE",
"90 -7 OFFCURVE",
"211 -7 CURVE SMOOTH",
"211 -7 LINE"
);
},
{
closed = 1;
nodes = (
"149 36 OFFCURVE",
"116 95 OFFCURVE",
"116 224 CURVE SMOOTH",
"116 357 OFFCURVE",
"166 434 OFFCURVE",
"251 434 CURVE SMOOTH",
"296 434 OFFCURVE",
"320 424 OFFCURVE",
"339 414 CURVE",
"339 224 LINE SMOOTH",
"339 98 OFFCURVE",
"297 36 OFFCURVE",
"220 36 CURVE SMOOTH",
"220 36 LINE"
);
}
);
};
layerId = UUID0;
paths = (
{
closed = 1;
nodes = (
"269 -7 OFFCURVE",
"311 15 OFFCURVE",
"339 59 CURVE",
"347 0 LINE",
"491 0 LINE",
"494 34 LINE",
"465 40 OFFCURVE",
"441 49 OFFCURVE",
"425 61 CURVE",
"425 687 LINE",
"405 697 LINE",
"364 685 OFFCURVE",
"317 670 OFFCURVE",
"272 662 CURVE",
"270 633 LINE",
"321 631 OFFCURVE",
"339 617 OFFCURVE",
"339 567 CURVE SMOOTH",
"339 459 LINE",
"312 470 OFFCURVE",
"286 476 OFFCURVE",
"254 476 CURVE SMOOTH",
"108 476 OFFCURVE",
"28 388 OFFCURVE",
"28 224 CURVE SMOOTH",
"28 71 OFFCURVE",
"90 -7 OFFCURVE",
"211 -7 CURVE SMOOTH"
);
},
{
closed = 1;
nodes = (
"149 36 OFFCURVE",
"116 95 OFFCURVE",
"116 224 CURVE SMOOTH",
"116 357 OFFCURVE",
"166 434 OFFCURVE",
"251 434 CURVE SMOOTH",
"296 434 OFFCURVE",
"320 424 OFFCURVE",
"339 414 CURVE",
"339 224 LINE SMOOTH",
"339 98 OFFCURVE",
"297 36 OFFCURVE",
"220 36 CURVE SMOOTH"
);
}
);
width = 520;
},
{
anchors = (
{
name = top_right;
position = "{537, 662}";
}
);
background = {
paths = (
{
closed = 1;
nodes = (
"521 40 OFFCURVE",
"497 52 OFFCURVE",
"486 62 CURVE",
"486 687 LINE",
"469 697 LINE",
"429 686 OFFCURVE",
"322 671 OFFCURVE",
"278 663 CURVE",
"275 624 LINE",
"327 622 OFFCURVE",
"345 608 OFFCURVE",
"345 558 CURVE SMOOTH",
"345 468 LINE",
"316 483 OFFCURVE",
"289 492 OFFCURVE",
"246 492 CURVE SMOOTH",
"106 492 OFFCURVE",
"25 401 OFFCURVE",
"25 229 CURVE SMOOTH",
"25 73 OFFCURVE",
"91 -7 OFFCURVE",
"209 -7 CURVE SMOOTH",
"274 -7 OFFCURVE",
"320 17 OFFCURVE",
"349 65 CURVE",
"362 0 LINE",
"542 0 LINE",
"546 35 LINE"
);
},
{
closed = 1;
nodes = (
"345 114 OFFCURVE",
"313 53 OFFCURVE",
"254 53 CURVE SMOOTH",
"197 53 OFFCURVE",
"171 109 OFFCURVE",
"171 229 CURVE SMOOTH",
"171 364 OFFCURVE",
"205 438 OFFCURVE",
"280 438 CURVE SMOOTH",
"306 438 OFFCURVE",
"331 429 OFFCURVE",
"345 419 CURVE",
"345 234 LINE"
);
}
);
};
layerId = "0EBA3A65-8808-4583-9AA2-2A9BC4F414AB";
paths = (
{
closed = 1;
nodes = (
"274 -7 OFFCURVE",
"320 17 OFFCURVE",
"349 65 CURVE",
"362 0 LINE",
"542 0 LINE",
"546 35 LINE",
"521 40 OFFCURVE",
"497 52 OFFCURVE",
"486 62 CURVE",
"486 687 LINE",
"469 697 LINE",
"429 686 OFFCURVE",
"322 671 OFFCURVE",
"278 663 CURVE",
"275 624 LINE",
"327 622 OFFCURVE",
"345 608 OFFCURVE",
"345 558 CURVE SMOOTH",
"345 468 LINE",
"316 483 OFFCURVE",
"289 492 OFFCURVE",
"246 492 CURVE SMOOTH",
"106 492 OFFCURVE",
"25 401 OFFCURVE",
"25 229 CURVE SMOOTH",
"25 73 OFFCURVE",
"91 -7 OFFCURVE",
"209 -7 CURVE SMOOTH"
);
},
{
closed = 1;
nodes = (
"197 53 OFFCURVE",
"171 109 OFFCURVE",
"171 229 CURVE SMOOTH",
"171 364 OFFCURVE",
"205 438 OFFCURVE",
"280 438 CURVE SMOOTH",
"306 438 OFFCURVE",
"331 429 OFFCURVE",
"345 419 CURVE",
"345 234 LINE SMOOTH",
"345 114 OFFCURVE",
"313 53 OFFCURVE",
"254 53 CURVE SMOOTH"
);
}
);
width = 570;
}
);
leftKerningGroup = o;
rightKerningGroup = d;
unicode = 0064;
},
{
color = 4;
glyphname = e;
lastChange = "2019-12-01 02:23:49 +0000";
layers = (
{
anchors = (
{
name = ogonek;
position = "{351, 0}";
},
{
name = top;
position = "{223, 467}";
}
);
background = {
anchors = (
{
name = ogonek;
position = "{342, 20}";
},
{
name = top;
position = "{223, 505}";
}
);
paths = (
{
closed = 1;
nodes = (
"419 270 LINE",
"415 396 OFFCURVE",
"377 476 OFFCURVE",
"237 476 CURVE SMOOTH",
"98 476 OFFCURVE",
"28 383 OFFCURVE",
"28 238 CURVE SMOOTH",
"28 82 OFFCURVE",
"82 -7 OFFCURVE",
"239 -7 CURVE SMOOTH",
"333 -7 OFFCURVE",
"396 59 OFFCURVE",
"396 59 CURVE",
"371 89 LINE",
"371 89 OFFCURVE",
"318 42 OFFCURVE",
"243 42 CURVE SMOOTH",
"131 42 OFFCURVE",
"120 126 OFFCURVE",
"120 238 CURVE SMOOTH",
"120 243 LINE",
"398 243 LINE"
);
},
{
closed = 1;
nodes = (
"309 436 OFFCURVE",
"329 387 OFFCURVE",
"329 287 CURVE SMOOTH",
"329 287 OFFCURVE",
"199 281 OFFCURVE",
"120 280 CURVE",
"122 371 OFFCURVE",
"153 436 OFFCURVE",
"233 436 CURVE SMOOTH",
"233 436 LINE"
);
}
);
};
layerId = UUID0;
paths = (
{
closed = 1;
nodes = (
"321 -7 OFFCURVE",
"378 42 OFFCURVE",
"396 59 CURVE",
"371 89 LINE",
"353 75 OFFCURVE",
"305 42 OFFCURVE",
"243 42 CURVE SMOOTH",
"131 42 OFFCURVE",
"120 126 OFFCURVE",
"120 238 CURVE SMOOTH",
"120 243 LINE",
"398 243 LINE",
"419 270 LINE",
"415 396 OFFCURVE",
"377 476 OFFCURVE",
"237 476 CURVE SMOOTH",
"98 476 OFFCURVE",
"28 383 OFFCURVE",
"28 238 CURVE SMOOTH",
"28 82 OFFCURVE",
"82 -7 OFFCURVE",
"237 -7 CURVE SMOOTH"
);
},
{
closed = 1;
nodes = (
"122 371 OFFCURVE",
"153 436 OFFCURVE",
"233 436 CURVE SMOOTH",
"309 436 OFFCURVE",
"329 387 OFFCURVE",
"329 287 CURVE",
"120 280 LINE"
);
}
);
width = 441;
},
{
anchors = (
{
name = ogonek;
position = "{404, 0}";
},
{
name = top;
position = "{256, 484}";
}
);
background = {
anchors = (
{
name = ogonek;
position = "{396, 25}";
},
{
name = top;
position = "{272, 515}";
}
);
paths = (
{
closed = 1;
nodes = (
"471 413 OFFCURVE",
"424 492 OFFCURVE",
"266 492 CURVE SMOOTH",
"107 492 OFFCURVE",
"25 393 OFFCURVE",
"25 238 CURVE SMOOTH",
"25 91 OFFCURVE",
"98 -7 OFFCURVE",
"258 -7 CURVE SMOOTH",
"363 -7 OFFCURVE",
"414 32 OFFCURVE",
"460 78 CURVE",
"420 117 LINE",
"382 78 OFFCURVE",
"330 62 OFFCURVE",
"282 62 CURVE SMOOTH",
"189 62 OFFCURVE",
"168 123 OFFCURVE",
"168 227 CURVE SMOOTH",
"168 243 LINE",
"450 243 LINE",
"478 285 LINE"
);
},
{
closed = 1;
nodes = (
"320 443 OFFCURVE",
"336 393 OFFCURVE",
"336 291 CURVE SMOOTH",
"336 291 OFFCURVE",
"240 285 OFFCURVE",
"168 283 CURVE",
"170 376 OFFCURVE",
"194 443 OFFCURVE",
"262 443 CURVE SMOOTH",
"262 443 LINE"
);
}
);
};
layerId = "0EBA3A65-8808-4583-9AA2-2A9BC4F414AB";
paths = (
{
closed = 1;
nodes = (
"363 -7 OFFCURVE",
"414 32 OFFCURVE",
"460 78 CURVE",
"420 117 LINE",
"382 78 OFFCURVE",
"330 62 OFFCURVE",
"282 62 CURVE SMOOTH",
"189 62 OFFCURVE",
"168 123 OFFCURVE",
"168 227 CURVE SMOOTH",
"168 243 LINE",
"450 243 LINE",
"478 285 LINE",
"471 413 OFFCURVE",
"424 492 OFFCURVE",
"266 492 CURVE SMOOTH",
"107 492 OFFCURVE",
"25 393 OFFCURVE",
"25 238 CURVE SMOOTH",
"25 91 OFFCURVE",
"98 -7 OFFCURVE",
"258 -7 CURVE SMOOTH"
);
},
{
closed = 1;
nodes = (
"170 376 OFFCURVE",
"194 443 OFFCURVE",
"262 443 CURVE SMOOTH",
"320 443 OFFCURVE",
"336 393 OFFCURVE",
"336 291 CURVE",
"168 283 LINE"
);
}
);
width = 513;
}
);
leftKerningGroup = o;
rightKerningGroup = e;
unicode = 0065;
},
{
color = 4;
glyphname = f;
lastChange = "2019-11-29 02:38:30 +0000";
layers = (
{
background = {
paths = (
{
closed = 1;
nodes = (
"232 40 OFFCURVE",
"202 49 OFFCURVE",
"185 62 CURVE",
"185 417 LINE",
"289 417 LINE",
"289 470 LINE",
"185 470 LINE",
"185 507 OFFCURVE",
"173 555 OFFCURVE",
"173 590 CURVE SMOOTH",
"173 633 OFFCURVE",
"188 672 OFFCURVE",
"238 672 CURVE SMOOTH",
"270 672 OFFCURVE",
"288 655 OFFCURVE",
"288 635 CURVE SMOOTH",
"288 623 OFFCURVE",
"282 610 OFFCURVE",
"270 598 CURVE",
"274 573 OFFCURVE",
"294 560 OFFCURVE",
"315 560 CURVE SMOOTH",
"340 560 OFFCURVE",
"367 579 OFFCURVE",
"367 622 CURVE SMOOTH",
"367 676 OFFCURVE",
"309 709 OFFCURVE",
"245 709 CURVE SMOOTH",
"137 709 OFFCURVE",
"100 625 OFFCURVE",
"100 524 CURVE SMOOTH",
"100 470 LINE",
"72 458 OFFCURVE",
"44 454 OFFCURVE",
"21 452 CURVE",
"26 417 LINE",
"100 417 LINE",
"100 62 LINE",
"80 46 OFFCURVE",
"64 41 OFFCURVE",
"34 36 CURVE",
"30 0 LINE",
"258 0 LINE",
"261 34 LINE"
);
}
);
};
layerId = UUID0;
paths = (
{
closed = 1;
nodes = (
"258 0 LINE",
"261 34 LINE",
"232 40 OFFCURVE",
"202 49 OFFCURVE",
"185 62 CURVE",
"185 417 LINE",
"289 417 LINE",
"289 470 LINE",
"185 470 LINE",
"185 507 OFFCURVE",
"173 555 OFFCURVE",
"173 590 CURVE SMOOTH",
"173 633 OFFCURVE",
"188 672 OFFCURVE",
"238 672 CURVE SMOOTH",
"270 672 OFFCURVE",
"288 655 OFFCURVE",
"288 635 CURVE SMOOTH",
"288 623 OFFCURVE",
"282 610 OFFCURVE",
"270 598 CURVE",
"274 573 OFFCURVE",
"294 560 OFFCURVE",
"315 560 CURVE SMOOTH",
"340 560 OFFCURVE",
"367 579 OFFCURVE",
"367 622 CURVE SMOOTH",
"367 676 OFFCURVE",
"309 709 OFFCURVE",
"245 709 CURVE SMOOTH",
"137 709 OFFCURVE",
"100 625 OFFCURVE",
"100 524 CURVE SMOOTH",
"100 470 LINE",
"72 458 OFFCURVE",
"44 454 OFFCURVE",
"21 452 CURVE",
"26 417 LINE",
"100 417 LINE",
"100 62 LINE",
"80 46 OFFCURVE",
"64 41 OFFCURVE",
"34 36 CURVE",
"30 0 LINE"
);
}
);
width = 313;
},
{
background = {
paths = (
{
closed = 1;
nodes = (
"284 40 OFFCURVE",
"250 49 OFFCURVE",
"231 62 CURVE",
"231 415 LINE",
"335 415 LINE",
"335 478 LINE",
"231 478 LINE",
"231 511 OFFCURVE",
"211 555 OFFCURVE",
"211 588 CURVE SMOOTH",
"211 627 OFFCURVE",
"224 670 OFFCURVE",
"269 670 CURVE SMOOTH",
"297 670 OFFCURVE",
"311 655 OFFCURVE",
"311 631 CURVE SMOOTH",
"311 617 OFFCURVE",
"304 602 OFFCURVE",
"291 591 CURVE",
"297 564 OFFCURVE",
"323 548 OFFCURVE",
"350 548 CURVE SMOOTH",
"381 548 OFFCURVE",
"413 568 OFFCURVE",
"413 615 CURVE SMOOTH",
"413 684 OFFCURVE",
"329 709 OFFCURVE",
"275 709 CURVE SMOOTH",
"162 709 OFFCURVE",
"90 628 OFFCURVE",
"90 522 CURVE SMOOTH",
"90 478 LINE",
"65 467 OFFCURVE",
"30 459 OFFCURVE",
"6 455 CURVE",
"11 415 LINE",
"90 415 LINE",
"90 62 LINE",
"70 46 OFFCURVE",
"54 41 OFFCURVE",
"24 36 CURVE",
"20 0 LINE",
"314 0 LINE",
"317 34 LINE"
);
}
);
};
layerId = "0EBA3A65-8808-4583-9AA2-2A9BC4F414AB";
paths = (
{
closed = 1;
nodes = (
"314 0 LINE",
"317 34 LINE",
"284 40 OFFCURVE",
"250 49 OFFCURVE",
"231 62 CURVE",
"231 415 LINE",
"335 415 LINE",
"335 478 LINE",
"231 478 LINE",
"231 511 OFFCURVE",
"211 555 OFFCURVE",
"211 588 CURVE SMOOTH",
"211 627 OFFCURVE",
"224 670 OFFCURVE",
"269 670 CURVE SMOOTH",
"297 670 OFFCURVE",
"311 655 OFFCURVE",
"311 631 CURVE SMOOTH",
"311 617 OFFCURVE",
"304 602 OFFCURVE",
"291 591 CURVE",
"297 564 OFFCURVE",
"323 548 OFFCURVE",
"350 548 CURVE SMOOTH",
"381 548 OFFCURVE",
"413 568 OFFCURVE",
"413 615 CURVE SMOOTH",
"413 684 OFFCURVE",
"329 709 OFFCURVE",
"275 709 CURVE SMOOTH",
"162 709 OFFCURVE",
"90 628 OFFCURVE",
"90 522 CURVE SMOOTH",
"90 478 LINE",
"65 467 OFFCURVE",
"30 459 OFFCURVE",
"6 455 CURVE",
"11 415 LINE",
"90 415 LINE",
"90 62 LINE",
"70 46 OFFCURVE",
"54 41 OFFCURVE",
"24 36 CURVE",
"20 0 LINE"
);
}
);
width = 335;
}
);
leftKerningGroup = f;
rightKerningGroup = f;
unicode = 0066;
},
{
color = 4;
glyphname = g;
lastChange = "2019-11-29 20:49:58 +0000";
layers = (
{
anchors = (
{
name = top;
position = "{221, 467}";
}
);
background = {
anchors = (
{
name = top;
position = "{234, 505}";
}
);
paths = (
{
closed = 1;
nodes = (
"96 475 OFFCURVE",
"35 417 OFFCURVE",
"35 308 CURVE SMOOTH",
"35 228 OFFCURVE",
"80 172 OFFCURVE",
"159 153 CURVE",
"77 95 LINE",
"77 67 OFFCURVE",
"85 44 OFFCURVE",
"99 28 CURVE",
"46 -1 OFFCURVE",
"22 -22 OFFCURVE",
"22 -93 CURVE SMOOTH",
"22 -168 OFFCURVE",
"90 -219 OFFCURVE",
"235 -219 CURVE SMOOTH",
"380 -219 OFFCURVE",
"447 -168 OFFCURVE",
"447 -80 CURVE SMOOTH",
"447 -2 OFFCURVE",
"399 67 OFFCURVE",
"268 67 CURVE SMOOTH",
"226 67 LINE SMOOTH",
"178 68 OFFCURVE",
"165 76 OFFCURVE",
"162 95 CURVE",
"204 147 LINE",
"218 147 LINE SMOOTH",
"332 147 OFFCURVE",
"402 210 OFFCURVE",
"402 308 CURVE SMOOTH",
"402 356 OFFCURVE",
"390 395 OFFCURVE",
"365 423 CURVE",
"411 439 OFFCURVE",
"435 470 OFFCURVE",
"435 510 CURVE SMOOTH",
"435 540 OFFCURVE",
"415 560 OFFCURVE",
"385 560 CURVE SMOOTH",
"356 560 OFFCURVE",
"338 546 OFFCURVE",
"338 526 CURVE",
"355 518 OFFCURVE",
"366 504 OFFCURVE",
"366 490 CURVE SMOOTH",
"366 471 OFFCURVE",
"353 458 OFFCURVE",
"330 451 CURVE",
"301 467 OFFCURVE",
"264 475 OFFCURVE",
"218 475 CURVE SMOOTH",
"218 475 LINE"
);
},
{
closed = 1;
nodes = (
"152 188 OFFCURVE",
"125 225 OFFCURVE",
"125 311 CURVE SMOOTH",
"125 398 OFFCURVE",
"153 435 OFFCURVE",
"218 435 CURVE SMOOTH",
"283 435 OFFCURVE",
"311 398 OFFCURVE",
"311 311 CURVE SMOOTH",
"311 225 OFFCURVE",
"284 188 OFFCURVE",
"218 188 CURVE SMOOTH",
"218 188 LINE"
);
},
{
closed = 1;
nodes = (
"314 -1 OFFCURVE",
"355 -23 OFFCURVE",
"355 -80 CURVE SMOOTH",
"355 -147 OFFCURVE",
"313 -178 OFFCURVE",
"235 -178 CURVE SMOOTH",
"157 -178 OFFCURVE",
"114 -146 OFFCURVE",
"114 -80 CURVE SMOOTH",
"114 -47 OFFCURVE",
"130 -20 OFFCURVE",
"159 -1 CURVE",
"244 -1 LINE"
);
}
);
};
layerId = UUID0;
paths = (
{
closed = 1;
nodes = (
"380 -219 OFFCURVE",
"447 -168 OFFCURVE",
"447 -80 CURVE SMOOTH",
"447 -2 OFFCURVE",
"399 67 OFFCURVE",
"268 67 CURVE SMOOTH",
"226 67 LINE SMOOTH",
"178 68 OFFCURVE",
"165 76 OFFCURVE",
"162 95 CURVE",
"204 147 LINE",
"218 147 LINE SMOOTH",
"332 147 OFFCURVE",
"402 210 OFFCURVE",
"402 308 CURVE SMOOTH",
"402 356 OFFCURVE",
"390 395 OFFCURVE",
"365 423 CURVE",
"411 439 OFFCURVE",
"435 470 OFFCURVE",
"435 510 CURVE SMOOTH",
"435 540 OFFCURVE",
"415 560 OFFCURVE",
"385 560 CURVE SMOOTH",
"356 560 OFFCURVE",
"338 546 OFFCURVE",
"338 526 CURVE",
"355 518 OFFCURVE",
"366 504 OFFCURVE",
"366 490 CURVE SMOOTH",
"366 471 OFFCURVE",
"353 458 OFFCURVE",
"330 451 CURVE",
"301 467 OFFCURVE",
"264 475 OFFCURVE",
"218 475 CURVE SMOOTH",
"96 475 OFFCURVE",
"35 417 OFFCURVE",
"35 308 CURVE SMOOTH",
"35 228 OFFCURVE",
"80 172 OFFCURVE",
"159 153 CURVE",
"77 95 LINE",
"77 67 OFFCURVE",
"85 44 OFFCURVE",
"99 28 CURVE",
"46 -1 OFFCURVE",
"22 -22 OFFCURVE",
"22 -93 CURVE SMOOTH",
"22 -168 OFFCURVE",
"90 -219 OFFCURVE",
"235 -219 CURVE SMOOTH"
);
},
{
closed = 1;
nodes = (
"157 -178 OFFCURVE",
"114 -146 OFFCURVE",
"114 -80 CURVE SMOOTH",
"114 -47 OFFCURVE",
"130 -20 OFFCURVE",
"159 -1 CURVE",
"244 -1 LINE SMOOTH",
"314 -1 OFFCURVE",
"355 -23 OFFCURVE",
"355 -80 CURVE SMOOTH",
"355 -147 OFFCURVE",
"313 -178 OFFCURVE",
"235 -178 CURVE SMOOTH"
);
},
{
closed = 1;
nodes = (
"152 188 OFFCURVE",
"125 225 OFFCURVE",
"125 311 CURVE SMOOTH",
"125 398 OFFCURVE",
"153 435 OFFCURVE",
"218 435 CURVE SMOOTH",
"283 435 OFFCURVE",
"311 398 OFFCURVE",
"311 311 CURVE SMOOTH",
"311 225 OFFCURVE",
"284 188 OFFCURVE",
"218 188 CURVE SMOOTH"
);
}
);
width = 459;
},
{
anchors = (
{
name = top;
position = "{246, 484}";
}
);
background = {
anchors = (
{
name = top;
position = "{252, 515}";
}
);
paths = (
{
closed = 1;
nodes = (
"115 492 OFFCURVE",
"39 427 OFFCURVE",
"39 315 CURVE SMOOTH",
"39 236 OFFCURVE",
"87 178 OFFCURVE",
"168 156 CURVE",
"81 95 LINE",
"81 71 OFFCURVE",
"86 51 OFFCURVE",
"96 35 CURVE",
"42 -1 OFFCURVE",
"18 -41 OFFCURVE",
"18 -93 CURVE SMOOTH",
"18 -174 OFFCURVE",
"107 -219 OFFCURVE",
"264 -219 CURVE SMOOTH",
"416 -219 OFFCURVE",
"500 -165 OFFCURVE",
"500 -67 CURVE SMOOTH",
"500 32 OFFCURVE",
"429 84 OFFCURVE",
"297 84 CURVE SMOOTH",
"255 84 LINE SMOOTH",
"215 84 OFFCURVE",
"199 89 OFFCURVE",
"197 104 CURVE",
"231 147 LINE",
"247 147 LINE SMOOTH",
"373 147 OFFCURVE",
"454 212 OFFCURVE",
"454 315 CURVE SMOOTH",
"454 361 OFFCURVE",
"441 399 OFFCURVE",
"417 428 CURVE",
"452 445 OFFCURVE",
"478 482 OFFCURVE",
"478 515 CURVE SMOOTH",
"478 546 OFFCURVE",
"456 567 OFFCURVE",
"422 567 CURVE SMOOTH",
"391 567 OFFCURVE",
"366 550 OFFCURVE",
"366 529 CURVE",
"384 520 OFFCURVE",
"394 507 OFFCURVE",
"394 491 CURVE SMOOTH",
"394 478 OFFCURVE",
"389 467 OFFCURVE",
"380 459 CURVE",
"346 480 OFFCURVE",
"301 492 OFFCURVE",
"247 492 CURVE SMOOTH",
"247 492 LINE"
);
},
{
closed = 1;
nodes = (
"347 0 OFFCURVE",
"384 -26 OFFCURVE",
"384 -78 CURVE SMOOTH",
"384 -136 OFFCURVE",
"346 -163 OFFCURVE",
"264 -163 CURVE SMOOTH",
"184 -163 OFFCURVE",
"148 -137 OFFCURVE",
"148 -78 CURVE SMOOTH",
"148 -50 OFFCURVE",
"158 -24 OFFCURVE",
"176 -6 CURVE SMOOTH",
"182 0 LINE",
"273 0 LINE"
);
},
{
closed = 1;
nodes = (
"193 196 OFFCURVE",
"180 220 OFFCURVE",
"180 315 CURVE SMOOTH",
"180 405 OFFCURVE",
"200 442 OFFCURVE",
"247 442 CURVE SMOOTH",
"299 442 OFFCURVE",
"321 404 OFFCURVE",
"321 315 CURVE SMOOTH",
"321 225 OFFCURVE",
"303 196 OFFCURVE",
"247 196 CURVE SMOOTH",
"247 196 LINE"
);
},
{
closed = 1;
nodes = (
"416 -219 OFFCURVE",
"500 -165 OFFCURVE",
"500 -67 CURVE SMOOTH",
"500 31 OFFCURVE",
"430 84 OFFCURVE",
"297 84 CURVE SMOOTH",
"255 84 LINE SMOOTH",
"215 84 OFFCURVE",
"199 89 OFFCURVE",
"197 104 CURVE",
"231 147 LINE",
"247 147 LINE SMOOTH",
"373 147 OFFCURVE",
"454 212 OFFCURVE",
"454 315 CURVE SMOOTH",
"454 361 OFFCURVE",
"441 399 OFFCURVE",
"417 428 CURVE",
"452 445 OFFCURVE",
"478 482 OFFCURVE",
"478 515 CURVE SMOOTH",
"478 546 OFFCURVE",
"456 567 OFFCURVE",
"422 567 CURVE SMOOTH",
"391 567 OFFCURVE",
"366 550 OFFCURVE",
"366 529 CURVE",
"384 520 OFFCURVE",
"394 507 OFFCURVE",
"394 491 CURVE SMOOTH",
"394 478 OFFCURVE",
"389 467 OFFCURVE",
"380 459 CURVE",
"346 480 OFFCURVE",
"301 492 OFFCURVE",
"247 492 CURVE SMOOTH",
"115 492 OFFCURVE",
"39 427 OFFCURVE",
"39 315 CURVE SMOOTH",
"39 236 OFFCURVE",
"87 178 OFFCURVE",
"168 156 CURVE",
"81 95 LINE",
"81 71 OFFCURVE",
"86 51 OFFCURVE",
"96 35 CURVE",
"42 -1 OFFCURVE",
"18 -41 OFFCURVE",
"18 -93 CURVE SMOOTH",
"18 -174 OFFCURVE",
"107 -219 OFFCURVE",
"264 -219 CURVE SMOOTH"
);
},
{
closed = 1;
nodes = (
"184 -163 OFFCURVE",
"148 -137 OFFCURVE",
"148 -78 CURVE SMOOTH",
"148 -47 OFFCURVE",
"158 -24 OFFCURVE",
"182 0 CURVE",
"273 0 LINE SMOOTH",
"347 0 OFFCURVE",
"384 -26 OFFCURVE",
"384 -78 CURVE SMOOTH",
"384 -136 OFFCURVE",
"346 -163 OFFCURVE",
"264 -163 CURVE SMOOTH"
);
},
{
closed = 1;
nodes = (
"193 196 OFFCURVE",
"180 220 OFFCURVE",
"180 315 CURVE SMOOTH",
"180 405 OFFCURVE",
"200 442 OFFCURVE",
"247 442 CURVE SMOOTH",
"299 442 OFFCURVE",
"321 404 OFFCURVE",
"321 315 CURVE SMOOTH",
"321 225 OFFCURVE",
"303 196 OFFCURVE",
"247 196 CURVE SMOOTH"
);
}
);
};
layerId = "0EBA3A65-8808-4583-9AA2-2A9BC4F414AB";
paths = (
{
closed = 1;
nodes = (
"416 -219 OFFCURVE",
"500 -165 OFFCURVE",
"500 -67 CURVE SMOOTH",
"500 31 OFFCURVE",
"430 84 OFFCURVE",
"297 84 CURVE SMOOTH",
"255 84 LINE SMOOTH",
"215 84 OFFCURVE",
"199 89 OFFCURVE",
"197 104 CURVE",
"231 147 LINE",
"247 147 LINE SMOOTH",
"373 147 OFFCURVE",
"454 212 OFFCURVE",
"454 315 CURVE SMOOTH",
"454 361 OFFCURVE",
"441 399 OFFCURVE",
"417 428 CURVE",
"452 445 OFFCURVE",
"478 482 OFFCURVE",
"478 515 CURVE SMOOTH",
"478 546 OFFCURVE",
"456 567 OFFCURVE",
"422 567 CURVE SMOOTH",
"393 567 OFFCURVE",
"370 546 OFFCURVE",
"370 524 CURVE",
"385 516 OFFCURVE",
"394 505 OFFCURVE",
"394 491 CURVE SMOOTH",
"394 478 OFFCURVE",
"389 467 OFFCURVE",
"380 459 CURVE",
"346 480 OFFCURVE",
"301 492 OFFCURVE",
"247 492 CURVE SMOOTH",
"115 492 OFFCURVE",
"39 427 OFFCURVE",
"39 315 CURVE SMOOTH",
"39 236 OFFCURVE",
"87 178 OFFCURVE",
"168 156 CURVE",
"81 95 LINE",
"81 71 OFFCURVE",
"86 51 OFFCURVE",
"96 35 CURVE",
"42 -1 OFFCURVE",
"18 -41 OFFCURVE",
"18 -93 CURVE SMOOTH",
"18 -174 OFFCURVE",
"107 -219 OFFCURVE",
"264 -219 CURVE SMOOTH"
);
},
{
closed = 1;
nodes = (
"184 -163 OFFCURVE",
"148 -137 OFFCURVE",
"148 -78 CURVE SMOOTH",
"148 -47 OFFCURVE",
"158 -24 OFFCURVE",
"182 0 CURVE",
"273 0 LINE SMOOTH",
"347 0 OFFCURVE",
"384 -26 OFFCURVE",
"384 -78 CURVE SMOOTH",
"384 -136 OFFCURVE",
"346 -163 OFFCURVE",
"264 -163 CURVE SMOOTH"
);
},
{
closed = 1;
nodes = (
"193 196 OFFCURVE",
"180 220 OFFCURVE",
"180 315 CURVE SMOOTH",
"180 405 OFFCURVE",
"200 442 OFFCURVE",
"247 442 CURVE SMOOTH",
"299 442 OFFCURVE",
"321 404 OFFCURVE",
"321 315 CURVE SMOOTH",
"321 225 OFFCURVE",
"303 196 OFFCURVE",
"247 196 CURVE SMOOTH"
);
}
);
width = 508;
}
);
leftKerningGroup = g;
rightKerningGroup = g;
unicode = 0067;
},
{
color = 4;
glyphname = h;
lastChange = "2019-11-29 02:38:55 +0000";
layers = (
{
anchors = (
{
name = top;
position = "{300, 667}";
}
);
background = {
anchors = (
{
name = top;
position = "{283, 722}";
}
);
paths = (
{
closed = 1;
nodes = (
"222 40 OFFCURVE",
"198 49 OFFCURVE",
"181 62 CURVE",
"181 344 LINE",
"202 394 OFFCURVE",
"248 428 OFFCURVE",
"294 428 CURVE SMOOTH",
"350 428 OFFCURVE",
"379 396 OFFCURVE",
"379 329 CURVE SMOOTH",
"379 62 LINE",
"360 47 OFFCURVE",
"338 38 OFFCURVE",
"313 34 CURVE",
"310 0 LINE",
"530 0 LINE",
"534 34 LINE",
"505 40 OFFCURVE",
"476 52 OFFCURVE",
"464 62 CURVE",
"464 338 LINE SMOOTH",
"464 425 OFFCURVE",
"407 476 OFFCURVE",
"310 476 CURVE SMOOTH",
"260 476 OFFCURVE",
"213 449 OFFCURVE",
"181 408 CURVE",
"181 687 LINE",
"162 697 LINE",
"121 685 OFFCURVE",
"74 670 OFFCURVE",
"29 663 CURVE",
"26 633 LINE",
"77 631 OFFCURVE",
"96 617 OFFCURVE",
"96 567 CURVE SMOOTH",
"96 62 LINE",
"76 46 OFFCURVE",
"60 41 OFFCURVE",
"30 37 CURVE",
"26 0 LINE",
"247 0 LINE",
"251 35 LINE"
);
}
);
};
layerId = UUID0;
paths = (
{
closed = 1;
nodes = (
"247 0 LINE",
"251 35 LINE",
"222 40 OFFCURVE",
"198 49 OFFCURVE",
"181 62 CURVE",
"181 344 LINE",
"202 394 OFFCURVE",
"248 428 OFFCURVE",
"294 428 CURVE SMOOTH",
"350 428 OFFCURVE",
"379 396 OFFCURVE",
"379 329 CURVE SMOOTH",
"379 62 LINE",
"360 47 OFFCURVE",
"338 38 OFFCURVE",
"313 34 CURVE",
"310 0 LINE",
"530 0 LINE",
"534 34 LINE",
"505 40 OFFCURVE",
"476 52 OFFCURVE",
"464 62 CURVE",
"464 338 LINE SMOOTH",
"464 425 OFFCURVE",
"407 476 OFFCURVE",
"310 476 CURVE SMOOTH",
"260 476 OFFCURVE",
"213 449 OFFCURVE",
"181 408 CURVE",
"181 687 LINE",
"162 697 LINE",
"121 685 OFFCURVE",
"74 670 OFFCURVE",
"29 663 CURVE",
"26 633 LINE",
"77 631 OFFCURVE",
"96 617 OFFCURVE",
"96 567 CURVE SMOOTH",
"96 62 LINE",
"76 46 OFFCURVE",
"60 41 OFFCURVE",
"30 37 CURVE",
"26 0 LINE"
);
}
);
width = 554;
},
{
anchors = (
{
name = top;
position = "{360, 667}";
}
);
background = {
anchors = (
{
name = top;
position = "{286, 715}";
}
);
paths = (
{
closed = 1;
nodes = (
"263 46 OFFCURVE",
"242 55 OFFCURVE",
"228 67 CURVE",
"228 371 LINE",
"248 404 OFFCURVE",
"282 425 OFFCURVE",
"316 425 CURVE SMOOTH",
"358 425 OFFCURVE",
"378 394 OFFCURVE",
"378 329 CURVE SMOOTH",
"378 66 LINE",
"365 52 OFFCURVE",
"348 43 OFFCURVE",
"329 39 CURVE",
"326 0 LINE",
"580 0 LINE",
"583 39 LINE",
"554 45 OFFCURVE",
"531 57 OFFCURVE",
"520 66 CURVE",
"520 338 LINE SMOOTH",
"520 435 OFFCURVE",
"460 492 OFFCURVE",
"370 492 CURVE SMOOTH",
"312 492 OFFCURVE",
"262 467 OFFCURVE",
"228 429 CURVE",
"228 688 LINE",
"210 698 LINE",
"172 687 OFFCURVE",
"69 672 OFFCURVE",
"27 664 CURVE",
"24 625 LINE",
"70 623 OFFCURVE",
"86 609 OFFCURVE",
"86 559 CURVE SMOOTH",
"86 67 LINE",
"70 52 OFFCURVE",
"58 47 OFFCURVE",
"34 42 CURVE",
"30 1 LINE",
"284 1 LINE",
"288 40 LINE"
);
}
);
};
layerId = "0EBA3A65-8808-4583-9AA2-2A9BC4F414AB";
paths = (
{
closed = 1;
nodes = (
"284 1 LINE",
"288 40 LINE",
"263 46 OFFCURVE",
"242 55 OFFCURVE",
"228 67 CURVE",
"228 371 LINE",
"248 404 OFFCURVE",
"282 425 OFFCURVE",
"316 425 CURVE SMOOTH",
"358 425 OFFCURVE",
"378 394 OFFCURVE",
"378 329 CURVE SMOOTH",
"378 66 LINE",
"365 52 OFFCURVE",
"348 43 OFFCURVE",
"329 39 CURVE",
"326 0 LINE",
"580 0 LINE",
"583 39 LINE",
"554 45 OFFCURVE",
"531 57 OFFCURVE",
"520 66 CURVE",
"520 338 LINE SMOOTH",
"520 435 OFFCURVE",
"460 492 OFFCURVE",
"370 492 CURVE SMOOTH",
"312 492 OFFCURVE",
"262 467 OFFCURVE",
"228 429 CURVE",
"228 688 LINE",
"210 698 LINE",
"172 687 OFFCURVE",
"69 672 OFFCURVE",
"27 664 CURVE",
"24 625 LINE",
"70 623 OFFCURVE",
"86 609 OFFCURVE",
"86 559 CURVE SMOOTH",
"86 67 LINE",
"70 52 OFFCURVE",
"58 47 OFFCURVE",
"34 42 CURVE",
"30 1 LINE"
);
}
);
width = 600;
}
);
leftKerningGroup = h;
rightKerningGroup = n;
unicode = 0068;
},
{
color = 4;
glyphname = i;
lastChange = "2019-11-29 15:36:08 +0000";
layers = (
{
anchors = (
{
name = ogonek;
position = "{255, 0}";
}
);
background = {
anchors = (
{
name = ogonek;
position = "{255, 0}";
}
);
components = (
{
name = dotaccent;
transform = "{1, 0, 0, 1, 79, -9}";
}
);
paths = (
{
closed = 1;
nodes = (
"83 46 OFFCURVE",
"67 41 OFFCURVE",
"38 36 CURVE",
"34 0 LINE",
"255 0 LINE",
"259 34 LINE",
"230 40 OFFCURVE",
"206 49 OFFCURVE",
"189 61 CURVE",
"189 468 LINE",
"169 479 LINE",
"129 467 OFFCURVE",
"82 452 OFFCURVE",
"37 444 CURVE",
"34 415 LINE",
"85 413 OFFCURVE",
"104 399 OFFCURVE",
"104 349 CURVE SMOOTH",
"104 61 LINE"
);
},
{
closed = 1;
nodes = (
"255 0 LINE",
"259 34 LINE",
"230 40 OFFCURVE",
"206 49 OFFCURVE",
"189 61 CURVE",
"189 468 LINE",
"169 479 LINE",
"129 467 OFFCURVE",
"82 452 OFFCURVE",
"37 444 CURVE",
"34 415 LINE",
"85 413 OFFCURVE",
"104 399 OFFCURVE",
"104 349 CURVE SMOOTH",
"104 61 LINE",
"83 46 OFFCURVE",
"67 41 OFFCURVE",
"38 36 CURVE",
"34 0 LINE"
);
},
{
closed = 1;
nodes = (
"176 540 OFFCURVE",
"194 561 OFFCURVE",
"194 598 CURVE SMOOTH",
"194 635 OFFCURVE",
"176 656 OFFCURVE",
"141 656 CURVE SMOOTH",
"105 656 OFFCURVE",
"89 635 OFFCURVE",
"89 598 CURVE SMOOTH",
"89 561 OFFCURVE",
"105 540 OFFCURVE",
"141 540 CURVE SMOOTH"
);
}
);
};
components = (
{
name = idotless;
},
{
name = dotaccent;
transform = "{1, 0, 0, 1, 79, 0}";
}
);
layerId = UUID0;
width = 277;
},
{
anchors = (
{
name = ogonek;
position = "{225, 0}";
}
);
background = {
anchors = (
{
name = ogonek;
position = "{225, 0}";
}
);
components = (
{
name = dotaccent;
transform = "{1, 0, 0, 1, 56, 12}";
}
);
paths = (
{
closed = 1;
nodes = (
"269 45 OFFCURVE",
"246 57 OFFCURVE",
"234 66 CURVE",
"234 483 LINE",
"217 492 LINE",
"179 481 OFFCURVE",
"76 466 OFFCURVE",
"34 458 CURVE",
"31 419 LINE",
"77 417 OFFCURVE",
"93 403 OFFCURVE",
"93 354 CURVE SMOOTH",
"93 66 LINE",
"77 51 OFFCURVE",
"65 46 OFFCURVE",
"41 41 CURVE",
"37 0 LINE",
"294 0 LINE",
"298 39 LINE"
);
}
);
};
components = (
{
name = idotless;
},
{
name = dotaccent;
transform = "{1, 0, 0, 1, 70, 0}";
}
);
layerId = "0EBA3A65-8808-4583-9AA2-2A9BC4F414AB";
width = 308;
}
);
leftKerningGroup = i;
rightKerningGroup = i;
unicode = 0069;
},
{
color = 4;
glyphname = j;
lastChange = "2019-11-29 15:32:37 +0000";
layers = (
{
background = {
anchors = (
{
name = top;
position = "{81, 505}";
}
);
components = (
{
name = jdotless;
},
{
name = dotaccent;
transform = "{1, 0, 0, 1, 80, -9}";
}
);
};
components = (
{
name = jdotless;
},
{
name = dotaccent;
transform = "{1, 0, 0, 1, 78, 0}";
}
);
layerId = UUID0;
width = 255;
},
{
background = {
paths = (
{
closed = 1;
nodes = (
"70 417 OFFCURVE",
"86 403 OFFCURVE",
"86 354 CURVE SMOOTH",
"86 62 LINE SMOOTH",
"86 -18 OFFCURVE",
"98 -41 OFFCURVE",
"98 -108 CURVE SMOOTH",
"98 -141 OFFCURVE",
"85 -168 OFFCURVE",
"66 -168 CURVE SMOOTH",
"51 -168 OFFCURVE",
"42 -153 OFFCURVE",
"42 -137 CURVE SMOOTH",
"42 -121 OFFCURVE",
"48 -106 OFFCURVE",
"57 -97 CURVE",
"46 -80 OFFCURVE",
"28 -72 OFFCURVE",
"11 -72 CURVE SMOOTH",
"-26 -72 OFFCURVE",
"-52 -97 OFFCURVE",
"-52 -134 CURVE SMOOTH",
"-52 -190 OFFCURVE",
"9 -218 OFFCURVE",
"72 -218 CURVE SMOOTH",
"123 -218 OFFCURVE",
"177 -200 OFFCURVE",
"201 -161 CURVE SMOOTH",
"222 -126 OFFCURVE",
"227 -80 OFFCURVE",
"227 -33 CURVE SMOOTH",
"227 483 LINE",
"210 492 LINE",
"172 481 OFFCURVE",
"69 466 OFFCURVE",
"27 458 CURVE",
"24 419 LINE"
);
},
{
closed = 1;
nodes = (
"212 550 OFFCURVE",
"238 576 OFFCURVE",
"238 620 CURVE SMOOTH",
"238 665 OFFCURVE",
"212 690 OFFCURVE",
"159 690 CURVE SMOOTH",
"105 690 OFFCURVE",
"79 665 OFFCURVE",
"79 620 CURVE SMOOTH",
"79 576 OFFCURVE",
"105 550 OFFCURVE",
"159 550 CURVE SMOOTH",
"159 550 LINE"
);
},
{
closed = 1;
nodes = (
"123 -218 OFFCURVE",
"177 -200 OFFCURVE",
"201 -161 CURVE SMOOTH",
"222 -126 OFFCURVE",
"227 -80 OFFCURVE",
"227 -33 CURVE SMOOTH",
"227 483 LINE",
"210 492 LINE",
"172 481 OFFCURVE",
"69 466 OFFCURVE",
"27 458 CURVE",
"24 419 LINE",
"70 417 OFFCURVE",
"86 403 OFFCURVE",
"86 354 CURVE SMOOTH",
"86 62 LINE SMOOTH",
"86 -18 OFFCURVE",
"98 -41 OFFCURVE",
"98 -108 CURVE SMOOTH",
"98 -141 OFFCURVE",
"85 -168 OFFCURVE",
"66 -168 CURVE SMOOTH",
"51 -168 OFFCURVE",
"42 -153 OFFCURVE",
"42 -137 CURVE SMOOTH",
"42 -121 OFFCURVE",
"48 -106 OFFCURVE",
"57 -97 CURVE",
"46 -80 OFFCURVE",
"28 -72 OFFCURVE",
"11 -72 CURVE SMOOTH",
"-26 -72 OFFCURVE",
"-52 -97 OFFCURVE",
"-52 -134 CURVE SMOOTH",
"-52 -190 OFFCURVE",
"9 -218 OFFCURVE",
"72 -218 CURVE SMOOTH"
);
},
{
closed = 1;
nodes = (
"212 550 OFFCURVE",
"238 576 OFFCURVE",
"238 620 CURVE SMOOTH",
"238 665 OFFCURVE",
"212 690 OFFCURVE",
"159 690 CURVE SMOOTH",
"105 690 OFFCURVE",
"79 665 OFFCURVE",
"79 620 CURVE SMOOTH",
"79 576 OFFCURVE",
"105 550 OFFCURVE",
"159 550 CURVE SMOOTH"
);
}
);
};
components = (
{
name = jdotless;
},
{
name = dotaccent;
transform = "{1, 0, 0, 1, 49, 0}";
}
);
layerId = "0EBA3A65-8808-4583-9AA2-2A9BC4F414AB";
width = 297;
}
);
leftKerningGroup = j;
rightKerningGroup = j;
unicode = 006A;
},
{
color = 1;
glyphname = k;
lastChange = "2019-11-29 02:39:31 +0000";
layers = (
{
anchors = (
{
name = bottom;
position = "{276, 0}";
}
);
background = {
anchors = (
{
name = bottom;
position = "{276, 0}";
}
);
paths = (
{
closed = 1;
nodes = (
"491 40 OFFCURVE",
"458 50 OFFCURVE",
"435 63 CURVE",
"285 302 LINE",
"377 394 LINE SMOOTH",
"408 424 OFFCURVE",
"446 435 OFFCURVE",
"487 437 CURVE",
"484 467 LINE",
"351 467 LINE",
"348 454 OFFCURVE",
"341 435 OFFCURVE",
"318 411 CURVE SMOOTH",
"181 273 LINE",
"181 687 LINE",
"162 697 LINE",
"121 685 OFFCURVE",
"74 670 OFFCURVE",
"29 663 CURVE",
"26 633 LINE",
"77 631 OFFCURVE",
"96 617 OFFCURVE",
"96 567 CURVE SMOOTH",
"96 62 LINE",
"76 46 OFFCURVE",
"60 41 OFFCURVE",
"30 37 CURVE",
"26 0 LINE",
"247 0 LINE",
"251 35 LINE",
"222 40 OFFCURVE",
"198 49 OFFCURVE",
"181 62 CURVE",
"181 199 LINE",
"227 244 LINE",
"380 0 LINE",
"523 0 LINE",
"527 35 LINE"
);
}
);
};
layerId = UUID0;
paths = (
{
closed = 1;
nodes = (
"247 0 LINE",
"251 35 LINE",
"222 40 OFFCURVE",
"198 49 OFFCURVE",
"181 62 CURVE",
"181 199 LINE",
"227 244 LINE",
"380 0 LINE",
"523 0 LINE",
"527 35 LINE",
"491 40 OFFCURVE",
"458 50 OFFCURVE",
"435 63 CURVE",
"285 302 LINE",
"377 394 LINE SMOOTH",
"408 424 OFFCURVE",
"446 435 OFFCURVE",
"487 437 CURVE",
"484 467 LINE",
"351 467 LINE",
"348 454 OFFCURVE",
"341 435 OFFCURVE",
"318 411 CURVE SMOOTH",
"181 273 LINE",
"181 687 LINE",
"162 697 LINE",
"121 685 OFFCURVE",
"74 670 OFFCURVE",
"29 663 CURVE",
"26 633 LINE",
"77 631 OFFCURVE",
"96 617 OFFCURVE",
"96 567 CURVE SMOOTH",
"96 62 LINE",
"76 46 OFFCURVE",
"60 41 OFFCURVE",
"30 37 CURVE",
"26 0 LINE"
);
}
);
width = 525;
},
{
anchors = (
{
name = bottom;
position = "{306, 0}";
}
);
background = {
anchors = (
{
name = bottom;
position = "{301, 0}";
}
);
paths = (
{
closed = 1;
nodes = (
"70 622 OFFCURVE",
"86 608 OFFCURVE",
"86 558 CURVE SMOOTH",
"86 66 LINE",
"71 51 OFFCURVE",
"58 46 OFFCURVE",
"34 41 CURVE",
"30 0 LINE",
"288 0 LINE",
"291 39 LINE",
"262 45 OFFCURVE",
"239 57 OFFCURVE",
"228 66 CURVE",
"228 165 LINE",
"282 219 LINE",
"384 58 LINE SMOOTH",
"396 38 OFFCURVE",
"401 23 OFFCURVE",
"402 0 CURVE",
"590 0 LINE",
"597 41 LINE",
"567 47 OFFCURVE",
"544 59 OFFCURVE",
"526 76 CURVE",
"375 312 LINE",
"470 406 LINE",
"498 438 OFFCURVE",
"538 444 OFFCURVE",
"558 445 CURVE",
"566 484 LINE",
"333 484 LINE",
"325 445 LINE",
"347 445 OFFCURVE",
"376 439 OFFCURVE",
"376 416 CURVE SMOOTH",
"376 410 OFFCURVE",
"373 404 OFFCURVE",
"368 398 CURVE",
"228 263 LINE",
"228 687 LINE",
"210 697 LINE",
"172 686 OFFCURVE",
"69 671 OFFCURVE",
"27 663 CURVE",
"24 624 LINE"
);
}
);
};
layerId = "0EBA3A65-8808-4583-9AA2-2A9BC4F414AB";
paths = (
{
closed = 1;
nodes = (
"288 0 LINE",
"291 39 LINE",
"262 45 OFFCURVE",
"239 57 OFFCURVE",
"228 66 CURVE",
"228 165 LINE",
"282 219 LINE",
"384 58 LINE SMOOTH",
"396 38 OFFCURVE",
"401 23 OFFCURVE",
"402 0 CURVE",
"590 0 LINE",
"597 41 LINE",
"567 47 OFFCURVE",
"544 59 OFFCURVE",
"526 76 CURVE",
"375 312 LINE",
"470 406 LINE",
"498 438 OFFCURVE",
"538 444 OFFCURVE",
"558 445 CURVE",
"566 484 LINE",
"333 484 LINE",
"325 445 LINE",
"347 445 OFFCURVE",
"376 439 OFFCURVE",
"376 416 CURVE SMOOTH",
"376 410 OFFCURVE",
"373 404 OFFCURVE",
"368 398 CURVE",
"228 263 LINE",
"228 687 LINE",
"210 697 LINE",
"172 686 OFFCURVE",
"69 671 OFFCURVE",
"27 663 CURVE",
"24 624 LINE",
"70 622 OFFCURVE",
"86 608 OFFCURVE",
"86 558 CURVE SMOOTH",
"86 66 LINE",
"71 51 OFFCURVE",
"58 46 OFFCURVE",
"34 41 CURVE",
"30 0 LINE"
);
}
);
width = 589;
}
);
leftKerningGroup = h;
rightKerningGroup = k;
unicode = 006B;
},
{
color = 4;
glyphname = l;
lastChange = "2019-12-10 01:12:00 +0000";
layers = (
{
anchors = (
{
name = bottom;
position = "{138, 0}";
},
{
name = center_right;
position = "{279, 360}";
},
{
name = top;
position = "{138, 667}";
},
{
name = top_right;
position = "{227, 665}";
}
);
background = {
anchors = (
{
name = bottom;
position = "{138, 0}";
},
{
name = top;
position = "{138, 715}";
}
);
paths = (
{
closed = 1;
nodes = (
"222 40 OFFCURVE",
"198 49 OFFCURVE",
"181 62 CURVE",
"181 687 LINE",
"162 697 LINE",
"121 685 OFFCURVE",
"74 670 OFFCURVE",
"29 663 CURVE",
"26 633 LINE",
"78 631 OFFCURVE",
"96 617 OFFCURVE",
"96 567 CURVE SMOOTH",
"96 62 LINE",
"76 46 OFFCURVE",
"60 41 OFFCURVE",
"30 37 CURVE",
"26 0 LINE",
"247 0 LINE",
"251 35 LINE"
);
}
);
};
layerId = UUID0;
paths = (
{
closed = 1;
nodes = (
"247 0 LINE",
"251 35 LINE",
"222 40 OFFCURVE",
"198 49 OFFCURVE",
"181 62 CURVE",
"181 687 LINE",
"162 697 LINE",
"121 685 OFFCURVE",
"74 670 OFFCURVE",
"29 663 CURVE",
"26 633 LINE",
"78 631 OFFCURVE",
"96 617 OFFCURVE",
"96 567 CURVE SMOOTH",
"96 62 LINE",
"76 46 OFFCURVE",
"60 41 OFFCURVE",
"30 37 CURVE",
"26 0 LINE"
);
}
);
width = 271;
},
{
anchors = (
{
name = bottom;
position = "{163, 0}";
},
{
name = center_right;
position = "{348, 360}";
},
{
name = top;
position = "{153, 667}";
},
{
name = top_right;
position = "{278, 662}";
}
);
background = {
anchors = (
{
name = bottom;
position = "{163, 0}";
},
{
name = top;
position = "{153, 715}";
}
);
paths = (
{
closed = 1;
nodes = (
"262 45 OFFCURVE",
"239 57 OFFCURVE",
"228 66 CURVE",
"228 687 LINE",
"210 697 LINE",
"172 686 OFFCURVE",
"69 671 OFFCURVE",
"27 663 CURVE",
"24 624 LINE",
"70 622 OFFCURVE",
"86 608 OFFCURVE",
"86 558 CURVE SMOOTH",
"86 66 LINE",
"70 51 OFFCURVE",
"58 46 OFFCURVE",
"34 41 CURVE",
"30 0 LINE",
"288 0 LINE",
"291 39 LINE"
);
}
);
};
layerId = "0EBA3A65-8808-4583-9AA2-2A9BC4F414AB";
paths = (
{
closed = 1;
nodes = (
"288 0 LINE",
"291 39 LINE",
"262 45 OFFCURVE",
"239 57 OFFCURVE",
"228 66 CURVE",
"228 687 LINE",
"210 697 LINE",
"172 686 OFFCURVE",
"69 671 OFFCURVE",
"27 663 CURVE",
"24 624 LINE",
"70 622 OFFCURVE",
"86 608 OFFCURVE",
"86 558 CURVE SMOOTH",
"86 66 LINE",
"70 51 OFFCURVE",
"58 46 OFFCURVE",
"34 41 CURVE",
"30 0 LINE"
);
}
);
width = 311;
}
);
leftKerningGroup = h;
rightKerningGroup = l;
unicode = 006C;
},
{
color = 1;
glyphname = m;
lastChange = "2019-12-01 02:26:52 +0000";
layers = (
{
background = {
paths = (
{
closed = 1;
nodes = (
"226 40 OFFCURVE",
"202 49 OFFCURVE",
"186 62 CURVE",
"186 350 LINE",
"198 385 OFFCURVE",
"243 428 OFFCURVE",
"293 428 CURVE SMOOTH",
"345 428 OFFCURVE",
"372 398 OFFCURVE",
"372 329 CURVE SMOOTH",
"372 62 LINE",
"353 47 OFFCURVE",
"331 38 OFFCURVE",
"306 34 CURVE",
"303 0 LINE",
"523 0 LINE",
"527 34 LINE",
"498 40 OFFCURVE",
"469 52 OFFCURVE",
"457 62 CURVE",
"457 361 LINE",
"474 393 OFFCURVE",
"514 428 OFFCURVE",
"559 428 CURVE SMOOTH",
"612 428 OFFCURVE",
"638 398 OFFCURVE",
"638 329 CURVE SMOOTH",
"638 62 LINE",
"619 47 OFFCURVE",
"597 38 OFFCURVE",
"572 34 CURVE",
"570 0 LINE",
"789 0 LINE",
"793 34 LINE",
"764 40 OFFCURVE",
"736 52 OFFCURVE",
"723 62 CURVE",
"723 326 LINE SMOOTH",
"723 436 OFFCURVE",
"650 476 OFFCURVE",
"568 476 CURVE SMOOTH",
"512 476 OFFCURVE",
"469 445 OFFCURVE",
"435 414 CURVE",
"408 456 OFFCURVE",
"364 476 OFFCURVE",
"303 476 CURVE SMOOTH",
"234 476 OFFCURVE",
"188 423 OFFCURVE",
"181 415 CURVE",
"174 467 LINE",
"156 476 LINE",
"118 465 OFFCURVE",
"76 450 OFFCURVE",
"33 442 CURVE",
"30 413 LINE",
"82 411 OFFCURVE",
"100 397 OFFCURVE",
"100 347 CURVE SMOOTH",
"100 62 LINE",
"80 46 OFFCURVE",
"64 41 OFFCURVE",
"34 36 CURVE",
"30 0 LINE",
"251 0 LINE",
"255 34 LINE"
);
}
);
};
layerId = UUID0;
paths = (
{
closed = 1;
nodes = (
"251 0 LINE",
"255 34 LINE",
"226 40 OFFCURVE",
"202 49 OFFCURVE",
"186 62 CURVE",
"186 350 LINE",
"198 385 OFFCURVE",
"243 428 OFFCURVE",
"293 428 CURVE SMOOTH",
"345 428 OFFCURVE",
"372 398 OFFCURVE",
"372 329 CURVE SMOOTH",
"372 62 LINE",
"353 47 OFFCURVE",
"331 38 OFFCURVE",
"306 34 CURVE",
"303 0 LINE",
"523 0 LINE",
"527 34 LINE",
"498 40 OFFCURVE",
"469 52 OFFCURVE",
"457 62 CURVE",
"457 361 LINE",
"474 393 OFFCURVE",
"514 428 OFFCURVE",
"559 428 CURVE SMOOTH",
"612 428 OFFCURVE",
"638 398 OFFCURVE",
"638 329 CURVE SMOOTH",
"638 62 LINE",
"619 47 OFFCURVE",
"597 38 OFFCURVE",
"572 34 CURVE",
"570 0 LINE",
"789 0 LINE",
"793 34 LINE",
"764 40 OFFCURVE",
"736 52 OFFCURVE",
"723 62 CURVE",
"723 326 LINE SMOOTH",
"723 436 OFFCURVE",
"650 476 OFFCURVE",
"568 476 CURVE SMOOTH",
"512 476 OFFCURVE",
"469 445 OFFCURVE",
"435 414 CURVE",
"408 456 OFFCURVE",
"364 476 OFFCURVE",
"303 476 CURVE SMOOTH",
"234 476 OFFCURVE",
"188 423 OFFCURVE",
"181 415 CURVE",
"174 467 LINE",
"156 476 LINE",
"118 465 OFFCURVE",
"76 450 OFFCURVE",
"33 442 CURVE",
"30 413 LINE",
"82 411 OFFCURVE",
"100 397 OFFCURVE",
"100 347 CURVE SMOOTH",
"100 62 LINE",
"80 46 OFFCURVE",
"64 41 OFFCURVE",
"34 36 CURVE",
"30 0 LINE"
);
}
);
width = 813;
},
{
background = {
paths = (
{
closed = 1;
nodes = (
"555 45 OFFCURVE",
"535 54 OFFCURVE",
"520 66 CURVE",
"520 338 LINE SMOOTH",
"520 347 OFFCURVE",
"519 356 OFFCURVE",
"518 365 CURVE",
"536 401 OFFCURVE",
"572 425 OFFCURVE",
"608 425 CURVE SMOOTH",
"649 425 OFFCURVE",
"669 394 OFFCURVE",
"669 329 CURVE SMOOTH",
"669 66 LINE",
"655 52 OFFCURVE",
"638 43 OFFCURVE",
"620 39 CURVE",
"617 0 LINE",
"870 0 LINE",
"874 39 LINE",
"845 45 OFFCURVE",
"822 57 OFFCURVE",
"810 66 CURVE",
"810 338 LINE SMOOTH",
"810 435 OFFCURVE",
"750 492 OFFCURVE",
"660 492 CURVE SMOOTH",
"593 492 OFFCURVE",
"539 460 OFFCURVE",
"506 410 CURVE",
"483 462 OFFCURVE",
"434 492 OFFCURVE",
"370 492 CURVE SMOOTH",
"310 492 OFFCURVE",
"261 466 OFFCURVE",
"227 425 CURVE",
"219 483 LINE",
"201 492 LINE",
"163 481 OFFCURVE",
"73 466 OFFCURVE",
"30 458 CURVE",
"27 419 LINE",
"73 417 OFFCURVE",
"90 403 OFFCURVE",
"90 354 CURVE SMOOTH",
"90 66 LINE",
"73 51 OFFCURVE",
"62 46 OFFCURVE",
"37 41 CURVE",
"34 0 LINE",
"287 0 LINE",
"291 39 LINE",
"266 45 OFFCURVE",
"246 54 OFFCURVE",
"231 66 CURVE",
"231 370 LINE",
"250 403 OFFCURVE",
"284 425 OFFCURVE",
"318 425 CURVE SMOOTH",
"359 425 OFFCURVE",
"379 394 OFFCURVE",
"379 329 CURVE SMOOTH",
"379 66 LINE",
"365 52 OFFCURVE",
"348 43 OFFCURVE",
"330 39 CURVE",
"327 0 LINE",
"576 0 LINE",
"580 39 LINE"
);
}
);
};
layerId = "0EBA3A65-8808-4583-9AA2-2A9BC4F414AB";
paths = (
{
closed = 1;
nodes = (
"287 0 LINE",
"291 39 LINE",
"266 45 OFFCURVE",
"246 54 OFFCURVE",
"231 66 CURVE",
"231 370 LINE",
"250 403 OFFCURVE",
"284 425 OFFCURVE",
"318 425 CURVE SMOOTH",
"359 425 OFFCURVE",
"379 394 OFFCURVE",
"379 329 CURVE SMOOTH",
"379 66 LINE",
"365 52 OFFCURVE",
"348 43 OFFCURVE",
"330 39 CURVE",
"327 0 LINE",
"576 0 LINE",
"580 39 LINE",
"555 45 OFFCURVE",
"535 54 OFFCURVE",
"520 66 CURVE",
"520 338 LINE SMOOTH",
"520 347 OFFCURVE",
"519 356 OFFCURVE",
"518 365 CURVE",
"536 401 OFFCURVE",
"572 425 OFFCURVE",
"608 425 CURVE SMOOTH",
"649 425 OFFCURVE",
"669 394 OFFCURVE",
"669 329 CURVE SMOOTH",
"669 66 LINE",
"655 52 OFFCURVE",
"638 43 OFFCURVE",
"620 39 CURVE",
"617 0 LINE",
"870 0 LINE",
"874 39 LINE",
"845 45 OFFCURVE",
"822 57 OFFCURVE",
"810 66 CURVE",
"810 338 LINE SMOOTH",
"810 435 OFFCURVE",
"750 492 OFFCURVE",
"660 492 CURVE SMOOTH",
"593 492 OFFCURVE",
"539 460 OFFCURVE",
"506 410 CURVE",
"483 462 OFFCURVE",
"434 492 OFFCURVE",
"370 492 CURVE SMOOTH",
"310 492 OFFCURVE",
"261 466 OFFCURVE",
"227 425 CURVE",
"219 483 LINE",
"201 492 LINE",
"163 481 OFFCURVE",
"73 466 OFFCURVE",
"30 458 CURVE",
"27 419 LINE",
"73 417 OFFCURVE",
"90 403 OFFCURVE",
"90 354 CURVE SMOOTH",
"90 66 LINE",
"73 51 OFFCURVE",
"62 46 OFFCURVE",
"37 41 CURVE",
"34 0 LINE"
);
}
);
width = 891;
}
);
leftKerningGroup = n;
rightKerningGroup = n;
unicode = 006D;
},
{
color = 4;
glyphname = n;
lastChange = "2019-11-29 02:10:13 +0000";
layers = (
{
anchors = (
{
name = bottom;
position = "{284, 0}";
},
{
name = top;
position = "{284, 467}";
}
);
background = {
anchors = (
{
name = bottom;
position = "{284, 0}";
},
{
name = top;
position = "{284, 505}";
}
);
paths = (
{
closed = 1;
nodes = (
"509 40 OFFCURVE",
"480 52 OFFCURVE",
"468 62 CURVE",
"468 338 LINE SMOOTH",
"468 425 OFFCURVE",
"411 476 OFFCURVE",
"314 476 CURVE SMOOTH",
"263 476 OFFCURVE",
"213 448 OFFCURVE",
"182 405 CURVE",
"173 467 LINE",
"155 476 LINE",
"117 465 OFFCURVE",
"76 450 OFFCURVE",
"33 442 CURVE",
"30 413 LINE",
"81 411 OFFCURVE",
"100 397 OFFCURVE",
"100 347 CURVE SMOOTH",
"100 62 LINE",
"80 46 OFFCURVE",
"63 41 OFFCURVE",
"34 36 CURVE",
"30 0 LINE",
"251 0 LINE",
"255 34 LINE",
"226 40 OFFCURVE",
"202 49 OFFCURVE",
"185 62 CURVE",
"185 344 LINE",
"206 394 OFFCURVE",
"252 428 OFFCURVE",
"297 428 CURVE SMOOTH",
"354 428 OFFCURVE",
"383 396 OFFCURVE",
"383 329 CURVE SMOOTH",
"383 62 LINE",
"364 47 OFFCURVE",
"342 38 OFFCURVE",
"317 34 CURVE",
"314 0 LINE",
"534 0 LINE",
"538 34 LINE"
);
}
);
};
layerId = UUID0;
paths = (
{
closed = 1;
nodes = (
"251 0 LINE",
"255 34 LINE",
"226 40 OFFCURVE",
"202 49 OFFCURVE",
"185 62 CURVE",
"185 344 LINE",
"206 394 OFFCURVE",
"252 428 OFFCURVE",
"297 428 CURVE SMOOTH",
"354 428 OFFCURVE",
"383 396 OFFCURVE",
"383 329 CURVE SMOOTH",
"383 62 LINE",
"364 47 OFFCURVE",
"342 38 OFFCURVE",
"317 34 CURVE",
"314 0 LINE",
"534 0 LINE",
"538 34 LINE",
"509 40 OFFCURVE",
"480 52 OFFCURVE",
"468 62 CURVE",
"468 338 LINE SMOOTH",
"468 425 OFFCURVE",
"411 476 OFFCURVE",
"314 476 CURVE SMOOTH",
"263 476 OFFCURVE",
"213 448 OFFCURVE",
"182 405 CURVE",
"173 467 LINE",
"155 476 LINE",
"117 465 OFFCURVE",
"76 450 OFFCURVE",
"33 442 CURVE",
"30 413 LINE",
"81 411 OFFCURVE",
"100 397 OFFCURVE",
"100 347 CURVE SMOOTH",
"100 62 LINE",
"80 46 OFFCURVE",
"63 41 OFFCURVE",
"34 36 CURVE",
"30 0 LINE"
);
}
);
width = 558;
},
{
anchors = (
{
name = bottom;
position = "{314, 0}";
},
{
name = top;
position = "{319, 484}";
}
);
background = {
anchors = (
{
name = bottom;
position = "{314, 0}";
},
{
name = top;
position = "{319, 515}";
}
);
paths = (
{
closed = 1;
nodes = (
"558 45 OFFCURVE",
"535 57 OFFCURVE",
"523 66 CURVE",
"523 338 LINE SMOOTH",
"523 435 OFFCURVE",
"463 492 OFFCURVE",
"374 492 CURVE SMOOTH",
"313 492 OFFCURVE",
"262 466 OFFCURVE",
"227 425 CURVE",
"219 483 LINE",
"201 492 LINE",
"163 481 OFFCURVE",
"73 466 OFFCURVE",
"30 458 CURVE",
"27 419 LINE",
"73 417 OFFCURVE",
"90 403 OFFCURVE",
"90 354 CURVE SMOOTH",
"90 66 LINE",
"73 51 OFFCURVE",
"62 46 OFFCURVE",
"37 41 CURVE",
"34 0 LINE",
"287 0 LINE",
"291 39 LINE",
"266 45 OFFCURVE",
"246 54 OFFCURVE",
"231 66 CURVE",
"231 370 LINE",
"250 403 OFFCURVE",
"286 425 OFFCURVE",
"320 425 CURVE SMOOTH",
"362 425 OFFCURVE",
"382 394 OFFCURVE",
"382 329 CURVE SMOOTH",
"382 66 LINE",
"369 52 OFFCURVE",
"352 43 OFFCURVE",
"333 39 CURVE",
"330 0 LINE",
"583 0 LINE",
"587 39 LINE"
);
}
);
};
layerId = "0EBA3A65-8808-4583-9AA2-2A9BC4F414AB";
paths = (
{
closed = 1;
nodes = (
"287 0 LINE",
"291 39 LINE",
"266 45 OFFCURVE",
"246 54 OFFCURVE",
"231 66 CURVE",
"231 370 LINE",
"250 403 OFFCURVE",
"286 425 OFFCURVE",
"320 425 CURVE SMOOTH",
"362 425 OFFCURVE",
"382 394 OFFCURVE",
"382 329 CURVE SMOOTH",
"382 66 LINE",
"369 52 OFFCURVE",
"352 43 OFFCURVE",
"333 39 CURVE",
"330 0 LINE",
"583 0 LINE",
"587 39 LINE",
"558 45 OFFCURVE",
"535 57 OFFCURVE",
"523 66 CURVE",
"523 338 LINE SMOOTH",
"523 435 OFFCURVE",
"463 492 OFFCURVE",
"374 492 CURVE SMOOTH",
"313 492 OFFCURVE",
"262 466 OFFCURVE",
"227 425 CURVE",
"219 483 LINE",
"201 492 LINE",
"163 481 OFFCURVE",
"73 466 OFFCURVE",
"30 458 CURVE",
"27 419 LINE",
"73 417 OFFCURVE",
"90 403 OFFCURVE",
"90 354 CURVE SMOOTH",
"90 66 LINE",
"73 51 OFFCURVE",
"62 46 OFFCURVE",
"37 41 CURVE",
"34 0 LINE"
);
}
);
width = 604;
}
);
leftKerningGroup = n;
rightKerningGroup = n;
unicode = 006E;
},
{
color = 4;
glyphname = o;
lastChange = "2019-12-02 22:21:00 +0000";
layers = (
{
anchors = (
{
name = top;
position = "{240, 467}";
}
);
background = {
anchors = (
{
name = top;
position = "{240, 505}";
}
);
paths = (
{
closed = 1;
nodes = (
"118 374 OFFCURVE",
"153 430 OFFCURVE",
"240 430 CURVE SMOOTH",
"327 430 OFFCURVE",
"364 374 OFFCURVE",
"364 235 CURVE SMOOTH",
"364 96 OFFCURVE",
"327 39 OFFCURVE",
"240 39 CURVE SMOOTH",
"153 39 OFFCURVE",
"118 96 OFFCURVE",
"118 235 CURVE SMOOTH",
"118 235 LINE"
);
},
{
closed = 1;
nodes = (
"28 78 OFFCURVE",
"100 -7 OFFCURVE",
"240 -7 CURVE SMOOTH",
"381 -7 OFFCURVE",
"452 78 OFFCURVE",
"452 235 CURVE SMOOTH",
"452 392 OFFCURVE",
"381 476 OFFCURVE",
"240 476 CURVE SMOOTH",
"100 476 OFFCURVE",
"28 392 OFFCURVE",
"28 235 CURVE SMOOTH",
"28 235 LINE"
);
}
);
};
layerId = UUID0;
paths = (
{
closed = 1;
nodes = (
"381 -7 OFFCURVE",
"452 78 OFFCURVE",
"452 235 CURVE SMOOTH",
"452 392 OFFCURVE",
"381 476 OFFCURVE",
"240 476 CURVE SMOOTH",
"100 476 OFFCURVE",
"28 392 OFFCURVE",
"28 235 CURVE SMOOTH",
"28 78 OFFCURVE",
"100 -7 OFFCURVE",
"240 -7 CURVE SMOOTH"
);
},
{
closed = 1;
nodes = (
"153 39 OFFCURVE",
"118 96 OFFCURVE",
"118 235 CURVE SMOOTH",
"118 374 OFFCURVE",
"153 430 OFFCURVE",
"240 430 CURVE SMOOTH",
"327 430 OFFCURVE",
"364 374 OFFCURVE",
"364 235 CURVE SMOOTH",
"364 96 OFFCURVE",
"327 39 OFFCURVE",
"240 39 CURVE SMOOTH"
);
}
);
width = 480;
},
{
anchors = (
{
name = top;
position = "{266, 483}";
}
);
background = {
anchors = (
{
name = top;
position = "{266, 515}";
}
);
paths = (
{
closed = 1;
nodes = (
"172 380 OFFCURVE",
"199 436 OFFCURVE",
"266 436 CURVE SMOOTH",
"332 436 OFFCURVE",
"359 380 OFFCURVE",
"359 243 CURVE SMOOTH",
"359 105 OFFCURVE",
"332 49 OFFCURVE",
"266 49 CURVE SMOOTH",
"199 49 OFFCURVE",
"172 105 OFFCURVE",
"172 243 CURVE SMOOTH",
"172 243 LINE"
);
},
{
closed = 1;
nodes = (
"25 81 OFFCURVE",
"106 -7 OFFCURVE",
"266 -7 CURVE SMOOTH",
"426 -7 OFFCURVE",
"506 81 OFFCURVE",
"506 243 CURVE SMOOTH",
"506 405 OFFCURVE",
"426 492 OFFCURVE",
"266 492 CURVE SMOOTH",
"106 492 OFFCURVE",
"25 405 OFFCURVE",
"25 243 CURVE SMOOTH",
"25 243 LINE"
);
},
{
closed = 1;
nodes = (
"426 -7 OFFCURVE",
"506 81 OFFCURVE",
"506 243 CURVE SMOOTH",
"506 405 OFFCURVE",
"426 492 OFFCURVE",
"266 492 CURVE SMOOTH",
"106 492 OFFCURVE",
"25 405 OFFCURVE",
"25 243 CURVE SMOOTH",
"25 81 OFFCURVE",
"106 -7 OFFCURVE",
"266 -7 CURVE SMOOTH"
);
},
{
closed = 1;
nodes = (
"199 49 OFFCURVE",
"172 105 OFFCURVE",
"172 243 CURVE SMOOTH",
"172 380 OFFCURVE",
"199 436 OFFCURVE",
"266 436 CURVE SMOOTH",
"332 436 OFFCURVE",
"359 380 OFFCURVE",
"359 243 CURVE SMOOTH",
"359 105 OFFCURVE",
"332 49 OFFCURVE",
"266 49 CURVE SMOOTH"
);
}
);
};
layerId = "0EBA3A65-8808-4583-9AA2-2A9BC4F414AB";
paths = (
{
closed = 1;
nodes = (
"425 -7 OFFCURVE",
"505 80 OFFCURVE",
"505 242 CURVE SMOOTH",
"505 404 OFFCURVE",
"425 492 OFFCURVE",
"265 492 CURVE SMOOTH",
"105 492 OFFCURVE",
"25 403 OFFCURVE",
"25 241 CURVE SMOOTH",
"25 79 OFFCURVE",
"105 -7 OFFCURVE",
"265 -7 CURVE SMOOTH"
);
},
{
closed = 1;
nodes = (
"200 49 OFFCURVE",
"172 105 OFFCURVE",
"172 242 CURVE SMOOTH",
"172 379 OFFCURVE",
"200 436 OFFCURVE",
"265 436 CURVE SMOOTH",
"330 436 OFFCURVE",
"358 379 OFFCURVE",
"358 242 CURVE SMOOTH",
"358 105 OFFCURVE",
"330 49 OFFCURVE",
"265 49 CURVE SMOOTH"
);
}
);
width = 530;
}
);
leftKerningGroup = o;
rightKerningGroup = o;
unicode = 006F;
},
{
color = 4;
glyphname = p;
lastChange = "2019-11-29 02:40:00 +0000";
layers = (
{
background = {
paths = (
{
closed = 1;
nodes = (
"221 -171 OFFCURVE",
"198 -162 OFFCURVE",
"181 -149 CURVE",
"181 9 LINE",
"207 -2 OFFCURVE",
"233 -7 OFFCURVE",
"266 -7 CURVE SMOOTH",
"412 -7 OFFCURVE",
"492 81 OFFCURVE",
"492 244 CURVE SMOOTH",
"492 398 OFFCURVE",
"430 476 OFFCURVE",
"309 476 CURVE SMOOTH",
"249 476 OFFCURVE",
"205 452 OFFCURVE",
"178 406 CURVE",
"169 467 LINE",
"151 477 LINE",
"113 466 OFFCURVE",
"72 451 OFFCURVE",
"29 443 CURVE",
"26 414 LINE",
"77 412 OFFCURVE",
"95 398 OFFCURVE",
"95 348 CURVE SMOOTH",
"95 -149 LINE",
"75 -164 OFFCURVE",
"59 -170 OFFCURVE",
"30 -174 CURVE",
"26 -210 LINE",
"247 -210 LINE",
"250 -176 LINE"
);
},
{
closed = 1;
nodes = (
"371 433 OFFCURVE",
"404 374 OFFCURVE",
"404 244 CURVE SMOOTH",
"404 111 OFFCURVE",
"354 35 OFFCURVE",
"269 35 CURVE SMOOTH",
"224 35 OFFCURVE",
"199 45 OFFCURVE",
"181 55 CURVE",
"181 245 LINE SMOOTH",
"181 370 OFFCURVE",
"223 433 OFFCURVE",
"301 433 CURVE SMOOTH",
"301 433 LINE"
);
}
);
};
layerId = UUID0;
paths = (
{
closed = 1;
nodes = (
"247 -210 LINE",
"250 -176 LINE",
"221 -171 OFFCURVE",
"198 -162 OFFCURVE",
"181 -149 CURVE",
"181 9 LINE",
"207 -2 OFFCURVE",
"233 -7 OFFCURVE",
"266 -7 CURVE SMOOTH",
"412 -7 OFFCURVE",
"492 81 OFFCURVE",
"492 244 CURVE SMOOTH",
"492 398 OFFCURVE",
"430 476 OFFCURVE",
"309 476 CURVE SMOOTH",
"249 476 OFFCURVE",
"205 452 OFFCURVE",
"178 406 CURVE",
"169 467 LINE",
"151 477 LINE",
"113 466 OFFCURVE",
"72 451 OFFCURVE",
"29 443 CURVE",
"26 414 LINE",
"77 412 OFFCURVE",
"95 398 OFFCURVE",
"95 348 CURVE SMOOTH",
"95 -149 LINE",
"75 -164 OFFCURVE",
"59 -170 OFFCURVE",
"30 -174 CURVE",
"26 -210 LINE"
);
},
{
closed = 1;
nodes = (
"224 35 OFFCURVE",
"199 45 OFFCURVE",
"181 55 CURVE",
"181 245 LINE SMOOTH",
"181 370 OFFCURVE",
"223 433 OFFCURVE",
"301 433 CURVE SMOOTH",
"371 433 OFFCURVE",
"404 374 OFFCURVE",
"404 244 CURVE SMOOTH",
"404 111 OFFCURVE",
"354 35 OFFCURVE",
"269 35 CURVE SMOOTH"
);
}
);
width = 520;
},
{
background = {
paths = (
{
closed = 1;
nodes = (
"70 417 OFFCURVE",
"86 403 OFFCURVE",
"86 354 CURVE SMOOTH",
"86 -145 LINE",
"70 -160 OFFCURVE",
"58 -165 OFFCURVE",
"34 -170 CURVE",
"30 -211 LINE",
"297 -211 LINE",
"301 -172 LINE",
"267 -166 OFFCURVE",
"241 -154 OFFCURVE",
"227 -145 CURVE",
"227 17 LINE",
"256 2 OFFCURVE",
"283 -7 OFFCURVE",
"327 -7 CURVE SMOOTH",
"467 -7 OFFCURVE",
"548 83 OFFCURVE",
"548 256 CURVE SMOOTH",
"548 412 OFFCURVE",
"481 492 OFFCURVE",
"363 492 CURVE SMOOTH",
"297 492 OFFCURVE",
"250 467 OFFCURVE",
"221 416 CURVE",
"211 483 LINE",
"193 492 LINE",
"155 481 OFFCURVE",
"69 466 OFFCURVE",
"27 458 CURVE",
"24 419 LINE"
);
},
{
closed = 1;
nodes = (
"375 432 OFFCURVE",
"401 376 OFFCURVE",
"401 256 CURVE SMOOTH",
"401 121 OFFCURVE",
"368 46 OFFCURVE",
"293 46 CURVE SMOOTH",
"266 46 OFFCURVE",
"240 56 OFFCURVE",
"227 66 CURVE",
"227 268 LINE SMOOTH",
"227 377 OFFCURVE",
"263 432 OFFCURVE",
"319 432 CURVE SMOOTH",
"319 432 LINE"
);
}
);
};
layerId = "0EBA3A65-8808-4583-9AA2-2A9BC4F414AB";
paths = (
{
closed = 1;
nodes = (
"297 -211 LINE",
"301 -172 LINE",
"267 -166 OFFCURVE",
"241 -154 OFFCURVE",
"227 -145 CURVE",
"227 17 LINE",
"256 2 OFFCURVE",
"283 -7 OFFCURVE",
"327 -7 CURVE SMOOTH",
"467 -7 OFFCURVE",
"548 83 OFFCURVE",
"548 256 CURVE SMOOTH",
"548 412 OFFCURVE",
"481 492 OFFCURVE",
"363 492 CURVE SMOOTH",
"297 492 OFFCURVE",
"250 467 OFFCURVE",
"221 416 CURVE",
"211 483 LINE",
"193 492 LINE",
"155 481 OFFCURVE",
"69 466 OFFCURVE",
"27 458 CURVE",
"24 419 LINE",
"70 417 OFFCURVE",
"86 403 OFFCURVE",
"86 354 CURVE SMOOTH",
"86 -145 LINE",
"70 -160 OFFCURVE",
"58 -165 OFFCURVE",
"34 -170 CURVE",
"30 -211 LINE"
);
},
{
closed = 1;
nodes = (
"266 46 OFFCURVE",
"240 56 OFFCURVE",
"227 66 CURVE",
"227 268 LINE SMOOTH",
"227 377 OFFCURVE",
"263 432 OFFCURVE",
"319 432 CURVE SMOOTH",
"375 432 OFFCURVE",
"401 376 OFFCURVE",
"401 256 CURVE SMOOTH",
"401 121 OFFCURVE",
"368 46 OFFCURVE",
"293 46 CURVE SMOOTH"
);
}
);
width = 573;
}
);
leftKerningGroup = n;
rightKerningGroup = o;
unicode = 0070;
},
{
color = 4;
glyphname = q;
lastChange = "2019-11-29 02:40:09 +0000";
layers = (
{
background = {
paths = (
{
closed = 1;
nodes = (
"457 -172 OFFCURVE",
"433 -163 OFFCURVE",
"416 -151 CURVE",
"416 467 LINE",
"363 467 LINE",
"347 429 LINE",
"318 455 OFFCURVE",
"281 476 OFFCURVE",
"235 476 CURVE SMOOTH",
"85 476 OFFCURVE",
"28 372 OFFCURVE",
"28 232 CURVE SMOOTH",
"28 94 OFFCURVE",
"78 -7 OFFCURVE",
"217 -7 CURVE SMOOTH",
"272 -7 OFFCURVE",
"307 21 OFFCURVE",
"331 59 CURVE",
"331 -151 LINE",
"310 -166 OFFCURVE",
"295 -171 OFFCURVE",
"265 -176 CURVE",
"261 -212 LINE",
"482 -212 LINE",
"486 -178 LINE"
);
},
{
closed = 1;
nodes = (
"118 321 OFFCURVE",
"122 434 OFFCURVE",
"233 434 CURVE SMOOTH",
"273 434 OFFCURVE",
"306 409 OFFCURVE",
"331 383 CURVE",
"331 240 LINE SMOOTH",
"331 134 OFFCURVE",
"312 35 OFFCURVE",
"217 35 CURVE SMOOTH",
"127 35 OFFCURVE",
"118 130 OFFCURVE",
"118 232 CURVE SMOOTH",
"118 232 LINE"
);
}
);
};
layerId = UUID0;
paths = (
{
closed = 1;
nodes = (
"482 -212 LINE",
"486 -178 LINE",
"457 -172 OFFCURVE",
"433 -163 OFFCURVE",
"416 -151 CURVE",
"416 467 LINE",
"363 467 LINE",
"347 429 LINE",
"318 455 OFFCURVE",
"281 476 OFFCURVE",
"235 476 CURVE SMOOTH",
"85 476 OFFCURVE",
"28 372 OFFCURVE",
"28 232 CURVE SMOOTH",
"28 94 OFFCURVE",
"78 -7 OFFCURVE",
"217 -7 CURVE SMOOTH",
"272 -7 OFFCURVE",
"307 21 OFFCURVE",
"331 59 CURVE",
"331 -151 LINE",
"310 -166 OFFCURVE",
"295 -171 OFFCURVE",
"265 -176 CURVE",
"261 -212 LINE"
);
},
{
closed = 1;
nodes = (
"127 35 OFFCURVE",
"118 130 OFFCURVE",
"118 232 CURVE SMOOTH",
"118 321 OFFCURVE",
"122 434 OFFCURVE",
"233 434 CURVE SMOOTH",
"273 434 OFFCURVE",
"306 409 OFFCURVE",
"331 383 CURVE",
"331 240 LINE SMOOTH",
"331 134 OFFCURVE",
"312 35 OFFCURVE",
"217 35 CURVE SMOOTH"
);
}
);
width = 501;
},
{
background = {
paths = (
{
closed = 1;
nodes = (
"271 -7 OFFCURVE",
"316 15 OFFCURVE",
"345 59 CURVE",
"345 -145 LINE",
"322 -160 OFFCURVE",
"306 -165 OFFCURVE",
"272 -170 CURVE",
"269 -211 LINE",
"536 -211 LINE",
"539 -172 LINE",
"515 -166 OFFCURVE",
"496 -154 OFFCURVE",
"486 -145 CURVE",
"486 484 LINE",
"412 484 LINE",
"378 452 LINE",
"337 480 OFFCURVE",
"296 492 OFFCURVE",
"249 492 CURVE SMOOTH",
"112 492 OFFCURVE",
"25 407 OFFCURVE",
"25 242 CURVE SMOOTH",
"25 80 OFFCURVE",
"91 -7 OFFCURVE",
"209 -7 CURVE SMOOTH",
"209 -7 LINE"
);
},
{
closed = 1;
nodes = (
"197 53 OFFCURVE",
"171 115 OFFCURVE",
"171 243 CURVE SMOOTH",
"171 371 OFFCURVE",
"206 441 OFFCURVE",
"276 441 CURVE SMOOTH",
"308 441 OFFCURVE",
"330 425 OFFCURVE",
"345 408 CURVE",
"345 234 LINE SMOOTH",
"345 114 OFFCURVE",
"313 53 OFFCURVE",
"254 53 CURVE SMOOTH",
"254 53 LINE"
);
}
);
};
layerId = "0EBA3A65-8808-4583-9AA2-2A9BC4F414AB";
paths = (
{
closed = 1;
nodes = (
"536 -211 LINE",
"539 -172 LINE",
"515 -166 OFFCURVE",
"496 -154 OFFCURVE",
"486 -145 CURVE",
"486 484 LINE",
"412 484 LINE",
"378 452 LINE",
"337 480 OFFCURVE",
"296 492 OFFCURVE",
"249 492 CURVE SMOOTH",
"112 492 OFFCURVE",
"25 407 OFFCURVE",
"25 242 CURVE SMOOTH",
"25 80 OFFCURVE",
"91 -7 OFFCURVE",
"209 -7 CURVE SMOOTH",
"271 -7 OFFCURVE",
"316 15 OFFCURVE",
"345 59 CURVE",
"345 -145 LINE",
"322 -160 OFFCURVE",
"306 -165 OFFCURVE",
"272 -170 CURVE",
"269 -211 LINE"
);
},
{
closed = 1;
nodes = (
"197 53 OFFCURVE",
"171 115 OFFCURVE",
"171 243 CURVE SMOOTH",
"171 371 OFFCURVE",
"206 441 OFFCURVE",
"276 441 CURVE SMOOTH",
"308 441 OFFCURVE",
"330 425 OFFCURVE",
"345 408 CURVE",
"345 234 LINE SMOOTH",
"345 114 OFFCURVE",
"313 53 OFFCURVE",
"254 53 CURVE SMOOTH"
);
}
);
width = 559;
}
);
leftKerningGroup = o;
rightKerningGroup = q;
unicode = 0071;
},
{
color = 4;
glyphname = r;
lastChange = "2019-11-29 02:40:15 +0000";
layers = (
{
anchors = (
{
name = bottom;
position = "{156, 0}";
},
{
name = top;
position = "{211, 467}";
}
);
background = {
anchors = (
{
name = bottom;
position = "{141, 0}";
},
{
name = top;
position = "{211, 505}";
}
);
paths = (
{
closed = 1;
nodes = (
"81 411 OFFCURVE",
"100 397 OFFCURVE",
"100 347 CURVE SMOOTH",
"100 62 LINE",
"79 46 OFFCURVE",
"64 41 OFFCURVE",
"34 36 CURVE",
"30 0 LINE",
"260 0 LINE",
"264 34 LINE",
"232 40 OFFCURVE",
"204 49 OFFCURVE",
"185 62 CURVE",
"185 294 LINE SMOOTH",
"185 357 OFFCURVE",
"234 421 OFFCURVE",
"270 421 CURVE SMOOTH",
"289 421 OFFCURVE",
"298 410 OFFCURVE",
"298 391 CURVE SMOOTH",
"298 382 OFFCURVE",
"293 368 OFFCURVE",
"288 363 CURVE",
"294 343 OFFCURVE",
"317 332 OFFCURVE",
"339 332 CURVE SMOOTH",
"373 332 OFFCURVE",
"392 364 OFFCURVE",
"392 395 CURVE SMOOTH",
"392 450 OFFCURVE",
"347 476 OFFCURVE",
"303 476 CURVE SMOOTH",
"254 476 OFFCURVE",
"211 439 OFFCURVE",
"183 397 CURVE",
"173 467 LINE",
"155 476 LINE",
"117 465 OFFCURVE",
"76 450 OFFCURVE",
"33 442 CURVE",
"30 413 LINE"
);
}
);
};
layerId = UUID0;
paths = (
{
closed = 1;
nodes = (
"260 0 LINE",
"264 34 LINE",
"232 40 OFFCURVE",
"204 49 OFFCURVE",
"185 62 CURVE",
"185 294 LINE SMOOTH",
"185 357 OFFCURVE",
"234 421 OFFCURVE",
"270 421 CURVE SMOOTH",
"289 421 OFFCURVE",
"298 410 OFFCURVE",
"298 391 CURVE SMOOTH",
"298 382 OFFCURVE",
"293 368 OFFCURVE",
"288 363 CURVE",
"294 343 OFFCURVE",
"317 332 OFFCURVE",
"339 332 CURVE SMOOTH",
"373 332 OFFCURVE",
"392 364 OFFCURVE",
"392 395 CURVE SMOOTH",
"392 450 OFFCURVE",
"347 476 OFFCURVE",
"303 476 CURVE SMOOTH",
"254 476 OFFCURVE",
"211 439 OFFCURVE",
"183 397 CURVE",
"173 467 LINE",
"155 476 LINE",
"117 465 OFFCURVE",
"76 450 OFFCURVE",
"33 442 CURVE",
"30 413 LINE",
"81 411 OFFCURVE",
"100 397 OFFCURVE",
"100 347 CURVE SMOOTH",
"100 62 LINE",
"79 46 OFFCURVE",
"64 41 OFFCURVE",
"34 36 CURVE",
"30 0 LINE"
);
}
);
width = 396;
},
{
anchors = (
{
name = bottom;
position = "{169, 0}";
},
{
name = top;
position = "{257, 484}";
}
);
background = {
anchors = (
{
name = bottom;
position = "{157, 0}";
},
{
name = top;
position = "{257, 515}";
}
);
paths = (
{
closed = 1;
nodes = (
"266 45 OFFCURVE",
"246 54 OFFCURVE",
"231 66 CURVE",
"231 353 LINE",
"247 391 OFFCURVE",
"277 416 OFFCURVE",
"305 416 CURVE SMOOTH",
"327 416 OFFCURVE",
"349 402 OFFCURVE",
"349 380 CURVE SMOOTH",
"349 370 OFFCURVE",
"345 359 OFFCURVE",
"335 347 CURVE",
"347 330 OFFCURVE",
"365 322 OFFCURVE",
"384 322 CURVE SMOOTH",
"417 322 OFFCURVE",
"452 348 OFFCURVE",
"452 399 CURVE SMOOTH",
"452 453 OFFCURVE",
"406 491 OFFCURVE",
"356 491 CURVE SMOOTH",
"300 491 OFFCURVE",
"256 459 OFFCURVE",
"227 417 CURVE",
"219 483 LINE",
"201 492 LINE",
"163 481 OFFCURVE",
"73 466 OFFCURVE",
"30 458 CURVE",
"27 419 LINE",
"73 417 OFFCURVE",
"90 403 OFFCURVE",
"90 354 CURVE SMOOTH",
"90 66 LINE",
"73 51 OFFCURVE",
"62 46 OFFCURVE",
"37 41 CURVE",
"34 0 LINE",
"287 0 LINE",
"291 39 LINE"
);
}
);
};
layerId = "0EBA3A65-8808-4583-9AA2-2A9BC4F414AB";
paths = (
{
closed = 1;
nodes = (
"287 0 LINE",
"291 39 LINE",
"266 45 OFFCURVE",
"246 54 OFFCURVE",
"231 66 CURVE",
"231 353 LINE",
"247 391 OFFCURVE",
"277 416 OFFCURVE",
"305 416 CURVE SMOOTH",
"327 416 OFFCURVE",
"349 402 OFFCURVE",
"349 380 CURVE SMOOTH",
"349 370 OFFCURVE",
"345 359 OFFCURVE",
"335 347 CURVE",
"347 330 OFFCURVE",
"365 322 OFFCURVE",
"384 322 CURVE SMOOTH",
"417 322 OFFCURVE",
"452 348 OFFCURVE",
"452 399 CURVE SMOOTH",
"452 453 OFFCURVE",
"406 491 OFFCURVE",
"356 491 CURVE SMOOTH",
"300 491 OFFCURVE",
"256 459 OFFCURVE",
"227 417 CURVE",
"219 483 LINE",
"201 492 LINE",
"163 481 OFFCURVE",
"73 466 OFFCURVE",
"30 458 CURVE",
"27 419 LINE",
"73 417 OFFCURVE",
"90 403 OFFCURVE",
"90 354 CURVE SMOOTH",
"90 66 LINE",
"73 51 OFFCURVE",
"62 46 OFFCURVE",
"37 41 CURVE",
"34 0 LINE"
);
}
);
width = 454;
}
);
leftKerningGroup = n;
rightKerningGroup = r;
unicode = 0072;
},
{
color = 4;
glyphname = s;
lastChange = "2019-11-29 02:40:20 +0000";
layers = (
{
anchors = (
{
name = bottom;
position = "{198, 0}";
},
{
name = cedilla;
position = "{209, 0}";
},
{
name = top;
position = "{198, 467}";
}
);
background = {
anchors = (
{
name = bottom;
position = "{198, 0}";
},
{
name = cedilla;
position = "{209, 0}";
},
{
name = top;
position = "{198, 505}";
}
);
paths = (
{
closed = 1;
nodes = (
"239 435 OFFCURVE",
"274 416 OFFCURVE",
"274 388 CURVE SMOOTH",
"274 374 OFFCURVE",
"268 360 OFFCURVE",
"257 352 CURVE",
"270 333 OFFCURVE",
"286 325 OFFCURVE",
"311 325 CURVE SMOOTH",
"341 325 OFFCURVE",
"357 343 OFFCURVE",
"357 377 CURVE SMOOTH",
"357 431 OFFCURVE",
"288 475 OFFCURVE",
"202 475 CURVE SMOOTH",
"97 475 OFFCURVE",
"35 426 OFFCURVE",
"35 347 CURVE SMOOTH",
"35 174 OFFCURVE",
"284 225 OFFCURVE",
"284 116 CURVE SMOOTH",
"284 73 OFFCURVE",
"246 39 OFFCURVE",
"191 39 CURVE SMOOTH",
"160 39 OFFCURVE",
"133 43 OFFCURVE",
"114 49 CURVE",
"99 78 OFFCURVE",
"92 104 OFFCURVE",
"87 162 CURVE",
"34 155 LINE",
"34 32 LINE",
"64 13 OFFCURVE",
"135 -6 OFFCURVE",
"183 -6 CURVE SMOOTH",
"296 -6 OFFCURVE",
"362 46 OFFCURVE",
"362 136 CURVE SMOOTH",
"362 302 OFFCURVE",
"110 255 OFFCURVE",
"110 368 CURVE SMOOTH",
"110 409 OFFCURVE",
"143 435 OFFCURVE",
"196 435 CURVE SMOOTH",
"196 435 LINE"
);
}
);
};
layerId = UUID0;
paths = (
{
closed = 1;
nodes = (
"296 -6 OFFCURVE",
"362 46 OFFCURVE",
"362 136 CURVE SMOOTH",
"362 224 OFFCURVE",
"292 252 OFFCURVE",
"226 276 CURVE SMOOTH",
"166 297 OFFCURVE",
"110 315 OFFCURVE",
"110 368 CURVE SMOOTH",
"110 409 OFFCURVE",
"143 435 OFFCURVE",
"196 435 CURVE SMOOTH",
"239 435 OFFCURVE",
"274 416 OFFCURVE",
"274 388 CURVE SMOOTH",
"274 374 OFFCURVE",
"268 360 OFFCURVE",
"257 352 CURVE",
"270 333 OFFCURVE",
"286 325 OFFCURVE",
"311 325 CURVE SMOOTH",
"341 325 OFFCURVE",
"357 343 OFFCURVE",
"357 377 CURVE SMOOTH",
"357 431 OFFCURVE",
"288 475 OFFCURVE",
"202 475 CURVE SMOOTH",
"97 475 OFFCURVE",
"35 426 OFFCURVE",
"35 347 CURVE SMOOTH",
"35 252 OFFCURVE",
"110 225 OFFCURVE",
"178 201 CURVE SMOOTH",
"233 182 OFFCURVE",
"284 165 OFFCURVE",
"284 116 CURVE SMOOTH",
"284 73 OFFCURVE",
"246 39 OFFCURVE",
"191 39 CURVE SMOOTH",
"160 39 OFFCURVE",
"133 43 OFFCURVE",
"114 49 CURVE",
"99 78 OFFCURVE",
"92 104 OFFCURVE",
"87 162 CURVE",
"34 155 LINE",
"34 32 LINE",
"64 13 OFFCURVE",
"135 -6 OFFCURVE",
"183 -6 CURVE SMOOTH"
);
}
);
width = 392;
},
{
anchors = (
{
name = bottom;
position = "{210, 0}";
},
{
name = cedilla;
position = "{226, 0}";
},
{
name = top;
position = "{230, 484}";
}
);
background = {
anchors = (
{
name = bottom;
position = "{210, 0}";
},
{
name = cedilla;
position = "{226, 0}";
},
{
name = top;
position = "{230, 515}";
}
);
paths = (
{
closed = 1;
nodes = (
"264 448 OFFCURVE",
"289 429 OFFCURVE",
"289 400 CURVE SMOOTH",
"289 385 OFFCURVE",
"282 369 OFFCURVE",
"269 355 CURVE",
"284 334 OFFCURVE",
"309 322 OFFCURVE",
"337 322 CURVE SMOOTH",
"380 322 OFFCURVE",
"408 352 OFFCURVE",
"408 399 CURVE SMOOTH",
"408 451 OFFCURVE",
"326 493 OFFCURVE",
"226 493 CURVE SMOOTH",
"104 493 OFFCURVE",
"31 443 OFFCURVE",
"31 359 CURVE SMOOTH",
"31 281 OFFCURVE",
"77 234 OFFCURVE",
"186 198 CURVE SMOOTH",
"250 176 OFFCURVE",
"279 148 OFFCURVE",
"279 109 CURVE SMOOTH",
"279 71 OFFCURVE",
"249 42 OFFCURVE",
"209 42 CURVE SMOOTH",
"190 42 OFFCURVE",
"173 45 OFFCURVE",
"154 51 CURVE",
"144 68 OFFCURVE",
"134 127 OFFCURVE",
"133 170 CURVE",
"30 155 LINE",
"30 45 LINE",
"69 18 OFFCURVE",
"155 -8 OFFCURVE",
"207 -8 CURVE SMOOTH",
"337 -8 OFFCURVE",
"412 47 OFFCURVE",
"412 142 CURVE SMOOTH",
"412 212 OFFCURVE",
"369 259 OFFCURVE",
"272 294 CURVE SMOOTH",
"187 324 OFFCURVE",
"161 345 OFFCURVE",
"161 379 CURVE SMOOTH",
"161 421 OFFCURVE",
"187 448 OFFCURVE",
"226 448 CURVE SMOOTH",
"226 448 LINE"
);
}
);
};
layerId = "0EBA3A65-8808-4583-9AA2-2A9BC4F414AB";
paths = (
{
closed = 1;
nodes = (
"337 -8 OFFCURVE",
"412 47 OFFCURVE",
"412 142 CURVE SMOOTH",
"412 212 OFFCURVE",
"369 259 OFFCURVE",
"272 294 CURVE SMOOTH",
"187 324 OFFCURVE",
"161 345 OFFCURVE",
"161 379 CURVE SMOOTH",
"161 421 OFFCURVE",
"187 448 OFFCURVE",
"226 448 CURVE SMOOTH",
"264 448 OFFCURVE",
"289 429 OFFCURVE",
"289 400 CURVE SMOOTH",
"289 385 OFFCURVE",
"282 369 OFFCURVE",
"269 355 CURVE",
"284 334 OFFCURVE",
"309 322 OFFCURVE",
"337 322 CURVE SMOOTH",
"380 322 OFFCURVE",
"408 352 OFFCURVE",
"408 399 CURVE SMOOTH",
"408 451 OFFCURVE",
"326 493 OFFCURVE",
"226 493 CURVE SMOOTH",
"104 493 OFFCURVE",
"31 443 OFFCURVE",
"31 359 CURVE SMOOTH",
"31 281 OFFCURVE",
"79 235 OFFCURVE",
"175 202 CURVE SMOOTH",
"252 176 OFFCURVE",
"279 148 OFFCURVE",
"279 109 CURVE SMOOTH",
"279 71 OFFCURVE",
"249 42 OFFCURVE",
"209 42 CURVE SMOOTH",
"190 42 OFFCURVE",
"173 45 OFFCURVE",
"154 51 CURVE",
"144 68 OFFCURVE",
"134 127 OFFCURVE",
"133 170 CURVE",
"30 155 LINE",
"30 45 LINE",
"69 18 OFFCURVE",
"155 -8 OFFCURVE",
"207 -8 CURVE SMOOTH"
);
}
);
width = 444;
}
);
leftKerningGroup = s;
rightKerningGroup = s;
unicode = 0073;
},
{
color = 4;
glyphname = t;
lastChange = "2019-12-10 01:21:58 +0000";
layers = (
{
anchors = (
{
name = bottom;
position = "{206, 0}";
},
{
name = top_right;
position = "{234, 670}";
}
);
background = {
anchors = (
{
name = bottom;
position = "{150, 0}";
}
);
paths = (
{
closed = 1;
nodes = (
"284 48 OFFCURVE",
"263 37 OFFCURVE",
"230 37 CURVE SMOOTH",
"181 37 OFFCURVE",
"177 63 OFFCURVE",
"177 106 CURVE SMOOTH",
"177 413 LINE",
"306 413 LINE",
"306 467 LINE",
"178 467 LINE",
"178 564 LINE",
"138 564 LINE",
"118 507 OFFCURVE",
"78 466 OFFCURVE",
"10 443 CURVE",
"10 413 LINE",
"91 413 LINE",
"91 113 LINE SMOOTH",
"91 28 OFFCURVE",
"114 -10 OFFCURVE",
"206 -10 CURVE SMOOTH",
"271 -10 OFFCURVE",
"305 16 OFFCURVE",
"320 27 CURVE",
"300 57 LINE"
);
}
);
};
guideLines = (
{
position = "{369, 675}";
}
);
layerId = UUID0;
paths = (
{
closed = 1;
nodes = (
"271 -10 OFFCURVE",
"305 16 OFFCURVE",
"320 27 CURVE",
"300 57 LINE",
"284 48 OFFCURVE",
"263 37 OFFCURVE",
"230 37 CURVE SMOOTH",
"181 37 OFFCURVE",
"177 63 OFFCURVE",
"177 106 CURVE SMOOTH",
"177 413 LINE",
"306 413 LINE",
"306 467 LINE",
"178 467 LINE",
"178 564 LINE",
"138 564 LINE",
"118 507 OFFCURVE",
"78 466 OFFCURVE",
"10 443 CURVE",
"10 413 LINE",
"91 413 LINE",
"91 113 LINE SMOOTH",
"91 28 OFFCURVE",
"114 -10 OFFCURVE",
"206 -10 CURVE SMOOTH"
);
}
);
width = 325;
},
{
anchors = (
{
name = bottom;
position = "{193, 0}";
},
{
name = top_right;
position = "{296, 693}";
}
);
background = {
anchors = (
{
name = bottom;
position = "{173, 0}";
}
);
paths = (
{
closed = 1;
nodes = (
"322 79 OFFCURVE",
"294 68 OFFCURVE",
"270 68 CURVE SMOOTH",
"243 68 OFFCURVE",
"222 82 OFFCURVE",
"222 121 CURVE SMOOTH",
"222 413 LINE",
"351 413 LINE",
"351 478 LINE",
"223 478 LINE",
"223 584 LINE",
"158 584 LINE",
"127 525 OFFCURVE",
"73 483 OFFCURVE",
"9 459 CURVE",
"9 413 LINE",
"80 413 LINE",
"80 113 LINE SMOOTH",
"80 29 OFFCURVE",
"136 -4 OFFCURVE",
"202 -4 CURVE SMOOTH",
"258 -4 OFFCURVE",
"320 20 OFFCURVE",
"362 58 CURVE",
"342 93 LINE"
);
}
);
};
layerId = "0EBA3A65-8808-4583-9AA2-2A9BC4F414AB";
paths = (
{
closed = 1;
nodes = (
"258 -4 OFFCURVE",
"320 20 OFFCURVE",
"362 58 CURVE",
"342 93 LINE",
"322 79 OFFCURVE",
"294 68 OFFCURVE",
"270 68 CURVE SMOOTH",
"243 68 OFFCURVE",
"222 82 OFFCURVE",
"222 121 CURVE SMOOTH",
"222 413 LINE",
"351 413 LINE",
"351 478 LINE",
"223 478 LINE",
"223 584 LINE",
"158 584 LINE",
"127 525 OFFCURVE",
"73 483 OFFCURVE",
"9 459 CURVE",
"9 413 LINE",
"80 413 LINE",
"80 113 LINE SMOOTH",
"80 29 OFFCURVE",
"136 -4 OFFCURVE",
"202 -4 CURVE SMOOTH"
);
}
);
width = 365;
}
);
leftKerningGroup = t;
rightKerningGroup = t;
unicode = 0074;
},
{
color = 4;
glyphname = u;
lastChange = "2019-12-01 02:28:37 +0000";
layers = (
{
anchors = (
{
name = ogonek;
position = "{453, 0}";
},
{
name = top;
position = "{268, 467}";
}
);
background = {
anchors = (
{
name = ogonek;
position = "{517, 0}";
},
{
name = top;
position = "{269, 505}";
}
);
paths = (
{
closed = 1;
nodes = (
"347 413 OFFCURVE",
"366 399 OFFCURVE",
"366 349 CURVE SMOOTH",
"366 117 LINE",
"334 59 OFFCURVE",
"290 38 OFFCURVE",
"260 38 CURVE SMOOTH",
"198 38 OFFCURVE",
"174 81 OFFCURVE",
"174 143 CURVE SMOOTH",
"174 469 LINE",
"154 479 LINE",
"113 467 OFFCURVE",
"66 452 OFFCURVE",
"21 444 CURVE",
"19 415 LINE",
"70 413 OFFCURVE",
"88 399 OFFCURVE",
"88 349 CURVE SMOOTH",
"88 154 LINE SMOOTH",
"88 47 OFFCURVE",
"142 -7 OFFCURVE",
"249 -7 CURVE SMOOTH",
"294 -7 OFFCURVE",
"339 16 OFFCURVE",
"374 63 CURVE",
"384 0 LINE",
"517 0 LINE",
"520 35 LINE",
"492 40 OFFCURVE",
"463 52 OFFCURVE",
"451 62 CURVE",
"451 469 LINE",
"432 479 LINE",
"391 467 OFFCURVE",
"344 452 OFFCURVE",
"299 444 CURVE",
"296 415 LINE"
);
}
);
};
layerId = UUID0;
paths = (
{
closed = 1;
nodes = (
"294 -7 OFFCURVE",
"339 16 OFFCURVE",
"374 63 CURVE",
"384 0 LINE",
"517 0 LINE",
"520 35 LINE",
"492 40 OFFCURVE",
"463 52 OFFCURVE",
"451 62 CURVE",
"451 469 LINE",
"432 479 LINE",
"391 467 OFFCURVE",
"344 452 OFFCURVE",
"299 444 CURVE",
"296 415 LINE",
"347 413 OFFCURVE",
"366 399 OFFCURVE",
"366 349 CURVE SMOOTH",
"366 117 LINE",
"334 59 OFFCURVE",
"290 38 OFFCURVE",
"260 38 CURVE SMOOTH",
"198 38 OFFCURVE",
"174 81 OFFCURVE",
"174 143 CURVE SMOOTH",
"174 469 LINE",
"154 479 LINE",
"113 467 OFFCURVE",
"66 452 OFFCURVE",
"21 444 CURVE",
"19 415 LINE",
"70 413 OFFCURVE",
"88 399 OFFCURVE",
"88 349 CURVE SMOOTH",
"88 154 LINE SMOOTH",
"88 47 OFFCURVE",
"142 -7 OFFCURVE",
"249 -7 CURVE SMOOTH"
);
}
);
width = 546;
},
{
anchors = (
{
name = ogonek;
position = "{484, 0}";
},
{
name = top;
position = "{293, 484}";
}
);
background = {
anchors = (
{
name = ogonek;
position = "{586, 0}";
},
{
name = top;
position = "{293, 515}";
}
);
paths = (
{
closed = 1;
nodes = (
"513 483 LINE",
"495 492 LINE",
"457 481 OFFCURVE",
"354 466 OFFCURVE",
"312 458 CURVE",
"309 419 LINE",
"355 417 OFFCURVE",
"372 403 OFFCURVE",
"372 354 CURVE SMOOTH",
"372 115 LINE",
"352 81 OFFCURVE",
"317 60 OFFCURVE",
"282 60 CURVE SMOOTH",
"241 60 OFFCURVE",
"220 91 OFFCURVE",
"220 156 CURVE SMOOTH",
"220 483 LINE",
"203 492 LINE",
"165 481 OFFCURVE",
"62 466 OFFCURVE",
"20 458 CURVE",
"17 419 LINE",
"62 417 OFFCURVE",
"79 403 OFFCURVE",
"79 354 CURVE SMOOTH",
"79 147 LINE SMOOTH",
"79 50 OFFCURVE",
"139 -7 OFFCURVE",
"229 -7 CURVE SMOOTH",
"291 -7 OFFCURVE",
"343 21 OFFCURVE",
"378 64 CURVE",
"388 0 LINE",
"579 0 LINE",
"582 35 LINE",
"554 40 OFFCURVE",
"525 52 OFFCURVE",
"513 62 CURVE",
"513 62 LINE"
);
}
);
};
layerId = "0EBA3A65-8808-4583-9AA2-2A9BC4F414AB";
paths = (
{
closed = 1;
nodes = (
"291 -7 OFFCURVE",
"343 21 OFFCURVE",
"378 64 CURVE",
"388 0 LINE",
"579 0 LINE",
"582 35 LINE",
"554 40 OFFCURVE",
"525 52 OFFCURVE",
"513 62 CURVE",
"513 483 LINE",
"495 492 LINE",
"457 481 OFFCURVE",
"354 466 OFFCURVE",
"312 458 CURVE",
"309 419 LINE",
"355 417 OFFCURVE",
"372 403 OFFCURVE",
"372 354 CURVE SMOOTH",
"372 115 LINE",
"352 81 OFFCURVE",
"317 60 OFFCURVE",
"282 60 CURVE SMOOTH",
"241 60 OFFCURVE",
"220 91 OFFCURVE",
"220 156 CURVE SMOOTH",
"220 483 LINE",
"203 492 LINE",
"165 481 OFFCURVE",
"62 466 OFFCURVE",
"20 458 CURVE",
"17 419 LINE",
"62 417 OFFCURVE",
"79 403 OFFCURVE",
"79 354 CURVE SMOOTH",
"79 147 LINE SMOOTH",
"79 50 OFFCURVE",
"139 -7 OFFCURVE",
"229 -7 CURVE SMOOTH"
);
}
);
width = 609;
}
);
leftKerningGroup = u;
rightKerningGroup = u;
unicode = 0075;
},
{
color = 4;
glyphname = v;
lastChange = "2019-12-10 00:48:24 +0000";
layers = (
{
background = {
paths = (
{
closed = 1;
nodes = (
"253 0 LINE",
"405 407 LINE SMOOTH",
"412 426 OFFCURVE",
"446 432 OFFCURVE",
"472 437 CURVE",
"475 467 LINE",
"285 467 LINE",
"282 437 LINE",
"304 433 OFFCURVE",
"324 428 OFFCURVE",
"342 415 CURVE",
"236 96 LINE",
"130 415 LINE",
"148 431 OFFCURVE",
"170 434 OFFCURVE",
"192 437 CURVE",
"195 467 LINE",
"-28 467 LINE",
"-30 437 LINE",
"0 431 OFFCURVE",
"31 423 OFFCURVE",
"41 395 CURVE SMOOTH",
"186 0 LINE"
);
}
);
};
layerId = UUID0;
paths = (
{
closed = 1;
nodes = (
"253 0 LINE",
"403 401 LINE SMOOTH",
"410 420 OFFCURVE",
"422 428 OFFCURVE",
"472 437 CURVE",
"475 467 LINE",
"285 467 LINE",
"282 437 LINE",
"304 433 OFFCURVE",
"324 428 OFFCURVE",
"342 415 CURVE",
"236 96 LINE",
"130 415 LINE",
"148 431 OFFCURVE",
"170 434 OFFCURVE",
"192 437 CURVE",
"195 467 LINE",
"-28 467 LINE",
"-30 437 LINE",
"20 427 OFFCURVE",
"34 415 OFFCURVE",
"43 390 CURVE SMOOTH",
"186 0 LINE"
);
}
);
width = 470;
},
{
background = {
paths = (
{
closed = 1;
nodes = (
"465 425 LINE",
"475 438 OFFCURVE",
"495 448 OFFCURVE",
"517 449 CURVE",
"521 484 LINE",
"335 484 LINE",
"331 449 LINE",
"355 445 OFFCURVE",
"376 440 OFFCURVE",
"396 427 CURVE",
"286 151 LINE",
"187 430 LINE",
"204 443 OFFCURVE",
"223 448 OFFCURVE",
"244 449 CURVE",
"249 484 LINE",
"-13 484 LINE",
"-15 449 LINE",
"9 445 OFFCURVE",
"37 435 OFFCURVE",
"47 407 CURVE SMOOTH",
"191 0 LINE",
"294 0 LINE"
);
}
);
};
layerId = "0EBA3A65-8808-4583-9AA2-2A9BC4F414AB";
paths = (
{
closed = 1;
nodes = (
"294 0 LINE",
"465 425 LINE",
"475 438 OFFCURVE",
"495 448 OFFCURVE",
"517 449 CURVE",
"521 484 LINE",
"335 484 LINE",
"331 449 LINE",
"355 445 OFFCURVE",
"376 440 OFFCURVE",
"396 427 CURVE",
"286 151 LINE",
"187 430 LINE",
"204 443 OFFCURVE",
"223 448 OFFCURVE",
"244 449 CURVE",
"249 484 LINE",
"-13 484 LINE",
"-15 449 LINE",
"9 445 OFFCURVE",
"37 435 OFFCURVE",
"47 407 CURVE SMOOTH",
"191 0 LINE"
);
}
);
width = 519;
}
);
leftKerningGroup = v;
rightKerningGroup = v;
unicode = 0076;
},
{
color = 4;
glyphname = w;
lastChange = "2019-12-01 02:31:59 +0000";
layers = (
{
anchors = (
{
name = top;
position = "{347, 467}";
}
);
background = {
anchors = (
{
name = top;
position = "{347, 505}";
}
);
paths = (
{
closed = 1;
nodes = (
"241 0 LINE",
"344 291 LINE",
"451 0 LINE",
"512 0 LINE",
"655 407 LINE SMOOTH",
"662 426 OFFCURVE",
"696 432 OFFCURVE",
"722 437 CURVE",
"725 467 LINE",
"536 467 LINE",
"533 437 LINE",
"555 433 OFFCURVE",
"575 428 OFFCURVE",
"592 415 CURVE",
"499 103 LINE",
"377 450 LINE",
"338 450 LINE",
"226 104 LINE",
"130 415 LINE",
"148 431 OFFCURVE",
"170 434 OFFCURVE",
"192 437 CURVE",
"195 467 LINE",
"-28 467 LINE",
"-30 437 LINE",
"0 431 OFFCURVE",
"31 423 OFFCURVE",
"41 395 CURVE SMOOTH",
"179 0 LINE"
);
}
);
};
layerId = UUID0;
paths = (
{
closed = 1;
nodes = (
"241 0 LINE",
"344 291 LINE",
"451 0 LINE",
"512 0 LINE",
"653 401 LINE SMOOTH",
"659 419 OFFCURVE",
"672 428 OFFCURVE",
"722 437 CURVE",
"725 467 LINE",
"536 467 LINE",
"533 437 LINE",
"555 433 OFFCURVE",
"575 428 OFFCURVE",
"592 415 CURVE",
"499 103 LINE",
"377 450 LINE",
"338 450 LINE",
"226 104 LINE",
"130 415 LINE",
"148 431 OFFCURVE",
"170 434 OFFCURVE",
"192 437 CURVE",
"195 467 LINE",
"-28 467 LINE",
"-30 437 LINE",
"20 426 OFFCURVE",
"33 417 OFFCURVE",
"42 391 CURVE SMOOTH",
"179 0 LINE"
);
}
);
width = 720;
},
{
anchors = (
{
name = top;
position = "{420, 484}";
}
);
background = {
anchors = (
{
name = top;
position = "{420, 515}";
}
);
paths = (
{
closed = 1;
nodes = (
"381 298 LINE",
"472 0 LINE",
"575 0 LINE",
"722 421 LINE",
"731 436 OFFCURVE",
"752 448 OFFCURVE",
"776 449 CURVE",
"780 484 LINE",
"594 484 LINE",
"590 449 LINE",
"614 445 OFFCURVE",
"634 440 OFFCURVE",
"654 427 CURVE",
"561 153 LINE",
"466 484 LINE",
"376 484 LINE",
"263 154 LINE",
"185 428 LINE",
"203 443 OFFCURVE",
"222 448 OFFCURVE",
"244 449 CURVE",
"249 484 LINE",
"-13 484 LINE",
"-15 449 LINE",
"5 445 OFFCURVE",
"29 438 OFFCURVE",
"42 418 CURVE",
"174 0 LINE",
"277 0 LINE"
);
}
);
};
layerId = "0EBA3A65-8808-4583-9AA2-2A9BC4F414AB";
paths = (
{
closed = 1;
nodes = (
"277 0 LINE",
"381 298 LINE",
"472 0 LINE",
"575 0 LINE",
"722 421 LINE",
"731 436 OFFCURVE",
"752 448 OFFCURVE",
"776 449 CURVE",
"780 484 LINE",
"594 484 LINE",
"590 449 LINE",
"614 445 OFFCURVE",
"634 440 OFFCURVE",
"654 427 CURVE",
"561 153 LINE",
"466 484 LINE",
"376 484 LINE",
"263 154 LINE",
"185 428 LINE",
"203 443 OFFCURVE",
"222 448 OFFCURVE",
"244 449 CURVE",
"249 484 LINE",
"-13 484 LINE",
"-15 449 LINE",
"5 445 OFFCURVE",
"29 438 OFFCURVE",
"42 418 CURVE",
"174 0 LINE"
);
}
);
width = 779;
}
);
leftKerningGroup = w;
rightKerningGroup = w;
unicode = 0077;
},
{
color = 4;
glyphname = x;
lastChange = "2019-12-01 02:32:17 +0000";
layers = (
{
background = {
paths = (
{
closed = 1;
nodes = (
"195 0 LINE",
"198 36 LINE",
"170 39 OFFCURVE",
"149 42 OFFCURVE",
"131 56 CURVE",
"230 188 LINE",
"330 53 LINE",
"314 42 OFFCURVE",
"293 39 OFFCURVE",
"267 36 CURVE",
"263 0 LINE",
"479 0 LINE",
"483 37 LINE",
"458 40 OFFCURVE",
"441 44 OFFCURVE",
"424 62 CURVE",
"285 250 LINE",
"402 405 LINE SMOOTH",
"418 426 OFFCURVE",
"445 433 OFFCURVE",
"476 437 CURVE",
"480 467 LINE",
"279 467 LINE",
"276 437 LINE",
"308 433 OFFCURVE",
"325 423 OFFCURVE",
"343 409 CURVE",
"255 292 LINE",
"163 416 LINE",
"179 428 OFFCURVE",
"196 435 OFFCURVE",
"224 437 CURVE",
"229 467 LINE",
"14 467 LINE",
"11 437 LINE",
"40 433 OFFCURVE",
"58 423 OFFCURVE",
"73 402 CURVE SMOOTH",
"200 229 LINE",
"73 62 LINE",
"56 43 OFFCURVE",
"32 39 OFFCURVE",
"0 36 CURVE",
"-3 0 LINE"
);
}
);
};
layerId = UUID0;
paths = (
{
closed = 1;
nodes = (
"195 0 LINE",
"198 36 LINE",
"170 39 OFFCURVE",
"149 42 OFFCURVE",
"131 56 CURVE",
"230 188 LINE",
"330 53 LINE",
"314 42 OFFCURVE",
"293 39 OFFCURVE",
"267 36 CURVE",
"263 0 LINE",
"479 0 LINE",
"483 37 LINE",
"458 40 OFFCURVE",
"441 44 OFFCURVE",
"424 62 CURVE",
"285 250 LINE",
"402 405 LINE SMOOTH",
"416 423 OFFCURVE",
"435 432 OFFCURVE",
"476 437 CURVE",
"480 467 LINE",
"279 467 LINE",
"276 437 LINE",
"308 433 OFFCURVE",
"325 423 OFFCURVE",
"343 409 CURVE",
"255 292 LINE",
"163 416 LINE",
"179 428 OFFCURVE",
"196 435 OFFCURVE",
"224 437 CURVE",
"229 467 LINE",
"14 467 LINE",
"11 437 LINE",
"40 433 OFFCURVE",
"58 423 OFFCURVE",
"73 402 CURVE SMOOTH",
"200 229 LINE",
"73 62 LINE",
"56 43 OFFCURVE",
"32 39 OFFCURVE",
"0 36 CURVE",
"-3 0 LINE"
);
}
);
width = 483;
},
{
background = {
paths = (
{
closed = 1;
nodes = (
"305 46 OFFCURVE",
"292 41 OFFCURVE",
"276 41 CURVE",
"268 0 LINE",
"511 0 LINE",
"517 39 LINE",
"500 42 OFFCURVE",
"482 48 OFFCURVE",
"472 62 CURVE SMOOTH",
"325 268 LINE",
"455 427 LINE SMOOTH",
"465 439 OFFCURVE",
"483 442 OFFCURVE",
"502 443 CURVE",
"508 484 LINE",
"329 484 LINE",
"323 444 LINE",
"340 441 OFFCURVE",
"357 435 OFFCURVE",
"369 424 CURVE",
"287 322 LINE",
"211 429 LINE",
"221 437 OFFCURVE",
"234 440 OFFCURVE",
"250 442 CURVE",
"257 483 LINE",
"15 483 LINE",
"9 444 LINE",
"26 440 OFFCURVE",
"44 436 OFFCURVE",
"55 421 CURVE SMOOTH",
"195 223 LINE",
"51 55 LINE SMOOTH",
"42 45 OFFCURVE",
"27 42 OFFCURVE",
"12 41 CURVE",
"5 0 LINE",
"189 0 LINE",
"195 39 LINE",
"174 43 OFFCURVE",
"154 50 OFFCURVE",
"138 59 CURVE",
"233 170 LINE",
"315 54 LINE"
);
}
);
};
layerId = "0EBA3A65-8808-4583-9AA2-2A9BC4F414AB";
paths = (
{
closed = 1;
nodes = (
"189 0 LINE",
"195 39 LINE",
"174 43 OFFCURVE",
"154 50 OFFCURVE",
"138 59 CURVE",
"233 170 LINE",
"315 54 LINE",
"305 46 OFFCURVE",
"292 41 OFFCURVE",
"276 41 CURVE",
"268 0 LINE",
"511 0 LINE",
"517 39 LINE",
"500 42 OFFCURVE",
"482 48 OFFCURVE",
"472 62 CURVE SMOOTH",
"325 268 LINE",
"455 427 LINE SMOOTH",
"465 439 OFFCURVE",
"483 442 OFFCURVE",
"502 443 CURVE",
"508 484 LINE",
"329 484 LINE",
"323 444 LINE",
"340 441 OFFCURVE",
"357 435 OFFCURVE",
"369 424 CURVE",
"287 322 LINE",
"211 429 LINE",
"221 437 OFFCURVE",
"234 440 OFFCURVE",
"250 442 CURVE",
"257 483 LINE",
"15 483 LINE",
"9 444 LINE",
"26 440 OFFCURVE",
"44 436 OFFCURVE",
"55 421 CURVE SMOOTH",
"195 223 LINE",
"51 55 LINE SMOOTH",
"42 45 OFFCURVE",
"27 42 OFFCURVE",
"12 41 CURVE",
"5 0 LINE"
);
}
);
width = 525;
}
);
leftKerningGroup = x;
rightKerningGroup = x;
unicode = 0078;
},
{
color = 1;
glyphname = y;
lastChange = "2019-12-01 02:33:27 +0000";
layers = (
{
anchors = (
{
name = top;
position = "{243, 467}";
}
);
background = {
anchors = (
{
name = top;
position = "{231, 505}";
}
);
paths = (
{
closed = 1;
nodes = (
"152 431 OFFCURVE",
"171 435 OFFCURVE",
"193 437 CURVE",
"196 467 LINE",
"-22 467 LINE",
"-24 436 LINE",
"6 431 OFFCURVE",
"36 421 OFFCURVE",
"47 394 CURVE SMOOTH",
"211 -8 LINE",
"190 -73 LINE SMOOTH",
"169 -137 OFFCURVE",
"149 -164 OFFCURVE",
"120 -164 CURVE SMOOTH",
"100 -164 OFFCURVE",
"87 -149 OFFCURVE",
"87 -130 CURVE SMOOTH",
"87 -118 OFFCURVE",
"91 -106 OFFCURVE",
"99 -95 CURVE",
"88 -88 OFFCURVE",
"75 -84 OFFCURVE",
"64 -84 CURVE SMOOTH",
"37 -84 OFFCURVE",
"15 -104 OFFCURVE",
"15 -141 CURVE SMOOTH",
"15 -186 OFFCURVE",
"54 -218 OFFCURVE",
"106 -218 CURVE SMOOTH",
"169 -218 OFFCURVE",
"208 -182 OFFCURVE",
"242 -84 CURVE SMOOTH",
"412 407 LINE SMOOTH",
"419 426 OFFCURVE",
"458 433 OFFCURVE",
"485 437 CURVE",
"487 467 LINE",
"292 467 LINE",
"290 437 LINE",
"312 434 OFFCURVE",
"332 428 OFFCURVE",
"349 415 CURVE",
"250 110 LINE",
"134 415 LINE"
);
}
);
};
layerId = UUID0;
paths = (
{
closed = 1;
nodes = (
"169 -218 OFFCURVE",
"208 -182 OFFCURVE",
"242 -84 CURVE SMOOTH",
"411 404 LINE SMOOTH",
"417 420 OFFCURVE",
"429 428 OFFCURVE",
"485 437 CURVE",
"487 467 LINE",
"292 467 LINE",
"290 437 LINE",
"312 434 OFFCURVE",
"332 428 OFFCURVE",
"349 415 CURVE",
"250 110 LINE",
"134 415 LINE",
"152 431 OFFCURVE",
"171 435 OFFCURVE",
"193 437 CURVE",
"196 467 LINE",
"-22 467 LINE",
"-24 436 LINE",
"22 428 OFFCURVE",
"39 414 OFFCURVE",
"48 392 CURVE SMOOTH",
"211 -8 LINE",
"190 -73 LINE SMOOTH",
"169 -137 OFFCURVE",
"149 -164 OFFCURVE",
"120 -164 CURVE SMOOTH",
"100 -164 OFFCURVE",
"87 -149 OFFCURVE",
"87 -130 CURVE SMOOTH",
"87 -118 OFFCURVE",
"91 -106 OFFCURVE",
"99 -95 CURVE",
"88 -88 OFFCURVE",
"75 -84 OFFCURVE",
"64 -84 CURVE SMOOTH",
"37 -84 OFFCURVE",
"15 -104 OFFCURVE",
"15 -141 CURVE SMOOTH",
"15 -186 OFFCURVE",
"54 -218 OFFCURVE",
"106 -218 CURVE SMOOTH"
);
}
);
width = 482;
},
{
anchors = (
{
name = top;
position = "{292, 484}";
}
);
background = {
anchors = (
{
name = top;
position = "{291, 515}";
}
);
paths = (
{
closed = 1;
nodes = (
"169 -140 OFFCURVE",
"152 -162 OFFCURVE",
"130 -162 CURVE SMOOTH",
"113 -162 OFFCURVE",
"103 -150 OFFCURVE",
"103 -131 CURVE SMOOTH",
"103 -119 OFFCURVE",
"107 -107 OFFCURVE",
"114 -101 CURVE",
"100 -85 OFFCURVE",
"82 -77 OFFCURVE",
"64 -77 CURVE SMOOTH",
"30 -77 OFFCURVE",
"6 -102 OFFCURVE",
"6 -143 CURVE SMOOTH",
"6 -192 OFFCURVE",
"45 -220 OFFCURVE",
"113 -220 CURVE SMOOTH",
"179 -220 OFFCURVE",
"218 -187 OFFCURVE",
"252 -103 CURVE SMOOTH",
"465 425 LINE SMOOTH",
"471 441 OFFCURVE",
"496 448 OFFCURVE",
"517 449 CURVE",
"521 484 LINE",
"335 484 LINE",
"331 449 LINE",
"360 444 OFFCURVE",
"379 438 OFFCURVE",
"396 427 CURVE",
"286 151 LINE",
"187 430 LINE",
"201 442 OFFCURVE",
"219 448 OFFCURVE",
"244 449 CURVE",
"249 484 LINE",
"-13 484 LINE",
"-15 449 LINE",
"18 443 OFFCURVE",
"39 429 OFFCURVE",
"47 407 CURVE SMOOTH",
"191 0 LINE",
"225 0 LINE",
"195 -76 LINE"
);
}
);
};
layerId = "0EBA3A65-8808-4583-9AA2-2A9BC4F414AB";
paths = (
{
closed = 1;
nodes = (
"179 -220 OFFCURVE",
"218 -187 OFFCURVE",
"252 -103 CURVE SMOOTH",
"465 425 LINE SMOOTH",
"471 441 OFFCURVE",
"496 448 OFFCURVE",
"517 449 CURVE",
"521 484 LINE",
"335 484 LINE",
"331 449 LINE",
"360 444 OFFCURVE",
"379 438 OFFCURVE",
"396 427 CURVE",
"286 151 LINE",
"187 430 LINE",
"201 442 OFFCURVE",
"219 448 OFFCURVE",
"244 449 CURVE",
"249 484 LINE",
"-13 484 LINE",
"-15 449 LINE",
"18 443 OFFCURVE",
"39 429 OFFCURVE",
"47 407 CURVE SMOOTH",
"191 0 LINE",
"225 0 LINE",
"195 -76 LINE SMOOTH",
"169 -140 OFFCURVE",
"152 -162 OFFCURVE",
"130 -162 CURVE SMOOTH",
"113 -162 OFFCURVE",
"103 -150 OFFCURVE",
"103 -131 CURVE SMOOTH",
"103 -119 OFFCURVE",
"107 -107 OFFCURVE",
"114 -101 CURVE",
"100 -85 OFFCURVE",
"82 -77 OFFCURVE",
"64 -77 CURVE SMOOTH",
"30 -77 OFFCURVE",
"6 -102 OFFCURVE",
"6 -143 CURVE SMOOTH",
"6 -192 OFFCURVE",
"45 -220 OFFCURVE",
"113 -220 CURVE SMOOTH"
);
}
);
width = 521;
}
);
leftKerningGroup = y;
rightKerningGroup = y;
unicode = 0079;
},
{
color = 1;
glyphname = z;
lastChange = "2019-12-01 06:11:16 +0000";
layers = (
{
anchors = (
{
name = top;
position = "{222, 467}";
}
);
background = {
anchors = (
{
name = top;
position = "{212, 505}";
}
);
paths = (
{
closed = 1;
nodes = (
"391 139 LINE",
"383 140 OFFCURVE",
"376 141 OFFCURVE",
"368 141 CURVE SMOOTH",
"360 141 OFFCURVE",
"351 140 OFFCURVE",
"343 138 CURVE",
"334 104 OFFCURVE",
"320 69 OFFCURVE",
"303 46 CURVE",
"280 45 OFFCURVE",
"253 45 OFFCURVE",
"228 45 CURVE SMOOTH",
"167 45 OFFCURVE",
"147 45 OFFCURVE",
"132 46 CURVE",
"393 433 LINE",
"386 469 LINE",
"352 468 OFFCURVE",
"297 467 OFFCURVE",
"235 467 CURVE SMOOTH",
"176 467 OFFCURVE",
"88 469 OFFCURVE",
"62 469 CURVE",
"37 448 LINE",
"46 338 LINE",
"54 335 OFFCURVE",
"63 334 OFFCURVE",
"72 334 CURVE SMOOTH",
"81 334 OFFCURVE",
"91 336 OFFCURVE",
"99 339 CURVE",
"102 367 OFFCURVE",
"113 404 OFFCURVE",
"126 420 CURVE",
"145 423 OFFCURVE",
"186 425 OFFCURVE",
"216 425 CURVE SMOOTH",
"233 425 OFFCURVE",
"277 422 OFFCURVE",
"291 421 CURVE",
"32 38 LINE",
"40 -4 LINE",
"40 -4 OFFCURVE",
"115 0 OFFCURVE",
"223 0 CURVE SMOOTH",
"277 0 OFFCURVE",
"339 -1 OFFCURVE",
"365 -3 CURVE",
"384 21 LINE"
);
}
);
};
layerId = UUID0;
paths = (
{
closed = 1;
nodes = (
"73 -3 OFFCURVE",
"115 0 OFFCURVE",
"202 0 CURVE SMOOTH",
"277 0 OFFCURVE",
"339 -1 OFFCURVE",
"365 -3 CURVE",
"384 21 LINE",
"391 139 LINE",
"383 140 OFFCURVE",
"376 141 OFFCURVE",
"368 141 CURVE SMOOTH",
"360 141 OFFCURVE",
"351 140 OFFCURVE",
"343 138 CURVE",
"334 104 OFFCURVE",
"320 69 OFFCURVE",
"303 46 CURVE",
"280 45 OFFCURVE",
"253 45 OFFCURVE",
"221 45 CURVE SMOOTH",
"167 45 OFFCURVE",
"147 45 OFFCURVE",
"132 46 CURVE",
"393 433 LINE",
"386 469 LINE",
"352 468 OFFCURVE",
"297 467 OFFCURVE",
"235 467 CURVE SMOOTH",
"176 467 OFFCURVE",
"88 469 OFFCURVE",
"62 469 CURVE",
"37 448 LINE",
"46 338 LINE",
"54 335 OFFCURVE",
"63 334 OFFCURVE",
"72 334 CURVE SMOOTH",
"81 334 OFFCURVE",
"91 336 OFFCURVE",
"99 339 CURVE",
"102 367 OFFCURVE",
"113 404 OFFCURVE",
"126 420 CURVE",
"145 423 OFFCURVE",
"186 425 OFFCURVE",
"215 425 CURVE SMOOTH",
"242 425 OFFCURVE",
"277 422 OFFCURVE",
"291 421 CURVE",
"32 38 LINE",
"40 -4 LINE"
);
}
);
width = 428;
},
{
anchors = (
{
name = top;
position = "{253, 484}";
}
);
background = {
anchors = (
{
name = top;
position = "{253, 515}";
}
);
paths = (
{
closed = 1;
nodes = (
"423 157 OFFCURVE",
"405 160 OFFCURVE",
"390 160 CURVE SMOOTH",
"379 160 OFFCURVE",
"365 158 OFFCURVE",
"348 154 CURVE",
"339 113 OFFCURVE",
"327 77 OFFCURVE",
"314 56 CURVE",
"188 56 LINE",
"434 449 LINE",
"424 486 LINE",
"367 484 OFFCURVE",
"297 484 OFFCURVE",
"243 484 CURVE SMOOTH",
"171 484 OFFCURVE",
"81 485 OFFCURVE",
"64 486 CURVE",
"27 456 LINE",
"36 345 LINE",
"54 339 OFFCURVE",
"69 336 OFFCURVE",
"85 336 CURVE SMOOTH",
"96 336 OFFCURVE",
"110 337 OFFCURVE",
"128 340 CURVE",
"134 380 OFFCURVE",
"143 417 OFFCURVE",
"150 430 CURVE",
"266 430 LINE",
"27 42 LINE",
"31 -2 LINE",
"57 -1 OFFCURVE",
"165 0 OFFCURVE",
"212 0 CURVE SMOOTH",
"253 0 OFFCURVE",
"303 0 OFFCURVE",
"427 -1 CURVE",
"434 155 LINE"
);
}
);
};
layerId = "0EBA3A65-8808-4583-9AA2-2A9BC4F414AB";
paths = (
{
closed = 1;
nodes = (
"74 -1 OFFCURVE",
"162 0 OFFCURVE",
"226 0 CURVE SMOOTH",
"282 0 OFFCURVE",
"329 1 OFFCURVE",
"393 -1 CURVE",
"428 29 LINE",
"434 155 LINE",
"423 157 OFFCURVE",
"405 160 OFFCURVE",
"390 160 CURVE SMOOTH",
"379 160 OFFCURVE",
"365 158 OFFCURVE",
"348 154 CURVE",
"339 113 OFFCURVE",
"327 77 OFFCURVE",
"314 56 CURVE",
"293 56 OFFCURVE",
"271 56 OFFCURVE",
"250 56 CURVE SMOOTH",
"229 56 OFFCURVE",
"209 56 OFFCURVE",
"188 56 CURVE",
"434 449 LINE",
"424 486 LINE",
"367 484 OFFCURVE",
"297 484 OFFCURVE",
"243 484 CURVE SMOOTH",
"171 484 OFFCURVE",
"98 484 OFFCURVE",
"64 486 CURVE",
"27 456 LINE",
"36 345 LINE",
"54 339 OFFCURVE",
"69 336 OFFCURVE",
"85 336 CURVE SMOOTH",
"96 336 OFFCURVE",
"110 337 OFFCURVE",
"128 340 CURVE",
"134 380 OFFCURVE",
"143 417 OFFCURVE",
"150 430 CURVE",
"168 431 OFFCURVE",
"186 432 OFFCURVE",
"204 432 CURVE SMOOTH",
"225 432 OFFCURVE",
"245 431 OFFCURVE",
"266 430 CURVE",
"27 42 LINE",
"31 -2 LINE"
);
}
);
width = 464;
}
);
leftKerningGroup = z;
rightKerningGroup = z;
unicode = 007A;
},
{
color = 4;
glyphname = Aacute;
lastChange = "2019-12-01 02:06:02 +0000";
layers = (
{
background = {
paths = (
{
closed = 1;
nodes = (
"245 0 LINE",
"249 37 LINE",
"216 41 OFFCURVE",
"181 47 OFFCURVE",
"152 64 CURVE",
"198 215 LINE",
"400 215 LINE",
"451 64 LINE",
"422 47 OFFCURVE",
"392 41 OFFCURVE",
"359 37 CURVE",
"354 0 LINE",
"604 0 LINE",
"608 37 LINE",
"585 41 OFFCURVE",
"563 47 OFFCURVE",
"542 62 CURVE",
"336 667 LINE",
"276 667 LINE",
"89 63 LINE",
"66 46 OFFCURVE",
"44 41 OFFCURVE",
"18 37 CURVE",
"13 0 LINE"
);
},
{
closed = 1;
nodes = (
"383 267 LINE",
"214 267 LINE",
"295 528 LINE"
);
},
{
closed = 1;
nodes = (
"400 779 LINE SMOOTH",
"415 792 OFFCURVE",
"425 802 OFFCURVE",
"425 818 CURVE SMOOTH",
"425 836 OFFCURVE",
"408 853 OFFCURVE",
"389 853 CURVE SMOOTH",
"375 853 OFFCURVE",
"366 848 OFFCURVE",
"357 836 CURVE SMOOTH",
"274 720 LINE",
"296 696 LINE"
);
}
);
};
components = (
{
name = A;
},
{
name = acutecomb.case;
transform = "{1, 0, 0, 1, 243, 0}";
}
);
layerId = UUID0;
width = 599;
},
{
background = {
paths = (
{
closed = 1;
nodes = (
"429 52 OFFCURVE",
"407 44 OFFCURVE",
"379 40 CURVE",
"373 0 LINE",
"647 0 LINE",
"652 40 LINE",
"628 44 OFFCURVE",
"604 52 OFFCURVE",
"591 74 CURVE",
"376 667 LINE",
"272 667 LINE",
"59 65 LINE",
"48 48 OFFCURVE",
"24 41 OFFCURVE",
"-2 40 CURVE",
"-8 0 LINE",
"218 0 LINE",
"223 40 LINE",
"189 44 OFFCURVE",
"157 54 OFFCURVE",
"138 70 CURVE",
"186 208 LINE",
"392 208 LINE",
"439 65 LINE"
);
},
{
closed = 1;
nodes = (
"371 271 LINE",
"208 271 LINE",
"293 511 LINE"
);
},
{
closed = 1;
nodes = (
"435 812 OFFCURVE",
"444 834 OFFCURVE",
"444 852 CURVE SMOOTH",
"444 880 OFFCURVE",
"426 899 OFFCURVE",
"398 899 CURVE SMOOTH",
"379 899 OFFCURVE",
"357 890 OFFCURVE",
"341 865 CURVE SMOOTH",
"261 746 LINE",
"295 713 LINE",
"412 796 LINE"
);
}
);
};
components = (
{
name = A;
},
{
name = acutecomb.case;
transform = "{1, 0, 0, 1, 267, 0}";
}
);
layerId = "0EBA3A65-8808-4583-9AA2-2A9BC4F414AB";
width = 653;
}
);
leftKerningGroup = A;
rightKerningGroup = A;
unicode = 00C1;
},
{
color = 4;
glyphname = Abreve;
lastChange = "2019-12-01 02:06:02 +0000";
layers = (
{
background = {
paths = (
{
closed = 1;
nodes = (
"245 0 LINE",
"249 37 LINE",
"216 41 OFFCURVE",
"181 47 OFFCURVE",
"152 64 CURVE",
"198 215 LINE",
"400 215 LINE",
"451 64 LINE",
"422 47 OFFCURVE",
"392 41 OFFCURVE",
"359 37 CURVE",
"354 0 LINE",
"604 0 LINE",
"608 37 LINE",
"585 41 OFFCURVE",
"563 47 OFFCURVE",
"542 62 CURVE",
"336 667 LINE",
"276 667 LINE",
"89 63 LINE",
"66 46 OFFCURVE",
"44 41 OFFCURVE",
"18 37 CURVE",
"13 0 LINE"
);
},
{
closed = 1;
nodes = (
"383 267 LINE",
"214 267 LINE",
"295 528 LINE"
);
},
{
closed = 1;
nodes = (
"376 706 OFFCURVE",
"423 753 OFFCURVE",
"426 825 CURVE",
"415 829 OFFCURVE",
"404 831 OFFCURVE",
"388 831 CURVE",
"385 789 OFFCURVE",
"355 760 OFFCURVE",
"309 760 CURVE SMOOTH",
"264 760 OFFCURVE",
"234 789 OFFCURVE",
"231 831 CURVE",
"215 831 OFFCURVE",
"204 828 OFFCURVE",
"192 824 CURVE",
"196 753 OFFCURVE",
"242 706 OFFCURVE",
"309 706 CURVE SMOOTH",
"309 706 LINE"
);
}
);
};
components = (
{
name = A;
},
{
name = brevecomb.case;
transform = "{1, 0, 0, 1, 176, 0}";
}
);
layerId = UUID0;
width = 599;
},
{
background = {
paths = (
{
closed = 1;
nodes = (
"429 52 OFFCURVE",
"407 44 OFFCURVE",
"379 40 CURVE",
"373 0 LINE",
"647 0 LINE",
"652 40 LINE",
"628 44 OFFCURVE",
"604 52 OFFCURVE",
"591 74 CURVE",
"376 667 LINE",
"272 667 LINE",
"59 65 LINE",
"48 48 OFFCURVE",
"24 41 OFFCURVE",
"-2 40 CURVE",
"-8 0 LINE",
"218 0 LINE",
"223 40 LINE",
"189 44 OFFCURVE",
"157 54 OFFCURVE",
"138 70 CURVE",
"186 208 LINE",
"392 208 LINE",
"439 65 LINE"
);
},
{
closed = 1;
nodes = (
"371 271 LINE",
"208 271 LINE",
"293 511 LINE"
);
},
{
closed = 1;
nodes = (
"404 702 OFFCURVE",
"459 756 OFFCURVE",
"466 839 CURVE",
"448 846 OFFCURVE",
"435 849 OFFCURVE",
"407 849 CURVE",
"400 805 OFFCURVE",
"371 780 OFFCURVE",
"324 780 CURVE SMOOTH",
"277 780 OFFCURVE",
"248 805 OFFCURVE",
"241 849 CURVE",
"211 849 OFFCURVE",
"199 847 OFFCURVE",
"181 838 CURVE",
"188 755 OFFCURVE",
"244 702 OFFCURVE",
"324 702 CURVE SMOOTH",
"324 702 LINE"
);
}
);
};
components = (
{
name = A;
},
{
name = brevecomb.case;
transform = "{1, 0, 0, 1, 185, 0}";
}
);
layerId = "0EBA3A65-8808-4583-9AA2-2A9BC4F414AB";
width = 653;
}
);
leftKerningGroup = A;
rightKerningGroup = A;
unicode = 0102;
},
{
color = 4;
glyphname = Acircumflex;
lastChange = "2019-12-01 02:06:02 +0000";
layers = (
{
background = {
paths = (
{
closed = 1;
nodes = (
"245 0 LINE",
"249 37 LINE",
"216 41 OFFCURVE",
"181 47 OFFCURVE",
"152 64 CURVE",
"198 215 LINE",
"400 215 LINE",
"451 64 LINE",
"422 47 OFFCURVE",
"392 41 OFFCURVE",
"359 37 CURVE",
"354 0 LINE",
"604 0 LINE",
"608 37 LINE",
"585 41 OFFCURVE",
"563 47 OFFCURVE",
"542 62 CURVE",
"336 667 LINE",
"276 667 LINE",
"89 63 LINE",
"66 46 OFFCURVE",
"44 41 OFFCURVE",
"18 37 CURVE",
"13 0 LINE"
);
},
{
closed = 1;
nodes = (
"383 267 LINE",
"214 267 LINE",
"295 528 LINE"
);
},
{
closed = 1;
nodes = (
"341 827 LINE SMOOTH",
"332 838 OFFCURVE",
"322 843 OFFCURVE",
"310 843 CURVE SMOOTH",
"298 843 OFFCURVE",
"288 837 OFFCURVE",
"279 827 CURVE SMOOTH",
"186 720 LINE",
"208 696 LINE",
"309 773 LINE",
"410 696 LINE",
"433 720 LINE"
);
}
);
};
components = (
{
name = A;
},
{
name = circumflexcomb.case;
transform = "{1, 0, 0, 1, 170, 0}";
}
);
layerId = UUID0;
width = 599;
},
{
background = {
components = (
{
name = A;
},
{
name = circumflex;
transform = "{1, 0, 0, 1, 134, 174}";
}
);
};
components = (
{
name = A;
},
{
name = circumflexcomb.case;
transform = "{1, 0, 0, 1, 179, 0}";
}
);
layerId = "0EBA3A65-8808-4583-9AA2-2A9BC4F414AB";
width = 653;
}
);
leftKerningGroup = A;
rightKerningGroup = A;
unicode = 00C2;
},
